CommissionerFlair-Italic.ufo
<glyph name="numbersign" format="2">
  <advance width="682.7684210526315"/>
  <unicode hex="0023"/>
  <outline>
    <contour>
      <point x="-3.1157894736842104" y="150.1157894736842" type="line"/>
      <point x="59.810526315789474" y="153.4842105263158"/>
      <point x="119.46315789473684" y="153.7578947368421"/>
      <point x="170.56842105263158" y="153.7578947368421" type="curve"/>
      <point x="416.1894736842105" y="153.7578947368421" type="line"/>
      <point x="467.29473684210524" y="153.7578947368421"/>
      <point x="526.4000000000001" y="153.4842105263158"/>
      <point x="588.7789473684211" y="150.1157894736842" type="curve"/>
      <point x="603.2631578947368" y="221.5263157894737" type="line"/>
      <point x="540.3368421052631" y="218.1578947368421"/>
      <point x="480.9578947368421" y="217.8842105263158"/>
      <point x="429.85263157894735" y="217.8842105263158" type="curve"/>
      <point x="184.23157894736843" y="217.8842105263158" type="line"/>
      <point x="133.1263157894737" y="217.8842105263158"/>
      <point x="73.74736842105264" y="218.1578947368421"/>
      <point x="11.368421052631579" y="221.5263157894737" type="curve"/>
    </contour>
    <contour>
      <point x="59.94736842105262" y="0.0" type="curve"/>
      <point x="141.55789473684212" y="0.0" type="line"/>
      <point x="165.3578947368421" y="68.27368421052631"/>
      <point x="188.6315789473684" y="128.18947368421053"/>
      <point x="222.81052631578947" y="211.73684210526315" type="curve"/>
      <point x="317.0736842105263" y="441.37894736842105" type="line"/>
      <point x="353.978947368421" y="531.2"/>
      <point x="378.61052631578946" y="587.3789473684211"/>
      <point x="411.62105263157895" y="658.4736842105264" type="curve"/>
      <point x="330.5578947368421" y="658.4736842105264" type="line"/>
      <point x="306.11578947368423" y="586.2842105263157"/>
      <point x="283.0315789473684" y="528.9263157894737"/>
      <point x="247.12631578947367" y="441.37894736842105" type="curve"/>
      <point x="152.86315789473684" y="211.73684210526315" type="line"/>
      <point x="118.6842105263158" y="128.9157894736842"/>
      <point x="91.86315789473686" y="67.17894736842105"/>
    </contour>
    <contour>
      <point x="113.05263157894736" y="433.94736842105266" type="line"/>
      <point x="176.2526315789474" y="437.3157894736842"/>
      <point x="235.63157894736844" y="437.58947368421053"/>
      <point x="286.7368421052632" y="437.58947368421053" type="curve"/>
      <point x="532.3578947368421" y="437.58947368421053" type="line"/>
      <point x="583.4631578947369" y="437.58947368421053"/>
      <point x="642.8421052631579" y="437.3157894736842"/>
      <point x="704.9473684210527" y="433.94736842105266" type="curve"/>
      <point x="719.7052631578948" y="505.35789473684207" type="line"/>
      <point x="656.5052631578948" y="501.9894736842105"/>
      <point x="597.1263157894738" y="501.7157894736842"/>
      <point x="546.021052631579" y="501.7157894736842" type="curve"/>
      <point x="300.40000000000003" y="501.7157894736842" type="line"/>
      <point x="249.29473684210527" y="501.7157894736842"/>
      <point x="189.9157894736842" y="501.9894736842105"/>
      <point x="127.81052631578947" y="505.35789473684207" type="curve"/>
    </contour>
    <contour>
      <point x="298.1578947368421" y="0.0" type="curve"/>
      <point x="379.7684210526316" y="0.0" type="line"/>
      <point x="403.5684210526316" y="68.27368421052631"/>
      <point x="426.8421052631579" y="128.18947368421053"/>
      <point x="461.0210526315789" y="211.73684210526315" type="curve"/>
      <point x="555.2842105263157" y="441.37894736842105" type="line"/>
      <point x="592.1894736842105" y="531.2"/>
      <point x="616.8210526315789" y="587.3789473684211"/>
      <point x="649.8315789473684" y="658.4736842105264" type="curve"/>
      <point x="568.7684210526317" y="658.4736842105264" type="line"/>
      <point x="544.3263157894737" y="586.2842105263157"/>
      <point x="521.2421052631579" y="528.9263157894737"/>
      <point x="485.33684210526314" y="441.37894736842105" type="curve"/>
      <point x="391.0736842105263" y="211.73684210526315" type="line"/>
      <point x="356.89473684210526" y="128.9157894736842"/>
      <point x="330.0736842105263" y="67.17894736842105"/>
    </contour>
  </outline>
</glyph>
<glyph name="percent" format="2">
  <advance width="880.5263157894736"/>
  <unicode hex="0025"/>
  <outline>
    <contour>
      <point x="138.52631578947367" y="0.0" type="curve"/>
      <point x="231.8842105263158" y="0.0" type="line"/>
      <point x="282.87368421052633" y="73.72631578947369"/>
      <point x="332.69473684210527" y="137.7263157894737"/>
      <point x="404.06315789473683" y="229.2736842105263" type="curve"/>
      <point x="597.978947368421" y="478.4526315789474" type="line"/>
      <point x="671.8" y="573.1789473684211"/>
      <point x="722.5368421052632" y="636.5473684210526"/>
      <point x="787.8210526315789" y="713.0" type="curve"/>
      <point x="695.0105263157895" y="713.0" type="line"/>
      <point x="641.7473684210527" y="636.5473684210526"/>
      <point x="592.1052631578947" y="573.1789473684211"/>
      <point x="518.2842105263157" y="478.4526315789474" type="curve"/>
      <point x="324.3684210526316" y="229.2736842105263" type="line"/>
      <point x="252.99999999999997" y="137.7263157894737"/>
      <point x="202.3578947368421" y="73.72631578947369"/>
    </contour>
    <contour>
      <point x="272.8315789473684" y="371.4315789473684" type="curve" smooth="yes"/>
      <point x="371.3157894736842" y="371.4315789473684"/>
      <point x="443.86315789473684" y="421.4315789473684"/>
      <point x="466.41052631578947" y="527.9894736842106" type="curve" smooth="yes"/>
      <point x="487.9578947368421" y="630.7263157894737"/>
      <point x="415.58947368421053" y="726.0947368421052"/>
      <point x="296.7368421052632" y="726.0947368421052" type="curve" smooth="yes"/>
      <point x="194.79999999999995" y="726.0947368421052"/>
      <point x="123.52631578947368" y="669.3684210526316"/>
      <point x="101.52631578947368" y="568.8210526315789" type="curve" smooth="yes"/>
      <point x="78.15789473684211" y="460.79999999999995"/>
      <point x="149.3473684210526" y="371.4315789473684"/>
    </contour>
    <contour>
      <point x="275.4736842105263" y="429.8" type="curve"/>
      <point x="191.4421052631579" y="432.34736842105264"/>
      <point x="151.20000000000002" y="487.4947368421052"/>
      <point x="165.9157894736842" y="560.0736842105264" type="curve" smooth="yes"/>
      <point x="180.17894736842106" y="630.021052631579"/>
      <point x="225.05263157894737" y="664.9052631578948"/>
      <point x="293.82105263157894" y="667.7263157894737" type="curve"/>
      <point x="372.6736842105263" y="664.9052631578948"/>
      <point x="415.36842105263156" y="604.578947368421"/>
      <point x="400.65263157894736" y="535.2736842105263" type="curve" smooth="yes"/>
      <point x="385.6631578947368" y="462.0526315789474"/>
      <point x="342.59999999999997" y="432.34736842105264"/>
    </contour>
    <contour>
      <point x="633.063157894737" y="-10.91578947368421" type="curve" smooth="yes"/>
      <point x="731.5473684210526" y="-10.91578947368421"/>
      <point x="804.0947368421052" y="39.084210526315786"/>
      <point x="826.642105263158" y="145.64210526315787" type="curve" smooth="yes"/>
      <point x="848.1894736842106" y="248.37894736842105"/>
      <point x="775.8210526315789" y="343.7473684210526"/>
      <point x="656.9684210526315" y="343.7473684210526" type="curve" smooth="yes"/>
      <point x="555.0315789473685" y="343.7473684210526"/>
      <point x="483.7578947368421" y="287.0210526315789"/>
      <point x="461.7578947368421" y="186.4736842105263" type="curve" smooth="yes"/>
      <point x="438.38947368421054" y="78.45263157894736"/>
      <point x="509.5789473684211" y="-10.91578947368421"/>
    </contour>
    <contour>
      <point x="635.7052631578948" y="47.45263157894737" type="curve"/>
      <point x="551.6736842105263" y="50.0"/>
      <point x="511.4315789473684" y="105.14736842105265"/>
      <point x="526.1473684210525" y="177.7263157894737" type="curve" smooth="yes"/>
      <point x="540.1368421052631" y="247.67368421052635"/>
      <point x="585.2842105263157" y="282.5578947368421"/>
      <point x="654.0526315789473" y="285.37894736842105" type="curve"/>
      <point x="732.9052631578948" y="282.5578947368421"/>
      <point x="775.6" y="222.23157894736843"/>
      <point x="760.8842105263159" y="152.92631578947368" type="curve" smooth="yes"/>
      <point x="745.621052631579" y="79.70526315789473"/>
      <point x="702.8315789473685" y="50.0"/>
    </contour>
  </outline>
</glyph>
<glyph name="ampersand" format="2">
  <advance width="736.2988505747127"/>
  <unicode hex="0026"/>
  <outline>
    <contour>
      <point x="559.919540229885" y="0.0" type="curve"/>
      <point x="670.0689655172415" y="0.0" type="line"/>
      <point x="617.2988505747127" y="60.367816091954026"/>
      <point x="568.3218390804599" y="121.73563218390805"/>
      <point x="520.3333333333334" y="181.9080459770115" type="curve"/>
      <point x="340.28735632183907" y="410.1264367816092" type="line" smooth="yes"/>
      <point x="293.6551724137931" y="469.35632183908046"/>
      <point x="278.03448275862064" y="517.9885057471264"/>
      <point x="290.24137931034477" y="574.4252873563219" type="curve" smooth="yes"/>
      <point x="302.85057471264366" y="630.471264367816"/>
      <point x="342.0919540229885" y="659.1264367816092"/>
      <point x="401.35632183908046" y="661.1264367816092" type="curve"/>
      <point x="457.3908045977011" y="658.528735632184"/>
      <point x="496.0114942528736" y="620.0804597701149"/>
      <point x="484.0" y="559.2298850574712" type="curve" smooth="yes"/>
      <point x="471.18390804597703" y="493.9655172413793"/>
      <point x="402.1264367816092" y="462.1494252873563"/>
      <point x="325.2758620689655" y="424.1379310344828" type="curve"/>
      <point x="364.7931034482758" y="373.8390804597701" type="line"/>
      <point x="443.81609195402297" y="413.4367816091954"/>
      <point x="541.0229885057471" y="455.8390804597701"/>
      <point x="560.0229885057471" y="548.448275862069" type="curve" smooth="yes"/>
      <point x="580.2183908045977" y="647.2298850574713"/>
      <point x="505.6666666666667" y="726.1954022988506"/>
      <point x="401.7586206896552" y="726.1954022988506" type="curve" smooth="yes"/>
      <point x="309.9885057471264" y="726.1954022988506"/>
      <point x="229.22988505747125" y="677.9770114942529"/>
      <point x="209.63218390804596" y="583.0114942528735" type="curve" smooth="yes"/>
      <point x="192.82758620689654" y="501.1954022988506"/>
      <point x="224.4367816091954" y="432.01149425287355"/>
      <point x="273.65517241379314" y="369.0" type="curve" smooth="yes"/>
      <point x="458.28735632183907" y="136.0" type="line"/>
      <point x="494.49425287356325" y="91.0"/>
      <point x="531.7011494252873" y="44.0"/>
    </contour>
    <contour>
      <point x="236.40229885057474" y="-10.195402298850574" type="curve" smooth="yes"/>
      <point x="324.02298850574715" y="-10.195402298850574"/>
      <point x="390.0344827586207" y="40.839080459770116"/>
      <point x="470.44827586206895" y="108.66666666666666" type="curve"/>
      <point x="483.64367816091954" y="108.66666666666666" type="line"/>
      <point x="479.0574712643678" y="125.04597701149424" type="line"/>
      <point x="439.51724137931035" y="172.9310344827586" type="line"/>
      <point x="369.44827586206895" y="100.88505747126437"/>
      <point x="309.2298850574713" y="61.448275862068975"/>
      <point x="245.96551724137933" y="61.448275862068975" type="curve"/>
      <point x="147.68965517241378" y="64.04597701149426"/>
      <point x="105.22988505747125" y="129.10344827586206"/>
      <point x="121.64367816091954" y="207.57471264367817" type="curve" smooth="yes"/>
      <point x="138.45977011494253" y="287.85057471264366"/>
      <point x="200.72413793103448" y="328.87356321839076"/>
      <point x="291.40229885057477" y="361.28735632183907" type="curve"/>
      <point x="261.67816091954023" y="415.7816091954023" type="line"/>
      <point x="161.4712643678161" y="383.18390804597703"/>
      <point x="66.24137931034483" y="328.5977011494253"/>
      <point x="41.4367816091954" y="210.183908045977" type="curve" smooth="yes"/>
      <point x="18.839080459770113" y="102.40229885057471"/>
      <point x="87.62068965517243" y="-10.195402298850574"/>
    </contour>
    <contour>
      <point x="529.9080459770114" y="162.13793103448276" type="line"/>
      <point x="588.4942528735633" y="224.7471264367816"/>
      <point x="643.6781609195401" y="284.55172413793105"/>
      <point x="705.0574712643678" y="343.9655172413793" type="curve"/>
      <point x="631.6206896551723" y="395.64367816091954" type="line"/>
      <point x="586.6091954022988" y="331.64367816091954"/>
      <point x="538.2068965517242" y="274.2413793103448"/>
      <point x="486.0" y="212.22988505747128" type="curve"/>
    </contour>
  </outline>
</glyph>
<glyph name="parenleft" format="2">
  <advance width="385.0736842105263"/>
  <unicode hex="0028"/>
  <outline>
    <contour>
      <point x="205.5263157894737" y="-121.03157894736842" type="curve"/>
      <point x="278.29473684210524" y="-96.62105263157893" type="line"/>
      <point x="188.94736842105266" y="25.378947368421052"/>
      <point x="125.05263157894737" y="156.81052631578945"/>
      <point x="163.77894736842106" y="337.7157894736842" type="curve" smooth="yes"/>
      <point x="202.50526315789472" y="519.621052631579"/>
      <point x="319.3052631578947" y="638.5263157894738"/>
      <point x="453.20000000000005" y="738.6210526315789" type="curve"/>
      <point x="382.25263157894733" y="768.4842105263158" type="line"/>
      <point x="253.36842105263156" y="671.7894736842106"/>
      <point x="121.96842105263158" y="543.7684210526315"/>
      <point x="80.32631578947368" y="347.2842105263158" type="curve" smooth="yes"/>
      <point x="38.68421052631579" y="151.52631578947364"/>
      <point x="119.81052631578946" y="-3.431578947368423"/>
    </contour>
  </outline>
</glyph>
<glyph name="asterisk" format="2">
  <advance width="473.0526315789474"/>
  <unicode hex="002A"/>
  <outline>
    <contour>
      <point x="436.2736842105263" y="336.41052631578947" type="curve"/>
      <point x="481.25263157894733" y="385.12631578947367" type="line"/>
      <point x="421.9684210526316" y="432.2105263157895"/>
      <point x="363.77894736842103" y="481.2947368421053"/>
      <point x="307.04210526315785" y="530.6526315789474" type="curve"/>
      <point x="253.31578947368422" y="586.021052631579"/>
      <point x="201.86315789473684" y="640.9368421052632"/>
      <point x="150.68421052631578" y="697.4" type="curve"/>
      <point x="106.43157894736842" y="648.6842105263157" type="line"/>
      <point x="164.71578947368423" y="601.6"/>
      <point x="223.45263157894738" y="552.2421052631579"/>
      <point x="279.91578947368424" y="501.88421052631577" type="curve"/>
      <point x="333.36842105263156" y="447.5157894736842"/>
      <point x="385.09473684210525" y="392.32631578947365"/>
    </contour>
    <contour>
      <point x="90.21052631578947" y="410.4947368421053" type="line"/>
      <point x="159.4842105263158" y="440.9578947368421"/>
      <point x="229.03157894736842" y="469.87368421052633"/>
      <point x="300.30526315789473" y="498.5157894736842" type="curve"/>
      <point x="372.2210526315789" y="520.7789473684211"/>
      <point x="445.58947368421053" y="542.042105263158"/>
      <point x="518.5052631578948" y="561.3052631578947" type="curve"/>
      <point x="496.7473684210526" y="623.3157894736842" type="line"/>
      <point x="427.4736842105263" y="592.578947368421"/>
      <point x="357.9263157894737" y="563.6631578947369"/>
      <point x="287.65263157894736" y="536.021052631579" type="curve"/>
      <point x="214.73684210526318" y="512.7578947368421"/>
      <point x="142.09473684210528" y="492.2210526315789"/>
      <point x="68.17894736842105" y="472.5052631578947" type="curve"/>
    </contour>
    <contour>
      <point x="213.51578947368424" y="301.7263157894737" type="curve"/>
      <point x="278.34736842105264" y="287.4315789473684" type="line"/>
      <point x="288.61052631578946" y="362.79999999999995"/>
      <point x="300.42105263157896" y="438.16842105263163"/>
      <point x="312.5052631578948" y="513.9894736842106" type="curve"/>
      <point x="331.9684210526316" y="586.5368421052632"/>
      <point x="351.4315789473684" y="659.8105263157895"/>
      <point x="373.1684210526316" y="732.3578947368421" type="curve"/>
      <point x="308.61052631578946" y="746.378947368421" type="line"/>
      <point x="298.34736842105264" y="671.0105263157894"/>
      <point x="286.5368421052632" y="595.9157894736842"/>
      <point x="274.4526315789474" y="522.0" type="curve"/>
      <point x="254.98947368421054" y="447.27368421052637"/>
      <point x="235.5263157894737" y="374.0"/>
    </contour>
  </outline>
</glyph>
<glyph name="plus" format="2">
  <advance width="588.9368421052632"/>
  <unicode hex="002B"/>
  <outline>
    <contour>
      <point x="212.10526315789474" y="59.252631578947366" type="curve"/>
      <point x="296.09473684210525" y="59.252631578947366" type="line"/>
      <point x="306.5473684210526" y="121.17894736842105"/>
      <point x="318.36842105263156" y="181.2842105263158"/>
      <point x="329.1894736842105" y="232.1157894736842" type="curve"/>
      <point x="357.5473684210526" y="364.7263157894737" type="line"/>
      <point x="368.6421052631579" y="416.37894736842105"/>
      <point x="381.7368421052631" y="475.7578947368421"/>
      <point x="398.2" y="538.4105263157895" type="curve"/>
      <point x="314.21052631578954" y="538.4105263157895" type="line"/>
      <point x="303.7578947368421" y="476.4842105263158"/>
      <point x="291.93684210526317" y="416.37894736842105"/>
      <point x="280.8421052631579" y="364.4526315789474" type="curve"/>
      <point x="252.48421052631582" y="232.1157894736842" type="line"/>
      <point x="241.66315789473686" y="181.2842105263158"/>
      <point x="228.5684210526316" y="121.17894736842105"/>
    </contour>
    <contour>
      <point x="64.13684210526314" y="258.2947368421053" type="line"/>
      <point x="128.06315789473683" y="261.66315789473686"/>
      <point x="187.44210526315788" y="261.93684210526317"/>
      <point x="238.54736842105262" y="261.93684210526317" type="curve"/>
      <point x="356.90526315789475" y="261.93684210526317" type="line"/>
      <point x="408.0105263157895" y="261.93684210526317"/>
      <point x="467.38947368421054" y="261.66315789473686"/>
      <point x="528.7684210526317" y="258.2947368421053" type="curve"/>
      <point x="546.621052631579" y="339.36842105263156" type="line"/>
      <point x="482.9684210526316" y="336.0"/>
      <point x="423.58947368421053" y="335.7263157894737"/>
      <point x="372.4842105263158" y="335.7263157894737" type="curve"/>
      <point x="254.1263157894737" y="335.7263157894737" type="line"/>
      <point x="203.02105263157895" y="335.7263157894737"/>
      <point x="143.6421052631579" y="336.0"/>
      <point x="81.98947368421052" y="339.36842105263156" type="curve"/>
    </contour>
  </outline>
</glyph>
<glyph name="comma" format="2">
  <advance width="229.8736842105263"/>
  <unicode hex="002C"/>
  <outline>
    <contour>
      <point x="-53.95789473684211" y="-157.0" type="curve"/>
      <point x="0.30526315789473624" y="-155.7263157894737" type="line"/>
      <point x="47.57894736842107" y="-108.18947368421054"/>
      <point x="122.09473684210526" y="-19.442105263157895"/>
      <point x="136.46315789473684" y="50.4" type="curve" smooth="yes"/>
      <point x="143.92631578947368" y="87.44210526315788"/>
      <point x="133.6421052631579" y="115.11578947368422"/>
      <point x="97.41052631578948" y="122.67368421052632" type="curve"/>
      <point x="48.05263157894737" y="119.48421052631579" type="line"/>
      <point x="47.14736842105263" y="87.0"/>
      <point x="42.6" y="54.51578947368421"/>
      <point x="36.231578947368426" y="23.673684210526318" type="curve"/>
      <point x="23.957894736842103" y="-34.96842105263158"/>
      <point x="-6.515789473684215" y="-98.27368421052631"/>
    </contour>
  </outline>
</glyph>
<glyph name="hyphen" format="2">
  <advance width="422.7368421052632"/>
  <unicode hex="002D"/>
  <outline>
    <contour>
      <point x="63.86315789473684" y="256.92631578947373" type="line"/>
      <point x="118.42105263157895" y="260.2947368421053"/>
      <point x="169.70526315789473" y="260.5684210526316"/>
      <point x="213.71578947368423" y="260.5684210526316" type="curve"/>
      <point x="257.7263157894737" y="260.5684210526316"/>
      <point x="309.0105263157895" y="260.2947368421053"/>
      <point x="363.021052631579" y="256.92631578947373" type="curve"/>
      <point x="379.87368421052633" y="338.0" type="line"/>
      <point x="324.58947368421053" y="334.63157894736844"/>
      <point x="273.0315789473684" y="334.3578947368421"/>
      <point x="229.02105263157895" y="334.3578947368421" type="curve"/>
      <point x="185.01052631578946" y="334.3578947368421"/>
      <point x="134.0" y="334.63157894736844"/>
      <point x="80.7157894736842" y="338.0" type="curve"/>
    </contour>
  </outline>
</glyph>
<glyph name="slash" format="2">
  <advance width="450.86315789473684"/>
  <unicode hex="002F"/>
  <outline>
    <contour>
      <point x="-25.76842105263158" y="0.0" type="curve"/>
      <point x="72.80000000000001" y="0.0" type="line"/>
      <point x="114.3263157894737" y="74.0"/>
      <point x="152.86315789473684" y="137.0"/>
      <point x="210.85263157894738" y="228.0" type="curve"/>
      <point x="365.91578947368424" y="474.0" type="line"/>
      <point x="426.90526315789475" y="571.0"/>
      <point x="468.2631578947369" y="636.0"/>
      <point x="522.0842105263158" y="713.0" type="curve"/>
      <point x="423.7894736842105" y="713.0" type="line"/>
      <point x="379.8105263157895" y="636.0"/>
      <point x="340.00000000000006" y="571.0"/>
      <point x="280.2842105263158" y="476.2736842105263" type="curve"/>
      <point x="123.94736842105263" y="228.0" type="line"/>
      <point x="65.95789473684209" y="137.0"/>
      <point x="24.599999999999998" y="74.0"/>
    </contour>
  </outline>
</glyph>
<glyph name="zero" format="2">
  <advance width="652.578947368421"/>
  <unicode hex="0030"/>
  <outline>
    <contour>
      <point x="304.29473684210524" y="-10.642105263157895" type="curve" smooth="yes"/>
      <point x="468.88421052631577" y="-10.642105263157895"/>
      <point x="565.7052631578947" y="98.82105263157894"/>
      <point x="610.7052631578947" y="309.9157894736842" type="curve" smooth="yes"/>
      <point x="656.8842105263158" y="528.0"/>
      <point x="581.5157894736842" y="698.7368421052631"/>
      <point x="395.2736842105263" y="698.7368421052631" type="curve" smooth="yes"/>
      <point x="223.95789473684212" y="698.7368421052631"/>
      <point x="124.8736842105263" y="582.2736842105263"/>
      <point x="82.6" y="379.0842105263158" type="curve" smooth="yes"/>
      <point x="37.96842105263158" y="166.46315789473684"/>
      <point x="106.42105263157895" y="-10.642105263157895"/>
    </contour>
    <contour>
      <point x="306.4842105263158" y="63.77894736842106" type="curve"/>
      <point x="171.86315789473684" y="67.87368421052632"/>
      <point x="133.45263157894738" y="199.8"/>
      <point x="169.43157894736842" y="368.9789473684211" type="curve" smooth="yes"/>
      <point x="202.3263157894737" y="524.3684210526316"/>
      <point x="267.18947368421055" y="619.9473684210526"/>
      <point x="393.90526315789475" y="624.0421052631579" type="curve"/>
      <point x="516.9894736842106" y="619.9473684210526"/>
      <point x="561.6736842105263" y="494.8315789473684"/>
      <point x="524.421052631579" y="319.0210526315789" type="curve" smooth="yes"/>
      <point x="491.5263157894737" y="164.7263157894737"/>
      <point x="431.29473684210524" y="67.87368421052632"/>
    </contour>
  </outline>
</glyph>
<glyph name="one" format="2">
  <advance width="430.44210526315794"/>
  <unicode hex="0031"/>
  <outline>
    <contour>
      <point x="104.34736842105264" y="479.57894736842104" type="line"/>
      <point x="186.44210526315788" y="524.4000000000001"/>
      <point x="269.3578947368421" y="564.4842105263158"/>
      <point x="352.7263157894737" y="604.021052631579" type="curve"/>
      <point x="372.0421052631579" y="688.7368421052631" type="line"/>
      <point x="280.2" y="644.7368421052631"/>
      <point x="189.0842105263158" y="601.4631578947368"/>
      <point x="96.78947368421052" y="563.1999999999999" type="curve"/>
    </contour>
    <contour>
      <point x="176.37894736842105" y="0.0" type="curve"/>
      <point x="274.6" y="0.0" type="line"/>
      <point x="286.3157894736842" y="73.3578947368421"/>
      <point x="297.40000000000003" y="136.98947368421054"/>
      <point x="314.67368421052635" y="218.81052631578947" type="curve"/>
      <point x="363.22105263157897" y="447.5473684210526" type="line"/>
      <point x="380.67368421052635" y="530.9052631578948"/>
      <point x="399.4947368421053" y="611.3578947368421"/>
      <point x="420.3263157894737" y="685.6421052631579" type="curve"/>
      <point x="372.0421052631579" y="688.7368421052631" type="line"/>
      <point x="316.9157894736842" y="648.5684210526316" type="line"/>
      <point x="305.10526315789474" y="576.0315789473684"/>
      <point x="290.9263157894737" y="506.67368421052635"/>
      <point x="275.4736842105263" y="434.13684210526316" type="curve"/>
      <point x="229.93684210526317" y="218.81052631578947" type="line"/>
      <point x="212.66315789473686" y="136.98947368421054"/>
      <point x="196.56842105263158" y="73.3578947368421"/>
    </contour>
  </outline>
</glyph>
<glyph name="two" format="2">
  <advance width="554.4947368421052"/>
  <unicode hex="0032"/>
  <outline>
    <contour>
      <point x="-3.378947368421052" y="0.0" type="line"/>
      <point x="449.33684210526314" y="0.0" type="line"/>
      <point x="467.01052631578943" y="83.0842105263158" type="line"/>
      <point x="389.93684210526317" y="76.15789473684211"/>
      <point x="312.77894736842103" y="74.8842105263158"/>
      <point x="237.07368421052632" y="74.8842105263158" type="curve"/>
      <point x="97.8421052631579" y="74.8842105263158" type="line"/>
      <point x="108.94736842105263" y="53.75789473684211" type="line"/>
      <point x="239.3578947368421" y="147.62105263157895" type="line"/>
      <point x="417.5789473684211" y="275.9263157894737"/>
      <point x="513.1684210526316" y="361.63157894736844"/>
      <point x="537.0736842105264" y="476.6105263157895" type="curve" smooth="yes"/>
      <point x="562.2631578947369" y="598.3684210526316"/>
      <point x="499.3157894736842" y="698.7368421052631"/>
      <point x="349.82105263157894" y="698.7368421052631" type="curve" smooth="yes"/>
      <point x="284.09473684210525" y="698.7368421052631"/>
      <point x="185.54736842105265" y="663.0210526315789"/>
      <point x="127.71578947368421" y="642.6631578947369" type="curve"/>
      <point x="119.59999999999998" y="551.2105263157895" type="line"/>
      <point x="208.85263157894738" y="598.1157894736842"/>
      <point x="299.4947368421052" y="623.4947368421052"/>
      <point x="333.4" y="623.4947368421052" type="curve"/>
      <point x="430.2421052631579" y="621.9473684210526"/>
      <point x="467.58947368421053" y="562.6315789473683"/>
      <point x="449.8736842105263" y="479.7789473684211" type="curve" smooth="yes"/>
      <point x="428.33684210526314" y="376.6421052631579"/>
      <point x="323.17894736842106" y="293.0315789473684"/>
      <point x="154.32631578947368" y="167.7157894736842" type="curve"/>
      <point x="105.70526315789475" y="132.2736842105263"/>
      <point x="58.178947368421056" y="99.02105263157894"/>
      <point x="10.557894736842107" y="67.49473684210527" type="curve"/>
    </contour>
  </outline>
</glyph>
<glyph name="four" format="2">
  <advance width="599.7586206896551"/>
  <unicode hex="0034"/>
  <outline>
    <contour>
      <point x="301.2988505747126" y="0.0" type="curve"/>
      <point x="399.65517241379314" y="0.0" type="line"/>
      <point x="407.0689655172414" y="63.39080459770115"/>
      <point x="417.6666666666667" y="114.37931034482759"/>
      <point x="433.264367816092" y="188.9655172413793" type="curve"/>
      <point x="487.4712643678161" y="444.7931034482759" type="line"/>
      <point x="503.8735632183908" y="523.7931034482758"/>
      <point x="521.0689655172413" y="602.7931034482758"/>
      <point x="545.655172413793" y="685.7931034482758" type="curve"/>
      <point x="445.2988505747126" y="685.7931034482758" type="line"/>
      <point x="410.08045977011494" y="641.5862068965517"/>
      <point x="369.0689655172414" y="595.5747126436781"/>
      <point x="328.4597701149425" y="550.9655172413793" type="curve"/>
      <point x="213.83908045977012" y="425.7471264367816" type="line"/>
      <point x="156.42528735632183" y="362.7356321839081"/>
      <point x="78.01149425287356" y="278.51724137931035"/>
      <point x="25.195402298850574" y="224.49425287356323" type="curve"/>
      <point x="11.82758620689655" y="158.24137931034483" type="line"/>
      <point x="379.0344827586207" y="158.24137931034483" type="line"/>
      <point x="431.41379310344826" y="158.24137931034483"/>
      <point x="506.98850574712645" y="157.64367816091954"/>
      <point x="553.7701149425287" y="153.85057471264366" type="curve"/>
      <point x="571.5287356321838" y="238.05747126436782" type="line"/>
      <point x="523.1494252873564" y="233.66666666666669"/>
      <point x="446.37931034482756" y="233.0689655172414"/>
      <point x="394.0" y="233.0689655172414" type="curve"/>
      <point x="379.8045977011494" y="233.0689655172414" type="line"/>
      <point x="96.63218390804597" y="233.0689655172414" type="line"/>
      <point x="101.62068965517241" y="199.93103448275863" type="line"/>
      <point x="139.4367816091954" y="244.94252873563218"/>
      <point x="179.04597701149427" y="290.14942528735634"/>
      <point x="220.05747126436782" y="335.1609195402299" type="curve"/>
      <point x="375.2988505747127" y="504.4022988505747" type="line"/>
      <point x="422.9080459770115" y="557.0114942528736"/>
      <point x="469.7241379310345" y="607.2298850574713"/>
      <point x="516.7356321839081" y="653.655172413793" type="curve"/>
      <point x="442.10344827586204" y="645.0689655172414" type="line"/>
      <point x="431.6896551724138" y="573.8620689655172"/>
      <point x="417.28735632183907" y="502.85057471264366"/>
      <point x="401.88505747126436" y="431.04597701149424" type="curve"/>
      <point x="354.264367816092" y="206.14942528735634" type="line"/>
      <point x="348.2758620689655" y="188.9655172413793" type="line"/>
      <point x="332.67816091954023" y="114.37931034482759"/>
      <point x="321.08045977011494" y="63.39080459770115"/>
    </contour>
  </outline>
</glyph>
<glyph name="five" format="2">
  <advance width="575.1724137931034"/>
  <unicode hex="0035"/>
  <outline>
    <contour>
      <point x="236.39080459770116" y="-10.793103448275861" type="curve" smooth="yes"/>
      <point x="394.33333333333337" y="-10.793103448275861"/>
      <point x="484.13793103448273" y="58.79310344827586"/>
      <point x="513.7356321839079" y="198.97701149425288" type="curve" smooth="yes"/>
      <point x="545.1379310344827" y="346.97701149425285"/>
      <point x="452.91954022988506" y="441.9655172413793"/>
      <point x="334.9080459770115" y="441.9655172413793" type="curve" smooth="yes"/>
      <point x="286.264367816092" y="441.9655172413793"/>
      <point x="251.24137931034483" y="429.35632183908046"/>
      <point x="211.41379310344828" y="410.13793103448273" type="curve"/>
      <point x="203.02298850574712" y="410.13793103448273" type="line"/>
      <point x="212.22988505747128" y="453.57471264367814" type="line"/>
      <point x="225.4367816091954" y="515.2183908045978"/>
      <point x="240.04597701149427" y="578.4597701149426"/>
      <point x="255.64367816091954" y="640.5057471264367" type="curve"/>
      <point x="215.73563218390805" y="610.9655172413793" type="line"/>
      <point x="317.9425287356322" y="610.9655172413793" type="line"/>
      <point x="397.14942528735634" y="610.9655172413793"/>
      <point x="478.95402298850576" y="610.3678160919541"/>
      <point x="557.5632183908045" y="602.5862068965517" type="curve"/>
      <point x="574.7241379310344" y="685.7931034482758" type="line"/>
      <point x="172.44827586206898" y="685.7931034482758" type="line"/>
      <point x="162.4367816091954" y="609.0114942528736"/>
      <point x="145.24137931034483" y="524.2298850574713"/>
      <point x="126.04597701149426" y="433.85057471264366" type="curve"/>
      <point x="103.85057471264368" y="326.8735632183908" type="line"/>
      <point x="140.96551724137933" y="323.67816091954023" type="line"/>
      <point x="202.01149425287355" y="358.71264367816093"/>
      <point x="243.02298850574715" y="369.91954022988506"/>
      <point x="295.05747126436785" y="369.91954022988506" type="curve"/>
      <point x="384.31034482758616" y="368.32183908045977"/>
      <point x="449.5747126436782" y="314.2758620689655"/>
      <point x="427.55172413793105" y="205.77011494252872" type="curve" smooth="yes"/>
      <point x="407.3333333333333" y="106.08045977011494"/>
      <point x="342.08045977011494" y="65.83908045977012"/>
      <point x="235.98850574712642" y="64.24137931034483" type="curve"/>
      <point x="174.9770114942529" y="64.24137931034483"/>
      <point x="100.79310344827586" y="94.0344827586207"/>
      <point x="28.977011494252874" y="135.83908045977012" type="curve"/>
      <point x="3.425287356321838" y="54.02298850574713" type="line"/>
      <point x="56.42528735632184" y="31.011494252873565"/>
      <point x="138.6206896551724" y="-10.793103448275861"/>
    </contour>
  </outline>
</glyph>
<glyph name="six" format="2">
  <advance width="607.367816091954"/>
  <unicode hex="0036"/>
  <outline>
    <contour>
      <point x="291.37931034482756" y="-10.793103448275861" type="curve" smooth="yes"/>
      <point x="442.3333333333333" y="-10.793103448275861"/>
      <point x="524.735632183908" y="86.18390804597702"/>
      <point x="548.735632183908" y="200.79310344827587" type="curve" smooth="yes"/>
      <point x="576.5287356321838" y="331.7701149425287"/>
      <point x="503.7356321839081" y="443.9655172413793"/>
      <point x="367.11494252873564" y="443.9655172413793" type="curve" smooth="yes"/>
      <point x="301.27586206896547" y="443.9655172413793"/>
      <point x="221.62068965517244" y="403.33333333333337"/>
      <point x="175.20689655172416" y="365.1264367816092" type="curve"/>
      <point x="160.816091954023" y="366.1264367816092" type="line"/>
      <point x="137.88505747126436" y="334.1954022988506"/>
      <point x="133.88505747126436" y="317.39080459770116"/>
      <point x="144.4367816091954" y="285.632183908046" type="curve"/>
      <point x="203.29885057471265" y="337.48275862068965"/>
      <point x="280.7701149425288" y="371.51724137931035"/>
      <point x="339.81609195402297" y="372.51724137931035" type="curve"/>
      <point x="446.32183908045977" y="370.32183908045977"/>
      <point x="484.14942528735634" y="292.8390804597701"/>
      <point x="466.7356321839081" y="211.17241379310343" type="curve" smooth="yes"/>
      <point x="449.32183908045977" y="129.50574712643677"/>
      <point x="393.6781609195402" y="66.83908045977012"/>
      <point x="292.7701149425287" y="64.24137931034483" type="curve"/>
      <point x="173.44827586206898" y="68.63218390804597"/>
      <point x="122.2183908045977" y="167.7241379310345"/>
      <point x="159.632183908046" y="342.7931034482758" type="curve" smooth="yes"/>
      <point x="201.6551724137931" y="540.8965517241379"/>
      <point x="276.5057471264368" y="620.7586206896551"/>
      <point x="406.9770114942529" y="623.3563218390805" type="curve"/>
      <point x="434.5747126436782" y="623.3563218390805"/>
      <point x="503.77011494252883" y="605.5632183908045"/>
      <point x="574.1839080459771" y="569.5517241379309" type="curve"/>
      <point x="599.9310344827585" y="649.5747126436783" type="line"/>
      <point x="552.9425287356322" y="667.3793103448277"/>
      <point x="465.5632183908046" y="698.9885057471264"/>
      <point x="406.97701149425285" y="698.9885057471264" type="curve" smooth="yes"/>
      <point x="241.36781609195404" y="698.9885057471264"/>
      <point x="128.6206896551724" y="597.1264367816092"/>
      <point x="77.22988505747126" y="354.367816091954" type="curve" smooth="yes"/>
      <point x="31.034482758620687" y="133.5977011494253"/>
      <point x="113.82758620689654" y="-10.793103448275861"/>
    </contour>
  </outline>
</glyph>
<glyph name="seven" format="2">
  <advance width="527.9684210526316"/>
  <unicode hex="0037"/>
  <outline>
    <contour>
      <point x="52.852631578947374" y="0.0" type="curve"/>
      <point x="163.2736842105263" y="0.0" type="line"/>
      <point x="210.33684210526317" y="81.89473684210526"/>
      <point x="262.3157894736842" y="164.2421052631579"/>
      <point x="315.4842105263158" y="244.41052631578947" type="curve"/>
      <point x="407.6421052631579" y="383.29473684210524" type="line"/>
      <point x="462.9894736842105" y="467.09473684210525"/>
      <point x="513.6105263157895" y="543.8947368421053"/>
      <point x="566.2315789473683" y="619.6842105263157" type="curve"/>
      <point x="580.4421052631578" y="685.6421052631579" type="line"/>
      <point x="117.0" y="685.6421052631579" type="line"/>
      <point x="99.32631578947368" y="601.7368421052631" type="line"/>
      <point x="184.94736842105266" y="609.1157894736842"/>
      <point x="269.021052631579" y="610.7578947368421"/>
      <point x="351.82105263157894" y="610.7578947368421" type="curve"/>
      <point x="492.06315789473683" y="610.7578947368421" type="line"/>
      <point x="469.5578947368421" y="629.7894736842105" type="line"/>
      <point x="439.0315789473684" y="578.8"/>
      <point x="407.58947368421053" y="529.0842105263158"/>
      <point x="373.5052631578947" y="477.2736842105263" type="curve"/>
      <point x="235.6315789473684" y="270.0421052631579" type="line"/>
      <point x="176.46315789473684" y="181.14736842105262"/>
      <point x="115.29473684210527" y="89.8"/>
    </contour>
  </outline>
</glyph>
<glyph name="eight" format="2">
  <advance width="606.9655172413793"/>
  <unicode hex="0038"/>
  <outline>
    <contour>
      <point x="281.3793103448276" y="-10.793103448275861" type="curve" smooth="yes"/>
      <point x="435.1379310344828" y="-10.793103448275861"/>
      <point x="516.735632183908" y="57.01149425287356"/>
      <point x="539.9310344827586" y="166.0" type="curve" smooth="yes"/>
      <point x="564.9310344827586" y="282.60919540229884"/>
      <point x="492.71264367816093" y="346.0229885057471"/>
      <point x="437.7241379310345" y="363.01149425287355" type="curve"/>
      <point x="439.32183908045977" y="371.4022988505747" type="line"/>
      <point x="507.9080459770115" y="383.8045977011494"/>
      <point x="569.9195402298851" y="425.81609195402297"/>
      <point x="586.3218390804599" y="503.816091954023" type="curve" smooth="yes"/>
      <point x="609.3218390804599" y="611.8045977011494"/>
      <point x="526.735632183908" y="698.9885057471264"/>
      <point x="373.7931034482759" y="698.9885057471264" type="curve" smooth="yes"/>
      <point x="252.22988505747128" y="698.9885057471264"/>
      <point x="157.64367816091954" y="650.7931034482758"/>
      <point x="137.04597701149424" y="552.8045977011494" type="curve" smooth="yes"/>
      <point x="118.64367816091954" y="466.8045977011494"/>
      <point x="169.2528735632184" y="403.5977011494253"/>
      <point x="221.24137931034483" y="385.1954022988506" type="curve"/>
      <point x="219.64367816091954" y="376.8045977011494" type="line"/>
      <point x="157.05747126436782" y="366.2068965517241"/>
      <point x="67.4367816091954" y="330.4022988505747"/>
      <point x="44.03448275862069" y="220.39080459770116" type="curve" smooth="yes"/>
      <point x="19.839080459770116" y="104.80459770114942"/>
      <point x="88.42528735632183" y="-10.793103448275861"/>
    </contour>
    <contour>
      <point x="283.7701149425288" y="64.83908045977012" type="curve"/>
      <point x="152.83908045977012" y="67.0344827586207"/>
      <point x="113.60919540229887" y="139.31034482758622"/>
      <point x="130.42528735632186" y="217.58620689655172" type="curve" smooth="yes"/>
      <point x="149.24137931034485" y="307.47126436781605"/>
      <point x="223.72413793103448" y="331.2988505747126"/>
      <point x="317.6091954022989" y="333.4942528735632" type="curve"/>
      <point x="412.68965517241384" y="331.2988505747126"/>
      <point x="478.1494252873563" y="276.64367816091954"/>
      <point x="458.5287356321839" y="182.55172413793102" type="curve" smooth="yes"/>
      <point x="443.1149425287356" y="107.88505747126437"/>
      <point x="388.2643678160919" y="67.0344827586207"/>
    </contour>
    <contour>
      <point x="341.36781609195407" y="401.7471264367816" type="curve"/>
      <point x="247.08045977011494" y="403.3448275862069"/>
      <point x="201.64367816091954" y="461.4022988505747"/>
      <point x="217.05747126436782" y="532.0689655172414" type="curve" smooth="yes"/>
      <point x="231.66666666666666" y="599.3218390804598"/>
      <point x="292.5287356321839" y="622.9540229885057"/>
      <point x="370.0" y="625.1494252873563" type="curve"/>
      <point x="465.49425287356325" y="622.9540229885057"/>
      <point x="518.5402298850576" y="577.103448275862"/>
      <point x="502.7241379310345" y="502.2413793103449" type="curve" smooth="yes"/>
      <point x="489.3103448275862" y="437.7816091954023"/>
      <point x="432.45977011494256" y="403.3448275862069"/>
    </contour>
  </outline>
</glyph>
<glyph name="less" format="2">
  <advance width="568.2105263157895"/>
  <unicode hex="003C"/>
  <outline>
    <contour>
      <point x="468.58947368421053" y="68.7578947368421" type="curve"/>
      <point x="486.7157894736842" y="152.37894736842105" type="line"/>
      <point x="421.37894736842105" y="177.26315789473685"/>
      <point x="352.86315789473684" y="208.96842105263158"/>
      <point x="287.3473684210526" y="239.94736842105263" type="curve"/>
      <point x="182.03157894736842" y="289.3684210526316" type="line"/>
      <point x="184.30526315789473" y="298.10526315789474" type="line"/>
      <point x="309.5157894736842" y="346.9789473684211" type="line"/>
      <point x="388.84210526315786" y="377.95789473684215"/>
      <point x="470.62105263157895" y="409.11578947368423"/>
      <point x="546.6736842105263" y="434.0" type="curve"/>
      <point x="565.621052631579" y="527.4526315789474" type="line"/>
      <point x="497.42105263157896" y="497.9894736842105"/>
      <point x="432.0421052631579" y="471.9894736842105"/>
      <point x="375.4842105263158" y="449.9894736842105" type="curve"/>
      <point x="268.6736842105263" y="408.2736842105263" type="line"/>
      <point x="213.29473684210527" y="387.0"/>
      <point x="148.1894736842105" y="362.2736842105263"/>
      <point x="81.53684210526315" y="339.91578947368424" type="curve"/>
      <point x="63.41052631578946" y="256.29473684210524" type="line"/>
      <point x="120.8842105263158" y="233.93684210526317"/>
      <point x="175.7157894736842" y="209.21052631578948"/>
      <point x="221.36842105263156" y="187.93684210526317" type="curve"/>
      <point x="311.0" y="146.22105263157894" type="line"/>
      <point x="357.8315789473684" y="124.22105263157894"/>
      <point x="413.2105263157895" y="97.49473684210525"/>
    </contour>
  </outline>
</glyph>
<glyph name="equal" format="2">
  <advance width="568.2105263157895"/>
  <unicode hex="003D"/>
  <outline>
    <contour>
      <point x="43.50526315789473" y="146.45263157894735" type="line"/>
      <point x="106.70526315789473" y="149.82105263157894"/>
      <point x="166.0842105263158" y="150.09473684210525"/>
      <point x="217.18947368421053" y="150.09473684210525" type="curve"/>
      <point x="310.0736842105263" y="150.09473684210525" type="line"/>
      <point x="361.17894736842106" y="150.09473684210525"/>
      <point x="420.5578947368421" y="149.82105263157894"/>
      <point x="482.66315789473686" y="146.45263157894735" type="curve"/>
      <point x="499.7894736842105" y="227.5263157894737" type="line"/>
      <point x="436.13684210526316" y="224.1578947368421"/>
      <point x="376.7578947368421" y="223.8842105263158"/>
      <point x="325.65263157894736" y="223.8842105263158" type="curve"/>
      <point x="232.7684210526316" y="223.8842105263158" type="line"/>
      <point x="181.66315789473686" y="223.8842105263158"/>
      <point x="122.28421052631579" y="224.1578947368421"/>
      <point x="60.631578947368425" y="227.5263157894737" type="curve"/>
    </contour>
    <contour>
      <point x="89.78947368421053" y="370.13684210526316" type="line"/>
      <point x="152.98947368421054" y="373.5052631578947"/>
      <point x="212.3684210526316" y="373.77894736842103"/>
      <point x="263.4736842105263" y="373.77894736842103" type="curve"/>
      <point x="356.35789473684207" y="373.77894736842103" type="line"/>
      <point x="407.4631578947368" y="373.77894736842103"/>
      <point x="466.84210526315786" y="373.5052631578947"/>
      <point x="528.9473684210527" y="370.13684210526316" type="curve"/>
      <point x="546.0736842105264" y="451.2105263157895" type="line"/>
      <point x="482.42105263157896" y="447.8421052631579"/>
      <point x="423.0421052631579" y="447.5684210526316"/>
      <point x="371.93684210526317" y="447.5684210526316" type="curve"/>
      <point x="279.0526315789474" y="447.5684210526316" type="line"/>
      <point x="227.94736842105263" y="447.5684210526316"/>
      <point x="168.56842105263158" y="447.8421052631579"/>
      <point x="106.91578947368421" y="451.2105263157895" type="curve"/>
    </contour>
  </outline>
</glyph>
<glyph name="greater" format="2">
  <advance width="568.2105263157895"/>
  <unicode hex="003E"/>
  <outline>
    <contour>
      <point x="23.957894736842107" y="68.7578947368421" type="line"/>
      <point x="92.1578947368421" y="98.22105263157894"/>
      <point x="157.53684210526313" y="124.22105263157894"/>
      <point x="214.09473684210525" y="146.22105263157894" type="curve"/>
      <point x="320.90526315789475" y="187.93684210526317" type="line"/>
      <point x="376.2842105263158" y="209.21052631578948"/>
      <point x="441.38947368421054" y="233.93684210526317"/>
      <point x="508.0421052631579" y="256.29473684210524" type="curve"/>
      <point x="526.1684210526316" y="339.91578947368424" type="line"/>
      <point x="468.69473684210527" y="362.2736842105263"/>
      <point x="413.86315789473684" y="387.0"/>
      <point x="368.2105263157895" y="408.2736842105263" type="curve"/>
      <point x="278.57894736842104" y="449.9894736842105" type="line"/>
      <point x="231.7473684210526" y="471.9894736842105"/>
      <point x="176.36842105263156" y="498.7157894736842"/>
      <point x="120.98947368421052" y="527.4526315789474" type="curve"/>
      <point x="102.86315789473684" y="443.8315789473684" type="line"/>
      <point x="168.2" y="418.9473684210526"/>
      <point x="236.7157894736842" y="387.2421052631579"/>
      <point x="302.2315789473684" y="356.2631578947368" type="curve"/>
      <point x="407.5473684210526" y="306.84210526315786" type="line"/>
      <point x="405.2736842105263" y="298.10526315789474" type="line"/>
      <point x="280.06315789473683" y="249.23157894736843" type="line"/>
      <point x="200.73684210526315" y="218.2526315789474"/>
      <point x="118.9578947368421" y="187.09473684210528"/>
      <point x="42.905263157894744" y="162.21052631578948" type="curve"/>
    </contour>
  </outline>
</glyph>
<glyph name="at" format="2">
  <advance width="882.3894736842105"/>
  <unicode hex="0040"/>
  <outline>
    <contour>
      <point x="477.47368421052636" y="-131.57894736842104" type="curve" smooth="yes"/>
      <point x="562.021052631579" y="-131.57894736842104"/>
      <point x="677.9263157894736" y="-94.58947368421053"/>
      <point x="760.0210526315789" y="-59.410526315789475" type="curve"/>
      <point x="760.0210526315789" y="6.505263157894738" type="line"/>
      <point x="655.4631578947368" y="-44.68421052631579"/>
      <point x="544.0947368421052" y="-72.6736842105263"/>
      <point x="477.47368421052636" y="-76.22105263157894" type="curve"/>
      <point x="200.32631578947368" y="-72.6736842105263"/>
      <point x="76.15789473684211" y="117.54736842105264"/>
      <point x="122.25263157894737" y="334.36842105263156" type="curve" smooth="yes"/>
      <point x="162.96842105263158" y="526.3052631578947"/>
      <point x="295.7368421052632" y="616.6947368421053"/>
      <point x="472.47368421052636" y="620.2421052631579" type="curve"/>
      <point x="688.1684210526315" y="616.6947368421053"/>
      <point x="811.7894736842105" y="462.66315789473686"/>
      <point x="771.3368421052631" y="258.6736842105263" type="curve" smooth="yes"/>
      <point x="756.7052631578947" y="185.2421052631579"/>
      <point x="690.7368421052631" y="118.72631578947367"/>
      <point x="646.2105263157895" y="117.63157894736841" type="curve"/>
      <point x="595.7789473684211" y="120.17894736842105"/>
      <point x="576.6105263157895" y="148.81052631578947"/>
      <point x="590.978947368421" y="219.2842105263158" type="curve"/>
      <point x="609.1473684210526" y="306.4" type="line"/>
      <point x="622.4210526315788" y="364.93684210526317"/>
      <point x="637.2421052631578" y="422.56842105263155"/>
      <point x="657.336842105263" y="481.2842105263158" type="curve"/>
      <point x="588.2947368421053" y="476.9157894736842" type="line"/>
      <point x="572.0210526315789" y="423.2842105263158" type="line"/>
      <point x="564.8315789473684" y="423.2842105263158" type="line"/>
      <point x="536.2947368421053" y="459.0210526315789"/>
      <point x="481.94736842105266" y="487.0105263157895"/>
      <point x="434.87368421052633" y="487.0105263157895" type="curve" smooth="yes"/>
      <point x="341.42105263157896" y="487.0105263157895"/>
      <point x="270.9789473684211" y="413.3578947368421"/>
      <point x="248.34736842105264" y="303.8315789473684" type="curve" smooth="yes"/>
      <point x="223.0736842105263" y="182.2736842105263"/>
      <point x="272.3578947368421" y="71.3578947368421"/>
      <point x="389.5263157894737" y="71.3578947368421" type="curve" smooth="yes"/>
      <point x="429.42105263157896" y="71.3578947368421"/>
      <point x="477.14736842105265" y="93.90526315789474"/>
      <point x="519.5894736842105" y="138.53684210526313" type="curve"/>
      <point x="526.5052631578947" y="138.53684210526313" type="line"/>
      <point x="537.7052631578947" y="99.89473684210526"/>
      <point x="574.1052631578947" y="61.90526315789474"/>
      <point x="650.4736842105262" y="61.90526315789474" type="curve" smooth="yes"/>
      <point x="700.2105263157895" y="61.90526315789474"/>
      <point x="805.6947368421053" y="131.52631578947367"/>
      <point x="828.1578947368421" y="247.2" type="curve" smooth="yes"/>
      <point x="873.3473684210526" y="481.58947368421053"/>
      <point x="720.778947368421" y="675.6"/>
      <point x="473.74736842105267" y="675.6" type="curve" smooth="yes"/>
      <point x="281.5578947368421" y="675.6"/>
      <point x="111.89473684210527" y="572.9578947368421"/>
      <point x="64.97894736842106" y="345.2105263157895" type="curve" smooth="yes"/>
      <point x="14.147368421052631" y="100.43157894736842"/>
      <point x="163.9894736842105" y="-131.57894736842104"/>
    </contour>
    <contour>
      <point x="407.4842105263158" y="134.47368421052633" type="curve"/>
      <point x="328.37894736842105" y="136.47368421052633"/>
      <point x="298.4947368421053" y="205.5157894736842"/>
      <point x="316.8421052631579" y="292.89473684210526" type="curve" smooth="yes"/>
      <point x="332.5578947368421" y="366.8421052631579"/>
      <point x="376.2526315789474" y="420.0736842105263"/>
      <point x="449.18947368421055" y="422.34736842105264" type="curve"/>
      <point x="489.7894736842106" y="422.5263157894737"/>
      <point x="526.5684210526315" y="400.82105263157894"/>
      <point x="553.8105263157894" y="372.30526315789473" type="curve"/>
      <point x="518.1052631578947" y="206.31578947368422" type="line"/>
      <point x="482.0526315789474" y="156.2736842105263"/>
      <point x="441.5473684210527" y="136.47368421052633"/>
    </contour>
  </outline>
</glyph>
<glyph name="A" format="2">
  <advance width="691.2631578947369"/>
  <unicode hex="0041"/>
  <anchor x="293.4947368421053" y="0.0" name="bottom"/>
  <anchor x="615.0210526315789" y="0.0" name="ogonek"/>
  <anchor x="442.94736842105266" y="713.0" name="top"/>
  <outline>
    <contour>
      <point x="-30.852631578947367" y="0.0" type="curve"/>
      <point x="83.11578947368423" y="0.0" type="line"/>
      <point x="124.26315789473685" y="84.70526315789475"/>
      <point x="171.41052631578947" y="173.41052631578947"/>
      <point x="217.29473684210527" y="256.38947368421054" type="curve"/>
      <point x="425.2736842105263" y="631.2947368421053" type="line"/>
      <point x="434.0105263157895" y="631.2947368421053" type="line"/>
      <point x="484.67368421052635" y="255.1157894736842" type="line"/>
      <point x="495.5684210526316" y="174.13684210526316"/>
      <point x="506.82105263157894" y="82.80000000000001"/>
      <point x="511.4315789473684" y="0.0" type="curve"/>
      <point x="616.6631578947369" y="0.0" type="line"/>
      <point x="601.3894736842105" y="75.0"/>
      <point x="585.1157894736842" y="163.0"/>
      <point x="573.3052631578947" y="241.90526315789472" type="curve"/>
      <point x="537.3263157894737" y="486.7263157894737" type="line"/>
      <point x="524.5157894736842" y="574.0"/>
      <point x="516.8" y="641.3578947368421"/>
      <point x="512.7263157894737" y="713.0" type="curve"/>
      <point x="376.1684210526316" y="713.0" type="line"/>
      <point x="339.36842105263156" y="638.4526315789474"/>
      <point x="303.10526315789474" y="571.7263157894737"/>
      <point x="255.02105263157895" y="487.17894736842106" type="curve"/>
      <point x="115.86315789473684" y="243.0" type="line"/>
      <point x="71.77894736842106" y="166.0"/>
      <point x="19.147368421052633" y="76.45263157894738"/>
    </contour>
    <contour>
      <point x="147.43157894736842" y="179.18947368421053" type="line"/>
      <point x="522.7263157894737" y="179.18947368421053" type="line"/>
      <point x="530.9157894736842" y="250.2421052631579" type="line"/>
      <point x="169.57894736842107" y="250.2421052631579" type="line"/>
    </contour>
  </outline>
</glyph>
<glyph name="B" format="2">
  <advance width="647.3448275862069"/>
  <unicode hex="0042"/>
  <outline>
    <contour>
      <point x="284.36781609195407" y="-3.3908045977011496" type="curve"/>
      <point x="504.3103448275862" y="-3.3908045977011496"/>
      <point x="569.9195402298851" y="68.80459770114942"/>
      <point x="592.7126436781608" y="175.7816091954023" type="curve" smooth="yes"/>
      <point x="615.1149425287356" y="283.7931034482759"/>
      <point x="554.7011494252873" y="342.18390804597703"/>
      <point x="489.7241379310345" y="364.18390804597703" type="curve"/>
      <point x="491.7241379310345" y="373.17241379310343" type="line"/>
      <point x="568.5172413793103" y="394.18390804597703"/>
      <point x="624.9080459770115" y="433.8045977011494"/>
      <point x="643.5057471264367" y="522.0" type="curve" smooth="yes"/>
      <point x="665.3103448275862" y="628.6206896551724"/>
      <point x="608.2758620689655" y="715.7931034482758"/>
      <point x="435.5977011494253" y="715.7931034482758" type="curve"/>
      <point x="341.81609195402297" y="715.7931034482758"/>
      <point x="260.06896551724134" y="713.0"/>
      <point x="185.08045977011494" y="713.0" type="curve"/>
      <point x="173.06896551724137" y="633.1954022988506"/>
      <point x="160.86206896551724" y="563.7931034482758"/>
      <point x="141.86206896551724" y="473.0" type="curve"/>
      <point x="91.26436781609195" y="235.60919540229884" type="line"/>
      <point x="72.66666666666667" y="147.41379310344828"/>
      <point x="56.47126436781608" y="79.20689655172414"/>
      <point x="35.080459770114935" y="0.0" type="curve"/>
      <point x="81.42528735632183" y="0.0"/>
      <point x="179.01149425287355" y="-3.3908045977011496"/>
    </contour>
    <contour>
      <point x="149.80459770114942" y="75.22988505747126" type="line"/>
      <point x="159.41379310344828" y="131.27586206896552"/>
      <point x="170.02298850574712" y="185.31034482758622"/>
      <point x="184.22988505747125" y="252.3448275862069" type="curve"/>
      <point x="227.6551724137931" y="457.6666666666667" type="line"/>
      <point x="241.86206896551724" y="525.2988505747127"/>
      <point x="254.06896551724137" y="578.735632183908"/>
      <point x="269.4712643678161" y="637.7701149425287" type="curve"/>
      <point x="425.42528735632186" y="637.7701149425287" type="line" smooth="yes"/>
      <point x="521.919540229885" y="637.7701149425287"/>
      <point x="565.5632183908046" y="593.7241379310344"/>
      <point x="549.344827586207" y="515.8390804597701" type="curve" smooth="yes"/>
      <point x="534.9310344827586" y="447.37931034482756"/>
      <point x="477.89655172413796" y="397.1264367816092"/>
      <point x="367.18390804597703" y="397.1264367816092" type="curve" smooth="yes"/>
      <point x="193.88505747126436" y="397.1264367816092" type="line"/>
      <point x="178.51724137931035" y="324.6896551724138" type="line"/>
      <point x="357.81609195402297" y="324.6896551724138" type="line" smooth="yes"/>
      <point x="464.7011494252874" y="324.6896551724138"/>
      <point x="519.7586206896552" y="276.44827586206895"/>
      <point x="501.5402298850575" y="189.1494252873563" type="curve" smooth="yes"/>
      <point x="485.1264367816092" y="109.87356321839081"/>
      <point x="427.2758620689655" y="75.22988505747126"/>
      <point x="291.9310344827586" y="75.22988505747126" type="curve" smooth="yes"/>
    </contour>
  </outline>
</glyph>
<glyph name="C" format="2">
  <advance width="684.6315789473684"/>
  <unicode hex="0043"/>
  <anchor x="346.53684210526313" y="0.0" name="bottom"/>
  <anchor x="489.2736842105263" y="713.0" name="top"/>
  <outline>
    <contour>
      <point x="382.3684210526316" y="-10.91578947368421" type="curve" smooth="yes"/>
      <point x="451.01052631578943" y="-10.91578947368421"/>
      <point x="528.8315789473684" y="9.08421052631579"/>
      <point x="584.7368421052632" y="35.25263157894737" type="curve"/>
      <point x="596.5894736842105" y="128.8842105263158" type="line"/>
      <point x="533.6736842105263" y="89.78947368421053"/>
      <point x="456.6631578947368" y="67.2421052631579"/>
      <point x="393.9578947368421" y="67.2421052631579" type="curve"/>
      <point x="206.14736842105262" y="70.51578947368421"/>
      <point x="136.55789473684212" y="224.8"/>
      <point x="170.81052631578947" y="386.9789473684211" type="curve" smooth="yes"/>
      <point x="208.61052631578949" y="565.4421052631578"/>
      <point x="327.9157894736842" y="642.7473684210527"/>
      <point x="477.51578947368426" y="646.021052631579" type="curve"/>
      <point x="515.9684210526317" y="646.021052631579"/>
      <point x="597.9578947368421" y="627.4736842105264"/>
      <point x="696.8736842105263" y="582.2842105263157" type="curve"/>
      <point x="723.378947368421" y="670.8315789473684" type="line"/>
      <point x="663.5578947368421" y="693.7368421052632"/>
      <point x="568.1052631578948" y="726.0947368421052"/>
      <point x="485.8105263157895" y="726.0947368421052" type="curve" smooth="yes"/>
      <point x="271.4947368421052" y="726.0947368421052"/>
      <point x="124.42105263157895" y="613.0947368421052"/>
      <point x="79.69473684210527" y="400.0947368421053" type="curve" smooth="yes"/>
      <point x="34.6" y="186.3473684210526"/>
      <point x="141.0736842105263" y="-10.91578947368421"/>
    </contour>
  </outline>
</glyph>
<glyph name="D" format="2">
  <advance width="737.9052631578948"/>
  <unicode hex="0044"/>
  <anchor x="299.09473684210525" y="0.0" name="bottom"/>
  <anchor x="392.601" y="357.0" name="center"/>
  <anchor x="449.09473684210525" y="713.0" name="top"/>
  <outline>
    <contour>
      <point x="34.92631578947369" y="0.0" type="curve"/>
      <point x="121.19999999999999" y="0.0"/>
      <point x="191.42105263157896" y="-3.1894736842105265"/>
      <point x="288.4526315789473" y="-3.1894736842105265" type="curve"/>
      <point x="557.1157894736842" y="-3.1894736842105265"/>
      <point x="664.4842105263158" y="129.27368421052634"/>
      <point x="706.9368421052632" y="332.4526315789474" type="curve" smooth="yes"/>
      <point x="749.2105263157895" y="536.4631578947368"/>
      <point x="645.1157894736842" y="715.6421052631579"/>
      <point x="412.04210526315785" y="715.6421052631579" type="curve"/>
      <point x="335.2631578947368" y="715.6421052631579"/>
      <point x="264.8315789473684" y="713.0"/>
      <point x="184.92631578947368" y="713.0" type="curve"/>
      <point x="172.93684210526317" y="633.0947368421052"/>
      <point x="160.85263157894738" y="563.9157894736842"/>
      <point x="141.57894736842107" y="473.2736842105263" type="curve"/>
      <point x="91.03157894736842" y="235.53684210526316" type="line"/>
      <point x="72.7578947368421" y="147.44210526315788"/>
      <point x="56.38947368421053" y="79.08421052631579"/>
    </contour>
    <contour>
      <point x="151.0" y="75.33684210526316" type="line"/>
      <point x="160.53684210526316" y="132.1157894736842"/>
      <point x="171.34736842105264" y="186.6315789473684"/>
      <point x="185.43157894736842" y="253.6" type="curve"/>
      <point x="228.58947368421053" y="458.0315789473684" type="line"/>
      <point x="242.94736842105263" y="526.0947368421052"/>
      <point x="255.57894736842107" y="580.0631578947368"/>
      <point x="269.9368421052632" y="637.6631578947369" type="curve"/>
      <point x="390.3578947368421" y="637.6631578947369" type="line"/>
      <point x="583.6736842105262" y="633.8421052631579"/>
      <point x="648.5263157894736" y="500.20000000000005"/>
      <point x="614.7263157894737" y="343.0105263157895" type="curve" smooth="yes"/>
      <point x="580.4736842105264" y="179.9263157894737"/>
      <point x="507.7052631578947" y="79.43157894736842"/>
      <point x="295.4736842105263" y="75.33684210526316" type="curve"/>
    </contour>
  </outline>
</glyph>
<glyph name="E" format="2">
  <advance width="594.5862068965517"/>
  <unicode hex="0045"/>
  <anchor x="263.2183908045977" y="0.0" name="bottom"/>
  <anchor x="484.36781609195407" y="0.0" name="ogonek"/>
  <anchor x="413.2183908045977" y="713.0" name="top"/>
  <anchor x="135.0" y="713.0" name="topleft"/>
  <outline>
    <contour>
      <point x="35.080459770114935" y="0.0" type="curve"/>
      <point x="137.82758620689654" y="0.0" type="line"/>
      <point x="141.2183908045977" y="13.563218390804598" type="line"/>
      <point x="151.63218390804596" y="92.77011494252874"/>
      <point x="164.4367816091954" y="160.57471264367817"/>
      <point x="183.4367816091954" y="249.17241379310346" type="curve"/>
      <point x="228.2528735632184" y="461.8390804597701" type="line"/>
      <point x="246.85057471264366" y="551.6321839080459"/>
      <point x="264.04597701149424" y="620.0344827586207"/>
      <point x="285.43678160919535" y="699.8390804597701" type="curve"/>
      <point x="287.8275862068965" y="713.0" type="line"/>
      <point x="185.08045977011494" y="713.0" type="line"/>
      <point x="173.06896551724137" y="633.1954022988506"/>
      <point x="160.86206896551724" y="563.7931034482758"/>
      <point x="141.86206896551724" y="473.0" type="curve"/>
      <point x="91.26436781609195" y="235.60919540229884" type="line"/>
      <point x="72.66666666666667" y="147.41379310344828"/>
      <point x="56.47126436781608" y="79.20689655172414"/>
    </contour>
    <contour>
      <point x="119.26436781609198" y="0.0" type="line"/>
      <point x="485.5632183908046" y="0.0" type="line"/>
      <point x="503.91954022988506" y="85.80459770114942" type="line"/>
      <point x="430.5057471264368" y="79.2183908045977"/>
      <point x="353.88505747126436" y="77.62068965517241"/>
      <point x="266.86206896551727" y="77.62068965517241" type="curve"/>
      <point x="135.82758620689657" y="77.62068965517241" type="line"/>
    </contour>
    <contour>
      <point x="178.51724137931035" y="323.6896551724138" type="line"/>
      <point x="316.5402298850575" y="323.6896551724138" type="line"/>
      <point x="406.3563218390805" y="323.6896551724138"/>
      <point x="466.96551724137936" y="323.0919540229885"/>
      <point x="532.3793103448276" y="320.2988505747126" type="curve"/>
      <point x="550.1379310344827" y="404.3103448275862" type="line"/>
      <point x="486.93103448275866" y="399.51724137931035"/>
      <point x="425.3218390804598" y="398.91954022988506"/>
      <point x="333.5057471264368" y="398.91954022988506" type="curve"/>
      <point x="194.48275862068965" y="398.91954022988506" type="line"/>
    </contour>
    <contour>
      <point x="247.91954022988506" y="635.3793103448276" type="line"/>
      <point x="376.14942528735634" y="635.3793103448276" type="line"/>
      <point x="479.5747126436782" y="635.3793103448276"/>
      <point x="550.7931034482758" y="633.183908045977"/>
      <point x="617.0114942528736" y="627.1954022988506" type="curve"/>
      <point x="634.7701149425287" y="713.0" type="line"/>
      <point x="264.48275862068965" y="713.0" type="line"/>
    </contour>
  </outline>
</glyph>
<glyph name="F" format="2">
  <advance width="575.1052631578947"/>
  <unicode hex="0046"/>
  <outline>
    <contour>
      <point x="34.92631578947369" y="0.0" type="curve"/>
      <point x="137.8842105263158" y="0.0" type="line"/>
      <point x="148.8736842105263" y="79.08421052631579"/>
      <point x="160.9578947368421" y="145.98947368421054"/>
      <point x="179.95789473684212" y="235.53684210526316" type="curve"/>
      <point x="228.0421052631579" y="461.6" type="line"/>
      <point x="246.58947368421053" y="551.5157894736842"/>
      <point x="263.9578947368421" y="619.9684210526316"/>
      <point x="285.6947368421052" y="699.8736842105263" type="curve"/>
      <point x="287.88421052631577" y="713.0" type="line"/>
      <point x="184.92631578947368" y="713.0" type="line"/>
      <point x="172.93684210526317" y="633.0947368421052"/>
      <point x="160.85263157894738" y="563.9157894736842"/>
      <point x="141.57894736842107" y="473.2736842105263" type="curve"/>
      <point x="91.03157894736842" y="235.53684210526316" type="line"/>
      <point x="72.7578947368421" y="147.44210526315788"/>
      <point x="56.38947368421053" y="79.08421052631579"/>
    </contour>
    <contour>
      <point x="176.1578947368421" y="319.0842105263158" type="line"/>
      <point x="306.87368421052633" y="319.0842105263158" type="line"/>
      <point x="396.7684210526316" y="319.0842105263158"/>
      <point x="457.0315789473684" y="318.5368421052632"/>
      <point x="522.4736842105264" y="315.34736842105264" type="curve"/>
      <point x="540.1473684210526" y="399.8842105263158" type="line"/>
      <point x="477.33684210526314" y="394.9684210526316"/>
      <point x="415.8" y="394.42105263157896"/>
      <point x="323.63157894736844" y="394.42105263157896" type="curve"/>
      <point x="192.18947368421053" y="394.42105263157896" type="line"/>
    </contour>
    <contour>
      <point x="246.70526315789473" y="635.2" type="line"/>
      <point x="367.5052631578947" y="635.2" type="line"/>
      <point x="470.93684210526317" y="635.2"/>
      <point x="542.0105263157895" y="632.8315789473685"/>
      <point x="608.3578947368421" y="627.3684210526317" type="curve"/>
      <point x="626.0315789473684" y="713.0" type="line"/>
      <point x="263.28421052631575" y="713.0" type="line"/>
    </contour>
  </outline>
</glyph>
<glyph name="G" format="2">
  <advance width="732.8947368421053"/>
  <unicode hex="0047"/>
  <anchor x="346.53684210526313" y="0.0" name="bottom"/>
  <anchor x="496.53684210526313" y="713.0" name="top"/>
  <outline>
    <contour>
      <point x="399.64210526315793" y="-10.642105263157895" type="curve" smooth="yes"/>
      <point x="471.7263157894737" y="-10.642105263157895"/>
      <point x="567.021052631579" y="10.810526315789474"/>
      <point x="622.5684210526316" y="29.705263157894738" type="curve"/>
      <point x="622.4842105263158" y="117.69473684210527" type="line"/>
      <point x="548.1157894736842" y="81.87368421052632"/>
      <point x="478.76842105263154" y="65.87368421052632"/>
      <point x="404.74736842105267" y="65.87368421052632" type="curve"/>
      <point x="200.8842105263158" y="69.14736842105263"/>
      <point x="135.46315789473687" y="223.15789473684208"/>
      <point x="170.26315789473685" y="387.5263157894737" type="curve" smooth="yes"/>
      <point x="209.06315789473686" y="569.7157894736841"/>
      <point x="330.8421052631579" y="643.021052631579"/>
      <point x="478.80000000000007" y="646.021052631579" type="curve"/>
      <point x="519.2526315789473" y="646.021052631579"/>
      <point x="606.2421052631579" y="625.2947368421053"/>
      <point x="711.4315789473684" y="573.5684210526315" type="curve"/>
      <point x="737.9368421052632" y="661.8421052631578" type="line"/>
      <point x="672.7473684210526" y="688.378947368421"/>
      <point x="569.6526315789473" y="726.0947368421052"/>
      <point x="479.7157894736842" y="726.0947368421052" type="curve" smooth="yes"/>
      <point x="268.14736842105265" y="726.0947368421052"/>
      <point x="124.96842105263158" y="613.8315789473684"/>
      <point x="79.69473684210527" y="400.0947368421053" type="curve" smooth="yes"/>
      <point x="34.42105263157895" y="185.90526315789475"/>
      <point x="135.06315789473683" y="-10.642105263157895"/>
    </contour>
    <contour>
      <point x="528.2736842105263" y="29.705263157894738" type="curve"/>
      <point x="622.5684210526316" y="29.705263157894738" type="line"/>
      <point x="633.9263157894737" y="98.98947368421052"/>
      <point x="643.2" y="149.17894736842106"/>
      <point x="654.021052631579" y="201.9157894736842" type="curve"/>
      <point x="667.2947368421053" y="264.37894736842105"/>
      <point x="679.2105263157895" y="308.29473684210524"/>
      <point x="694.4947368421053" y="357.7578947368421" type="curve"/>
      <point x="593.0947368421051" y="357.7578947368421" type="line"/>
      <point x="588.2842105263157" y="308.29473684210524"/>
      <point x="581.378947368421" y="264.37894736842105"/>
      <point x="568.1052631578947" y="201.9157894736842" type="curve"/>
      <point x="557.2842105263157" y="149.17894736842106"/>
      <point x="545.9157894736842" y="98.98947368421052"/>
    </contour>
  </outline>
</glyph>
<glyph name="H" format="2">
  <advance width="753.0105263157894"/>
  <unicode hex="0048"/>
  <anchor x="324.36842105263156" y="0.0" name="bottom"/>
  <anchor x="399.36842105263156" y="357.0" name="center"/>
  <anchor x="474.36842105263156" y="713.0" name="top"/>
  <anchor x="135.6421052631579" y="713.0" name="topleft"/>
  <outline>
    <contour>
      <point x="508.9368421052631" y="0.0" type="curve"/>
      <point x="613.5368421052632" y="0.0" type="line"/>
      <point x="624.5263157894736" y="79.08421052631579"/>
      <point x="636.6105263157895" y="145.98947368421054"/>
      <point x="655.6105263157895" y="235.53684210526316" type="curve"/>
      <point x="706.1578947368421" y="473.2736842105263" type="line"/>
      <point x="725.4315789473684" y="563.9157894736842"/>
      <point x="741.8" y="633.0947368421052"/>
      <point x="763.5368421052632" y="713.0" type="curve"/>
      <point x="658.9368421052632" y="713.0" type="line"/>
      <point x="646.9473684210526" y="633.0947368421052"/>
      <point x="634.8631578947368" y="563.9157894736842"/>
      <point x="615.5894736842105" y="473.2736842105263" type="curve"/>
      <point x="565.0421052631579" y="235.53684210526316" type="line"/>
      <point x="546.7684210526315" y="147.44210526315788"/>
      <point x="530.4" y="79.08421052631579"/>
    </contour>
    <contour>
      <point x="34.92631578947369" y="0.0" type="curve"/>
      <point x="139.5263157894737" y="0.0" type="line"/>
      <point x="150.5157894736842" y="79.08421052631579"/>
      <point x="162.6" y="145.98947368421054"/>
      <point x="181.60000000000002" y="235.53684210526316" type="curve"/>
      <point x="232.14736842105265" y="473.2736842105263" type="line"/>
      <point x="251.42105263157896" y="563.9157894736842"/>
      <point x="267.7894736842106" y="633.0947368421052"/>
      <point x="289.5263157894737" y="713.0" type="curve"/>
      <point x="184.92631578947368" y="713.0" type="line"/>
      <point x="172.93684210526317" y="633.0947368421052"/>
      <point x="160.85263157894738" y="563.9157894736842"/>
      <point x="141.57894736842107" y="473.2736842105263" type="curve"/>
      <point x="91.03157894736842" y="235.53684210526316" type="line"/>
      <point x="72.7578947368421" y="147.44210526315788"/>
      <point x="56.38947368421053" y="79.08421052631579"/>
    </contour>
    <contour>
      <point x="168.0" y="322.09473684210525" type="line"/>
      <point x="617.7894736842105" y="322.09473684210525" type="line"/>
      <point x="634.642105263158" y="399.89473684210526" type="line"/>
      <point x="184.85263157894738" y="399.89473684210526" type="line"/>
    </contour>
  </outline>
</glyph>
<glyph name="I" format="2">
  <advance width="283.10526315789474"/>
  <unicode hex="0049"/>
  <anchor x="87.6842105263158" y="0.0" name="bottom"/>
  <anchor x="140.89473684210526" y="0.0" name="ogonek"/>
  <anchor x="237.6842105263158" y="713.0" name="top"/>
  <anchor x="133.0842105263158" y="713.0" name="topleft"/>
  <outline>
    <contour>
      <point x="36.294736842105266" y="0.0" type="curve"/>
      <point x="142.26315789473685" y="0.0" type="line"/>
      <point x="153.25263157894736" y="79.08421052631579"/>
      <point x="165.33684210526314" y="145.98947368421054"/>
      <point x="184.33684210526317" y="235.53684210526316" type="curve"/>
      <point x="234.8842105263158" y="473.2736842105263" type="line"/>
      <point x="254.1578947368421" y="563.9157894736842"/>
      <point x="270.5263157894737" y="633.0947368421052"/>
      <point x="292.2631578947368" y="713.0" type="curve"/>
      <point x="186.29473684210524" y="713.0" type="line"/>
      <point x="174.30526315789473" y="633.0947368421052"/>
      <point x="162.22105263157894" y="563.9157894736842"/>
      <point x="142.94736842105263" y="473.2736842105263" type="curve"/>
      <point x="92.39999999999999" y="235.53684210526316" type="line"/>
      <point x="74.12631578947368" y="147.44210526315788"/>
      <point x="57.757894736842104" y="79.08421052631579"/>
    </contour>
  </outline>
</glyph>
<glyph name="J" format="2">
  <advance width="294.53684210526313"/>
  <unicode hex="004A"/>
  <anchor x="99.48421052631579" y="0.0" name="bottom"/>
  <anchor x="249.4842105263158" y="713.0" name="top"/>
  <outline>
    <contour>
      <point x="-74.57894736842105" y="-157.81052631578947" type="curve"/>
      <point x="30.326315789473686" y="-157.81052631578947" type="line"/>
      <point x="76.87368421052632" y="-112.26315789473684"/>
      <point x="142.421052631579" y="-40.98947368421052"/>
      <point x="164.24210526315792" y="62.294736842105266" type="curve" smooth="yes"/>
      <point x="179.61052631578949" y="134.41052631578947"/>
      <point x="190.69473684210527" y="211.8"/>
      <point x="208.78947368421055" y="297.2736842105263" type="curve"/>
      <point x="246.31578947368422" y="473.2736842105263" type="line"/>
      <point x="265.58947368421053" y="563.9157894736842"/>
      <point x="281.9578947368421" y="633.0947368421052"/>
      <point x="303.69473684210527" y="713.0" type="curve"/>
      <point x="199.09473684210525" y="713.0" type="line"/>
      <point x="187.1052631578947" y="633.0947368421052"/>
      <point x="175.02105263157893" y="563.9157894736842"/>
      <point x="155.7473684210526" y="473.2736842105263" type="curve"/>
      <point x="113.13684210526316" y="273.30526315789473" type="line"/>
      <point x="68.93684210526317" y="67.7578947368421" type="line"/>
      <point x="50.21052631578949" y="-20.14736842105263"/>
      <point x="-6.494736842105265" y="-92.97894736842105"/>
    </contour>
  </outline>
</glyph>
<glyph name="K" format="2">
  <advance width="672.2631578947369"/>
  <unicode hex="004B"/>
  <anchor x="291.76842105263154" y="0.0" name="bottom"/>
  <anchor x="441.76842105263154" y="713.0" name="top"/>
  <outline>
    <contour>
      <point x="476.3263157894737" y="0.0" type="curve"/>
      <point x="598.7578947368422" y="0.0" type="line"/>
      <point x="546.6842105263157" y="60.36842105263158"/>
      <point x="471.35789473684207" y="158.29473684210527"/>
      <point x="416.3894736842105" y="231.57894736842104" type="curve"/>
      <point x="297.0" y="390.9684210526316" type="line"/>
      <point x="297.90526315789475" y="348.33684210526314" type="line"/>
      <point x="460.57894736842104" y="488.89473684210526" type="line"/>
      <point x="547.3684210526316" y="562.3578947368421"/>
      <point x="633.8842105263158" y="636.0"/>
      <point x="730.4947368421053" y="713.0" type="curve"/>
      <point x="597.1473684210526" y="713.0" type="line"/>
      <point x="517.5894736842105" y="638.7473684210527"/>
      <point x="459.17894736842106" y="586.4842105263158"/>
      <point x="392.1368421052631" y="528.8631578947368" type="curve"/>
      <point x="248.51578947368424" y="405.9894736842105" type="line"/>
      <point x="207.33684210526317" y="405.9894736842105" type="line"/>
      <point x="191.57894736842107" y="331.7473684210526" type="line"/>
      <point x="233.1263157894737" y="331.7473684210526" type="line"/>
      <point x="343.4736842105263" y="185.05263157894737" type="line"/>
      <point x="386.4315789473684" y="128.61052631578946"/>
      <point x="429.1157894736842" y="70.4421052631579"/>
    </contour>
    <contour>
      <point x="34.92631578947369" y="0.0" type="curve"/>
      <point x="139.2526315789474" y="0.0" type="line"/>
      <point x="150.2421052631579" y="79.08421052631579"/>
      <point x="162.32631578947368" y="145.98947368421054"/>
      <point x="181.3263157894737" y="235.53684210526316" type="curve"/>
      <point x="231.87368421052633" y="473.2736842105263" type="line"/>
      <point x="251.14736842105265" y="563.9157894736842"/>
      <point x="267.51578947368426" y="633.0947368421052"/>
      <point x="289.2526315789474" y="713.0" type="curve"/>
      <point x="184.92631578947368" y="713.0" type="line"/>
      <point x="172.93684210526317" y="633.0947368421052"/>
      <point x="160.85263157894738" y="563.9157894736842"/>
      <point x="141.57894736842107" y="473.2736842105263" type="curve"/>
      <point x="91.03157894736842" y="235.53684210526316" type="line"/>
      <point x="72.7578947368421" y="147.44210526315788"/>
      <point x="56.38947368421053" y="79.08421052631579"/>
    </contour>
  </outline>
</glyph>
<glyph name="L" format="2">
  <advance width="569.5578947368422"/>
  <unicode hex="004C"/>
  <anchor x="260.9789473684211" y="0.0" name="bottom"/>
  <anchor x="446.7684210526316" y="357.82105263157894" name="center"/>
  <anchor x="300.2526315789474" y="713.0" name="top"/>
  <anchor x="336.14736842105265" y="496.18947368421055" name="topright"/>
  <outline>
    <contour>
      <point x="34.92631578947369" y="0.0" type="curve"/>
      <point x="139.5263157894737" y="0.0" type="line"/>
      <point x="142.71578947368423" y="13.852631578947369" type="line"/>
      <point x="153.43157894736842" y="92.93684210526315"/>
      <point x="166.5157894736842" y="161.29473684210527"/>
      <point x="184.78947368421055" y="249.38947368421051" type="curve"/>
      <point x="232.14736842105265" y="473.2736842105263" type="line"/>
      <point x="251.42105263157896" y="563.9157894736842"/>
      <point x="267.7894736842106" y="633.0947368421052"/>
      <point x="289.5263157894737" y="713.0" type="curve"/>
      <point x="184.92631578947368" y="713.0" type="line"/>
      <point x="172.93684210526317" y="633.0947368421052"/>
      <point x="160.85263157894738" y="563.9157894736842"/>
      <point x="141.57894736842107" y="473.2736842105263" type="curve"/>
      <point x="91.03157894736842" y="235.53684210526316" type="line"/>
      <point x="72.7578947368421" y="147.44210526315788"/>
      <point x="56.38947368421053" y="79.08421052631579"/>
    </contour>
    <contour>
      <point x="119.03157894736842" y="0.0" type="line"/>
      <point x="483.11578947368423" y="0.0" type="line"/>
      <point x="501.88421052631577" y="90.28421052631579" type="line"/>
      <point x="422.81052631578945" y="83.45263157894738"/>
      <point x="356.4631578947368" y="80.53684210526316"/>
      <point x="242.22105263157897" y="80.53684210526316" type="curve"/>
      <point x="136.43157894736845" y="80.53684210526316" type="line"/>
    </contour>
  </outline>
</glyph>
<glyph name="M" format="2">
  <advance width="955.7473684210527"/>
  <unicode hex="004D"/>
  <anchor x="425.46315789473687" y="0.0" name="bottom"/>
  <anchor x="575.4631578947368" y="713.0" name="top"/>
  <outline>
    <contour>
      <point x="7.0315789473684225" y="0.0" type="curve"/>
      <point x="108.97894736842105" y="0.0" type="line"/>
      <point x="144.7578947368421" y="124.02105263157895"/>
      <point x="180.7263157894737" y="241.0421052631579"/>
      <point x="213.52631578947367" y="339.89473684210526" type="curve"/>
      <point x="283.57894736842104" y="553.1368421052632" type="line"/>
      <point x="290.1368421052632" y="553.1368421052632" type="line"/>
      <point x="335.6421052631579" y="321.7263157894737" type="line"/>
      <point x="355.7157894736842" y="214.5157894736842"/>
      <point x="375.2315789473684" y="91.41052631578947"/>
      <point x="389.11578947368423" y="0.0" type="curve"/>
      <point x="465.5473684210527" y="0.0" type="line"/>
      <point x="520.5894736842106" y="96.22105263157894"/>
      <point x="588.6210526315789" y="212.5157894736842"/>
      <point x="655.1157894736842" y="323.17894736842106" type="curve"/>
      <point x="793.7368421052631" y="553.1368421052632" type="line"/>
      <point x="800.2947368421053" y="553.1368421052632" type="line"/>
      <point x="781.3052631578947" y="339.89473684210526" type="line"/>
      <point x="772.6736842105263" y="241.0421052631579"/>
      <point x="758.6736842105264" y="125.92631578947369"/>
      <point x="740.7578947368421" y="0.0" type="curve"/>
      <point x="844.1684210526316" y="0.0" type="line"/>
      <point x="847.1578947368421" y="78.81052631578947"/>
      <point x="850.9684210526316" y="149.26315789473685"/>
      <point x="858.6947368421053" y="235.53684210526316" type="curve"/>
      <point x="879.8736842105263" y="472.7263157894737" type="line"/>
      <point x="887.6" y="560.1789473684211"/>
      <point x="895.9684210526316" y="632.0947368421052"/>
      <point x="906.8842105263159" y="713.0" type="curve"/>
      <point x="799.1052631578948" y="713.0" type="line"/>
      <point x="742.0631578947368" y="609.9578947368421"/>
      <point x="686.3789473684211" y="516.8315789473685"/>
      <point x="628.6" y="422.33684210526314" type="curve"/>
      <point x="457.9894736842105" y="143.1263157894737" type="line"/>
      <point x="450.978947368421" y="143.1263157894737" type="line"/>
      <point x="397.29473684210524" y="422.33684210526314" type="line"/>
      <point x="379.4" y="516.8315789473685"/>
      <point x="361.77894736842103" y="610.7789473684211"/>
      <point x="349.4421052631578" y="713.0" type="curve"/>
      <point x="244.85263157894738" y="713.0" type="line"/>
      <point x="223.31578947368422" y="631.0947368421052"/>
      <point x="200.86315789473684" y="558.7263157894737"/>
      <point x="171.86315789473684" y="472.7263157894737" type="curve"/>
      <point x="93.0421052631579" y="235.53684210526316" type="line"/>
      <point x="64.0421052631579" y="148.81052631578947"/>
      <point x="38.126315789473686" y="77.98947368421052"/>
    </contour>
  </outline>
</glyph>
<glyph name="N" format="2">
  <advance width="759.6315789473684"/>
  <unicode hex="004E"/>
  <anchor x="326.7263157894737" y="0.0" name="bottom"/>
  <anchor x="476.7263157894737" y="713.0" name="top"/>
  <outline>
    <contour>
      <point x="34.92631578947369" y="0.0" type="curve"/>
      <point x="134.87368421052633" y="0.0" type="line"/>
      <point x="145.86315789473684" y="79.08421052631579"/>
      <point x="157.94736842105263" y="145.98947368421054"/>
      <point x="176.94736842105266" y="235.53684210526316" type="curve"/>
      <point x="247.06315789473683" y="568.7684210526315" type="line"/>
      <point x="254.34736842105264" y="568.7684210526315" type="line"/>
      <point x="362.72631578947363" y="345.2631578947369" type="line"/>
      <point x="427.31578947368416" y="212.5263157894737"/>
      <point x="478.09473684210525" y="103.58947368421052"/>
      <point x="521.9578947368421" y="0.0" type="curve"/>
      <point x="617.9789473684211" y="0.0" type="line"/>
      <point x="628.9684210526316" y="79.08421052631579"/>
      <point x="641.0526315789474" y="145.98947368421054"/>
      <point x="660.0526315789474" y="235.53684210526316" type="curve"/>
      <point x="710.6" y="473.2736842105263" type="line"/>
      <point x="729.8736842105263" y="563.9157894736842"/>
      <point x="746.2421052631579" y="633.0947368421052"/>
      <point x="767.9789473684211" y="713.0" type="curve"/>
      <point x="668.0315789473684" y="713.0" type="line"/>
      <point x="656.0421052631579" y="633.0947368421052"/>
      <point x="643.957894736842" y="563.9157894736842"/>
      <point x="624.6842105263157" y="473.2736842105263" type="curve"/>
      <point x="555.1157894736841" y="147.13684210526316" type="line"/>
      <point x="547.5578947368421" y="147.13684210526316" type="line"/>
      <point x="440.7263157894737" y="368.9157894736842" type="line"/>
      <point x="388.67368421052635" y="477.0315789473684"/>
      <point x="336.8105263157895" y="590.421052631579"/>
      <point x="283.86315789473684" y="713.0" type="curve"/>
      <point x="184.92631578947368" y="713.0" type="line"/>
      <point x="172.93684210526317" y="633.0947368421052"/>
      <point x="160.85263157894738" y="563.9157894736842"/>
      <point x="141.57894736842107" y="473.2736842105263" type="curve"/>
      <point x="91.03157894736842" y="235.53684210526316" type="line"/>
      <point x="72.7578947368421" y="147.44210526315788"/>
      <point x="56.38947368421053" y="79.08421052631579"/>
    </contour>
  </outline>
</glyph>
<glyph name="O" format="2">
  <advance width="816.8105263157895"/>
  <unicode hex="004F"/>
  <anchor x="356.63157894736844" y="0.0" name="bottom"/>
  <anchor x="431.63157894736844" y="357.0" name="center"/>
  <anchor x="478.77894736842103" y="0.0" name="ogonek"/>
  <anchor x="506.63157894736844" y="713.0" name="top"/>
  <anchor x="124.63157894736841" y="713.0" name="topleft"/>
  <anchor x="791.5473684210526" y="713.0" name="topright"/>
  <outline>
    <contour>
      <point x="402.17894736842106" y="-10.91578947368421" type="curve" smooth="yes"/>
      <point x="599.7578947368421" y="-10.91578947368421"/>
      <point x="740.8421052631579" y="120.45263157894736"/>
      <point x="781.3894736842105" y="310.64210526315793" type="curve" smooth="yes"/>
      <point x="828.6631578947369" y="531.4631578947368"/>
      <point x="704.4842105263158" y="726.0947368421052"/>
      <point x="465.4421052631579" y="726.0947368421052" type="curve" smooth="yes"/>
      <point x="264.9578947368421" y="726.0947368421052"/>
      <point x="122.42105263157895" y="598.6421052631579"/>
      <point x="78.96842105263158" y="395.7368421052632" type="curve" smooth="yes"/>
      <point x="32.968421052631584" y="178.46315789473684"/>
      <point x="157.49473684210525" y="-10.91578947368421"/>
    </contour>
    <contour>
      <point x="403.2736842105263" y="67.2421052631579" type="curve"/>
      <point x="231.75789473684213" y="73.43157894736842"/>
      <point x="132.37894736842105" y="203.0"/>
      <point x="170.35789473684213" y="383.1684210526316" type="curve" smooth="yes"/>
      <point x="204.1578947368421" y="538.6315789473683"/>
      <point x="302.4631578947368" y="642.2947368421053"/>
      <point x="464.62105263157895" y="647.9368421052632" type="curve"/>
      <point x="635.6" y="641.7473684210527"/>
      <point x="727.8842105263158" y="503.82105263157894"/>
      <point x="689.4526315789474" y="322.5684210526316" type="curve" smooth="yes"/>
      <point x="659.7368421052631" y="177.81052631578945"/>
      <point x="561.4315789473684" y="72.33684210526316"/>
    </contour>
  </outline>
</glyph>
<glyph name="R" format="2">
  <advance width="674.3333333333333"/>
  <unicode hex="0052"/>
  <anchor x="285.367816091954" y="0.0" name="bottom"/>
  <anchor x="427.7241379310345" y="713.0" name="top"/>
  <outline>
    <contour>
      <point x="480.35632183908046" y="0.0" type="curve"/>
      <point x="597.4827586206897" y="0.0" type="line"/>
      <point x="560.0689655172414" y="54.40229885057471"/>
      <point x="507.448275862069" y="138.79310344827587"/>
      <point x="469.02298850574715" y="203.98850574712642" type="curve"/>
      <point x="385.1724137931035" y="345.18390804597703" type="line"/>
      <point x="351.4942528735632" y="306.264367816092" type="line"/>
      <point x="541.9310344827586" y="304.86206896551727"/>
      <point x="607.8965517241379" y="375.8620689655172"/>
      <point x="633.4942528735631" y="497.44827586206895" type="curve" smooth="yes"/>
      <point x="661.4827586206895" y="628.9885057471264"/>
      <point x="586.7126436781608" y="715.7931034482758"/>
      <point x="423.7471264367816" y="715.7931034482758" type="curve"/>
      <point x="323.7586206896552" y="715.7931034482758"/>
      <point x="249.83908045977012" y="713.0"/>
      <point x="185.08045977011494" y="713.0" type="curve"/>
      <point x="237.54022988505747" y="637.7701149425287" type="line"/>
      <point x="407.7931034482759" y="637.7701149425287" type="line" smooth="yes"/>
      <point x="479.0459770114943" y="637.7701149425287"/>
      <point x="563.5517241379309" y="613.5632183908046"/>
      <point x="539.5287356321838" y="500.05747126436785" type="curve" smooth="yes"/>
      <point x="516.7126436781608" y="392.9770114942529"/>
      <point x="462.0689655172414" y="364.14942528735634"/>
      <point x="338.7356321839081" y="364.14942528735634" type="curve" smooth="yes"/>
      <point x="190.47126436781608" y="364.14942528735634" type="line"/>
      <point x="174.50574712643677" y="289.32183908045977" type="line"/>
      <point x="343.0919540229885" y="289.32183908045977" type="line"/>
      <point x="295.7931034482759" y="336.18390804597703" type="line"/>
      <point x="389.4367816091954" y="169.24137931034483" type="line"/>
      <point x="419.8735632183908" y="116.02298850574712"/>
      <point x="450.3103448275862" y="61.206896551724135"/>
    </contour>
    <contour>
      <point x="35.080459770114935" y="0.0" type="curve"/>
      <point x="139.02298850574712" y="0.0" type="line"/>
      <point x="150.03448275862067" y="79.20689655172414"/>
      <point x="161.64367816091954" y="146.01149425287358"/>
      <point x="180.64367816091954" y="235.60919540229884" type="curve"/>
      <point x="228.85057471264366" y="461.8390804597701" type="line"/>
      <point x="247.44827586206895" y="551.6321839080459"/>
      <point x="264.64367816091954" y="620.0344827586207"/>
      <point x="286.63218390804593" y="699.8390804597701" type="curve"/>
      <point x="185.08045977011494" y="713.0" type="line"/>
      <point x="173.06896551724137" y="633.1954022988506"/>
      <point x="160.86206896551724" y="563.7931034482758"/>
      <point x="141.86206896551724" y="473.0" type="curve"/>
      <point x="91.26436781609195" y="235.60919540229884" type="line"/>
      <point x="72.66666666666667" y="147.41379310344828"/>
      <point x="56.471264367816076" y="79.20689655172414"/>
    </contour>
  </outline>
</glyph>
<glyph name="S" format="2">
  <advance width="586.3563218390805"/>
  <unicode hex="0053"/>
  <anchor x="244.58620689655174" y="0.0" name="bottom"/>
  <anchor x="394.58620689655174" y="713.0" name="top"/>
  <outline>
    <contour>
      <point x="270.98850574712645" y="-10.793103448275861" type="curve" smooth="yes"/>
      <point x="428.1379310344828" y="-10.793103448275861"/>
      <point x="505.9310344827586" y="50.81609195402299"/>
      <point x="530.3218390804598" y="166.77011494252872" type="curve" smooth="yes"/>
      <point x="550.5172413793103" y="263.14942528735634"/>
      <point x="509.91954022988506" y="330.735632183908"/>
      <point x="353.9080459770115" y="396.34482758620686" type="curve" smooth="yes"/>
      <point x="234.82758620689654" y="446.7816091954023"/>
      <point x="196.0" y="482.7931034482758"/>
      <point x="211.41379310344826" y="555.0574712643677" type="curve" smooth="yes"/>
      <point x="227.03448275862067" y="628.9540229885058"/>
      <point x="302.11494252873564" y="645.7701149425287"/>
      <point x="372.97701149425285" y="647.7701149425287" type="curve"/>
      <point x="408.3793103448276" y="647.7701149425287"/>
      <point x="482.7701149425288" y="627.5747126436783"/>
      <point x="565.5632183908045" y="582.7701149425287" type="curve"/>
      <point x="591.7126436781609" y="668.9770114942529" type="line"/>
      <point x="535.919540229885" y="690.390804597701"/>
      <point x="442.17241379310343" y="726.1954022988506"/>
      <point x="366.4022988505747" y="726.1954022988506" type="curve" smooth="yes"/>
      <point x="222.44827586206898" y="726.1954022988506"/>
      <point x="140.64367816091954" y="668.609195402299"/>
      <point x="118.85057471264368" y="564.0459770114943" type="curve" smooth="yes"/>
      <point x="95.25287356321839" y="452.8620689655172"/>
      <point x="153.44827586206895" y="390.1034482758621"/>
      <point x="289.88505747126436" y="332.88505747126436" type="curve" smooth="yes"/>
      <point x="395.94252873563215" y="288.45977011494256"/>
      <point x="453.17241379310343" y="249.63218390804596"/>
      <point x="437.7586206896552" y="174.5632183908046" type="curve" smooth="yes"/>
      <point x="419.3333333333333" y="85.25287356321839"/>
      <point x="344.44827586206895" y="69.0344827586207"/>
      <point x="271.39080459770116" y="67.0344827586207" type="curve"/>
      <point x="207.183908045977" y="67.0344827586207"/>
      <point x="125.80459770114943" y="98.22988505747128"/>
      <point x="49.59770114942529" y="142.83908045977012" type="curve"/>
      <point x="23.643678160919546" y="58.42528735632184" type="line"/>
      <point x="79.64367816091954" y="33.2183908045977"/>
      <point x="166.8275862068965" y="-10.793103448275861"/>
    </contour>
  </outline>
</glyph>
<glyph name="U" format="2">
  <advance width="730.3578947368421"/>
  <unicode hex="0055"/>
  <anchor x="313.90526315789475" y="0.0" name="bottom"/>
  <anchor x="429.3157894736842" y="0.0" name="ogonek"/>
  <anchor x="463.90526315789475" y="713.0" name="top"/>
  <anchor x="794.1157894736842" y="713.0" name="topright"/>
  <outline>
    <contour>
      <point x="331.4526315789474" y="-10.91578947368421" type="curve" smooth="yes"/>
      <point x="533.8631578947368" y="-10.91578947368421"/>
      <point x="616.5052631578948" y="97.63157894736842"/>
      <point x="647.1473684210526" y="240.9263157894737" type="curve" smooth="yes"/>
      <point x="656.6" y="285.91578947368424"/>
      <point x="675.5052631578948" y="381.5578947368421"/>
      <point x="694.6842105263158" y="473.2736842105263" type="curve"/>
      <point x="713.9578947368421" y="563.9157894736842"/>
      <point x="730.3263157894737" y="633.0947368421052"/>
      <point x="752.063157894737" y="713.0" type="curve"/>
      <point x="647.4631578947368" y="713.0" type="line"/>
      <point x="635.4736842105264" y="633.0947368421052"/>
      <point x="623.3894736842105" y="563.9157894736842"/>
      <point x="604.1157894736842" y="473.2736842105263" type="curve"/>
      <point x="557.8526315789474" y="258.22105263157897" type="line" smooth="yes"/>
      <point x="533.6842105263158" y="145.2842105263158"/>
      <point x="480.4421052631579" y="69.33684210526316"/>
      <point x="337.37894736842105" y="67.2421052631579" type="curve"/>
      <point x="193.23157894736843" y="69.33684210526316"/>
      <point x="155.44210526315788" y="166.17894736842106"/>
      <point x="182.06315789473683" y="292.10526315789474" type="curve" smooth="yes"/>
      <point x="220.96842105263158" y="473.2736842105263" type="line"/>
      <point x="240.2421052631579" y="563.9157894736842"/>
      <point x="256.61052631578946" y="633.0947368421052"/>
      <point x="278.34736842105264" y="713.0" type="curve"/>
      <point x="174.02105263157895" y="713.0" type="line"/>
      <point x="162.03157894736842" y="633.0947368421052"/>
      <point x="149.94736842105263" y="563.9157894736842"/>
      <point x="130.67368421052632" y="473.2736842105263" type="curve"/>
      <point x="115.22105263157894" y="400.8315789473684"/>
      <point x="97.67368421052632" y="332.2"/>
      <point x="89.94736842105263" y="294.8421052631579" type="curve" smooth="yes"/>
      <point x="54.305263157894736" y="128.90526315789475"/>
      <point x="126.13684210526316" y="-10.91578947368421"/>
    </contour>
  </outline>
</glyph>
<glyph name="V" format="2">
  <advance width="687.7052631578947"/>
  <unicode hex="0056"/>
  <anchor x="292.57894736842104" y="0.0" name="bottom"/>
  <anchor x="442.57894736842104" y="713.0" name="top"/>
  <outline>
    <contour>
      <point x="225.33684210526317" y="0.0" type="curve"/>
      <point x="362.8105263157895" y="0.0" type="line"/>
      <point x="398.15789473684214" y="72.72631578947369"/>
      <point x="445.5052631578948" y="159.90526315789472"/>
      <point x="483.86315789473684" y="226.7263157894737" type="curve"/>
      <point x="609.7473684210527" y="450.0" type="line"/>
      <point x="653.2842105263157" y="527.2736842105263"/>
      <point x="712.6421052631579" y="628.8210526315789"/>
      <point x="767.0105263157895" y="713.0" type="curve"/>
      <point x="646.1052631578948" y="713.0" type="line"/>
      <point x="594.0631578947368" y="608.8526315789474"/>
      <point x="532.4736842105264" y="490.8"/>
      <point x="476.42105263157896" y="388.10526315789474" type="curve"/>
      <point x="315.0736842105263" y="93.74736842105264" type="line"/>
      <point x="306.3368421052632" y="93.74736842105264" type="line"/>
      <point x="265.94736842105266" y="386.37894736842105" type="line"/>
      <point x="251.78947368421052" y="489.2526315789474"/>
      <point x="236.0" y="610.3052631578947"/>
      <point x="225.93684210526314" y="713.0" type="curve"/>
      <point x="117.14736842105263" y="713.0" type="line"/>
      <point x="137.06315789473686" y="628.0947368421052"/>
      <point x="154.32631578947368" y="525.0947368421052"/>
      <point x="165.58947368421053" y="449.2736842105263" type="curve"/>
      <point x="198.37894736842105" y="226.7263157894737" type="line"/>
      <point x="208.3684210526316" y="158.7263157894737"/>
      <point x="218.71578947368423" y="71.27368421052631"/>
    </contour>
  </outline>
</glyph>
<glyph name="W" format="2">
  <advance width="1018.7052631578947"/>
  <unicode hex="0057"/>
  <anchor x="455.7578947368421" y="0.0" name="bottom"/>
  <anchor x="605.7578947368421" y="713.0" name="top"/>
  <outline>
    <contour>
      <point x="173.9263157894737" y="0.0" type="curve"/>
      <point x="301.62105263157895" y="0.0" type="line"/>
      <point x="341.6736842105263" y="96.31578947368422"/>
      <point x="394.53684210526313" y="212.34736842105264"/>
      <point x="440.23157894736846" y="307.8421052631579" type="curve"/>
      <point x="572.4105263157895" y="586.0631578947368" type="line"/>
      <point x="581.1473684210526" y="586.0631578947368" type="line"/>
      <point x="598.5684210526316" y="307.8421052631579" type="line"/>
      <point x="604.2842105263157" y="211.8"/>
      <point x="609.3578947368421" y="97.0421052631579"/>
      <point x="612.1578947368422" y="0.0" type="curve"/>
      <point x="743.8631578947368" y="0.0" type="line"/>
      <point x="770.6736842105263" y="68.54736842105262"/>
      <point x="813.4842105263158" y="154.7263157894737"/>
      <point x="849.1157894736842" y="225.7263157894737" type="curve"/>
      <point x="960.5578947368421" y="450.0" type="line"/>
      <point x="999.9157894736842" y="529.4526315789474"/>
      <point x="1051.1894736842103" y="628.3684210526316"/>
      <point x="1100.557894736842" y="713.0" type="curve"/>
      <point x="981.021052631579" y="713.0" type="line"/>
      <point x="937.5157894736842" y="612.4947368421052"/>
      <point x="882.9263157894737" y="493.7263157894737"/>
      <point x="835.5052631578948" y="393.9473684210526" type="curve"/>
      <point x="699.1473684210526" y="106.78947368421053" type="line"/>
      <point x="690.4105263157895" y="106.78947368421053" type="line"/>
      <point x="674.6315789473684" y="393.4" type="line"/>
      <point x="668.7368421052631" y="497.0842105263158"/>
      <point x="663.9368421052632" y="611.0421052631579"/>
      <point x="662.2315789473683" y="713.0" type="curve"/>
      <point x="545.6526315789474" y="713.0" type="line"/>
      <point x="502.32631578947365" y="613.2210526315789"/>
      <point x="447.82105263157894" y="492.4526315789474"/>
      <point x="402.3052631578948" y="394.6736842105263" type="curve"/>
      <point x="267.4842105263158" y="106.78947368421053" type="line"/>
      <point x="258.7473684210526" y="106.78947368421053" type="line"/>
      <point x="242.43157894736842" y="388.3157894736842" type="line"/>
      <point x="236.35789473684213" y="490.5473684210526"/>
      <point x="231.47368421052636" y="611.3157894736842"/>
      <point x="230.3157894736842" y="713.0" type="curve"/>
      <point x="115.60000000000001" y="713.0" type="line"/>
      <point x="129.1578947368421" y="629.5473684210526"/>
      <point x="139.5157894736842" y="526.5473684210526"/>
      <point x="146.14736842105265" y="446.36842105263156" type="curve"/>
      <point x="163.0421052631579" y="225.0" type="line"/>
      <point x="168.67368421052632" y="155.7263157894737"/>
      <point x="173.21052631578945" y="71.27368421052633"/>
    </contour>
  </outline>
</glyph>
<glyph name="X" format="2">
  <advance width="686.0947368421052"/>
  <unicode hex="0058"/>
  <outline>
    <contour>
      <point x="-21.76842105263158" y="0.0" type="curve"/>
      <point x="105.86315789473684" y="0.0" type="line"/>
      <point x="152.63157894736844" y="62.88421052631579"/>
      <point x="194.0526315789474" y="115.9578947368421"/>
      <point x="239.37894736842108" y="170.29473684210527" type="curve"/>
      <point x="345.84210526315786" y="299.9684210526316" type="line"/>
      <point x="354.57894736842104" y="299.9684210526316" type="line"/>
      <point x="413.7894736842105" y="171.02105263157895" type="line"/>
      <point x="437.6736842105263" y="119.58947368421053"/>
      <point x="462.7368421052631" y="62.88421052631579"/>
      <point x="486.24210526315795" y="0.0" type="curve"/>
      <point x="604.1368421052632" y="0.0" type="line"/>
      <point x="560.957894736842" y="73.63157894736842"/>
      <point x="526.6947368421053" y="141.17894736842103"/>
      <point x="490.0736842105263" y="219.2736842105263" type="curve"/>
      <point x="417.37894736842105" y="374.82105263157894" type="line"/>
      <point x="411.1894736842105" y="346.05263157894734" type="line"/>
      <point x="548.5263157894738" y="509.2526315789474" type="line"/>
      <point x="598.0631578947368" y="568.1684210526315"/>
      <point x="659.3263157894737" y="638.9052631578948"/>
      <point x="730.2421052631579" y="713.0" type="curve"/>
      <point x="601.6105263157895" y="713.0" type="line"/>
      <point x="553.4736842105264" y="650.2"/>
      <point x="505.5157894736842" y="586.7684210526315"/>
      <point x="458.9157894736842" y="531.3368421052631" type="curve"/>
      <point x="370.0736842105263" y="423.5578947368421" type="line"/>
      <point x="361.33684210526314" y="423.5578947368421" type="line"/>
      <point x="314.7473684210526" y="529.8842105263158" type="line"/>
      <point x="290.86315789473684" y="584.5894736842106"/>
      <point x="265.8947368421053" y="648.2947368421053"/>
      <point x="243.02105263157895" y="713.0" type="curve"/>
      <point x="128.13684210526316" y="713.0" type="line"/>
      <point x="171.41052631578947" y="633.5473684210526"/>
      <point x="202.30526315789473" y="565.4526315789474"/>
      <point x="232.20000000000002" y="498.3578947368421" type="curve"/>
      <point x="297.1684210526316" y="352.2631578947368" type="line"/>
      <point x="302.9052631578947" y="379.66315789473686" type="line"/>
      <point x="156.4842105263158" y="203.37894736842105" type="line"/>
      <point x="95.04210526315791" y="129.46315789473684"/>
      <point x="39.05263157894738" y="64.6421052631579"/>
    </contour>
  </outline>
</glyph>
<glyph name="Y" format="2">
  <advance width="651.9894736842106"/>
  <unicode hex="0059"/>
  <anchor x="275.0421052631579" y="0.0" name="bottom"/>
  <anchor x="425.58947368421053" y="713.0" name="top"/>
  <anchor x="117.7263157894737" y="713.0" name="topleft"/>
  <outline>
    <contour>
      <point x="294.57894736842104" y="278.65263157894736" type="line"/>
      <point x="375.2105263157895" y="278.65263157894736" type="line"/>
      <point x="587.6526315789474" y="542.5157894736842" type="line"/>
      <point x="632.1052631578948" y="597.8"/>
      <point x="679.5578947368421" y="655.2631578947369"/>
      <point x="732.6631578947369" y="713.0" type="curve"/>
      <point x="606.2105263157895" y="713.0" type="line"/>
      <point x="540.4631578947369" y="619.578947368421"/>
      <point x="504.0421052631579" y="570.6"/>
      <point x="444.4526315789474" y="493.0842105263158" type="curve"/>
      <point x="353.978947368421" y="375.94736842105266" type="line"/>
      <point x="345.5157894736842" y="375.94736842105266" type="line"/>
      <point x="301.7473684210526" y="496.9894736842105" type="line"/>
      <point x="274.5052631578947" y="571.3263157894737"/>
      <point x="259.52631578947364" y="617.4"/>
      <point x="231.03157894736842" y="713.0" type="curve"/>
      <point x="117.77894736842106" y="713.0" type="line"/>
      <point x="151.0631578947368" y="645.9894736842106"/>
      <point x="171.33684210526314" y="598.5263157894736"/>
      <point x="192.96842105263158" y="542.5157894736842" type="curve"/>
    </contour>
    <contour>
      <point x="223.37894736842105" y="0.0" type="curve"/>
      <point x="328.2526315789474" y="0.0" type="line"/>
      <point x="339.24210526315795" y="79.08421052631579"/>
      <point x="351.3263157894737" y="145.98947368421054"/>
      <point x="370.3263157894737" y="235.53684210526316" type="curve"/>
      <point x="395.62105263157895" y="354.18947368421055" type="line"/>
      <point x="304.77894736842103" y="354.18947368421055" type="line"/>
      <point x="279.4842105263158" y="235.53684210526316" type="line"/>
      <point x="261.2105263157895" y="147.44210526315788"/>
      <point x="244.8421052631579" y="79.08421052631579"/>
    </contour>
  </outline>
</glyph>
<glyph name="Z" format="2">
  <advance width="671.3157894736842"/>
  <unicode hex="005A"/>
  <anchor x="283.7473684210526" y="0.0" name="bottom"/>
  <anchor x="358.7473684210526" y="357.0" name="center"/>
  <anchor x="433.7473684210526" y="713.0" name="top"/>
  <outline>
    <contour>
      <point x="-4.115789473684213" y="0.0" type="line"/>
      <point x="567.2526315789473" y="0.0" type="line"/>
      <point x="586.1999999999999" y="88.27368421052631" type="line"/>
      <point x="504.04210526315785" y="79.4421052631579"/>
      <point x="373.3578947368421" y="77.52631578947368"/>
      <point x="284.11578947368423" y="77.52631578947368" type="curve"/>
      <point x="98.17894736842108" y="77.52631578947368" type="line"/>
      <point x="111.82105263157895" y="39.48421052631579" type="line"/>
      <point x="471.7684210526316" y="411.2421052631579" type="line"/>
      <point x="546.7368421052632" y="489.2105263157895"/>
      <point x="622.2526315789473" y="566.9052631578948"/>
      <point x="697.6736842105263" y="639.4947368421052" type="curve"/>
      <point x="713.1578947368421" y="713.0" type="line"/>
      <point x="153.8" y="713.0" type="line"/>
      <point x="135.57894736842104" y="624.3578947368421" type="line"/>
      <point x="238.09473684210525" y="632.8315789473685"/>
      <point x="333.88421052631577" y="635.4736842105264"/>
      <point x="417.94736842105266" y="635.4736842105264" type="curve"/>
      <point x="621.7894736842105" y="635.4736842105264" type="line"/>
      <point x="598.7894736842105" y="667.7052631578947" type="line"/>
      <point x="257.7263157894737" y="313.18947368421055" type="line"/>
      <point x="182.38947368421051" y="234.85263157894738"/>
      <point x="77.06315789473685" y="126.07368421052631"/>
      <point x="9.72631578947368" y="63.38947368421053" type="curve"/>
    </contour>
  </outline>
</glyph>
<glyph name="bracketleft" format="2">
  <advance width="372.36842105263156"/>
  <unicode hex="005B"/>
  <outline>
    <contour>
      <point x="13.473684210526319" y="-116.92631578947369" type="curve"/>
      <point x="103.93684210526315" y="-116.92631578947369" type="line"/>
      <point x="106.12631578947368" y="-103.07368421052631" type="line"/>
      <point x="117.11578947368422" y="-23.989473684210527"/>
      <point x="129.92631578947368" y="44.36842105263158"/>
      <point x="148.2" y="132.46315789473684" type="curve"/>
      <point x="228.8315789473684" y="514.8947368421053" type="line"/>
      <point x="247.37894736842105" y="604.0842105263158"/>
      <point x="263.7473684210526" y="673.2631578947369"/>
      <point x="286.2105263157895" y="753.1684210526316" type="curve"/>
      <point x="289.4" y="766.2947368421053" type="line"/>
      <point x="198.93684210526317" y="766.2947368421053" type="line"/>
      <point x="186.1263157894737" y="687.1157894736842"/>
      <point x="173.31578947368422" y="616.4842105263158"/>
      <point x="154.7684210526316" y="528.021052631579" type="curve"/>
      <point x="68.7578947368421" y="118.61052631578947" type="line"/>
      <point x="50.48421052631579" y="31.242105263157892"/>
      <point x="34.11578947368421" y="-37.8421052631579"/>
    </contour>
    <contour>
      <point x="85.0842105263158" y="-116.92631578947369" type="line"/>
      <point x="279.8" y="-116.92631578947369" type="line"/>
      <point x="294.8315789473684" y="-43.50526315789474" type="line"/>
      <point x="247.20000000000002" y="-46.96842105263158"/>
      <point x="196.56842105263158" y="-47.78947368421053"/>
      <point x="139.7578947368421" y="-47.78947368421053" type="curve"/>
      <point x="99.29473684210527" y="-47.78947368421053" type="line"/>
    </contour>
    <contour>
      <point x="251.6842105263158" y="697.1578947368421" type="line"/>
      <point x="291.06315789473683" y="697.1578947368421" type="line"/>
      <point x="358.87368421052633" y="697.1578947368421"/>
      <point x="405.2315789473684" y="695.5157894736842"/>
      <point x="448.58947368421053" y="692.8736842105263" type="curve"/>
      <point x="464.62105263157895" y="766.2947368421053" type="line"/>
      <point x="266.1684210526316" y="766.2947368421053" type="line"/>
    </contour>
  </outline>
</glyph>
<glyph name="backslash" format="2">
  <advance width="450.86315789473684"/>
  <unicode hex="005C"/>
  <outline>
    <contour>
      <point x="284.2631578947369" y="0.0" type="curve"/>
      <point x="374.0" y="0.0" type="line"/>
      <point x="353.8105263157895" y="74.0"/>
      <point x="336.0842105263158" y="137.0"/>
      <point x="315.5473684210527" y="228.0" type="curve"/>
      <point x="260.2947368421053" y="475.2736842105263" type="line"/>
      <point x="239.4842105263158" y="570.0"/>
      <point x="225.6736842105263" y="636.7263157894737"/>
      <point x="213.42105263157896" y="713.0" type="curve"/>
      <point x="124.23157894736842" y="713.0" type="line"/>
      <point x="147.14736842105262" y="636.0"/>
      <point x="163.05263157894734" y="571.7263157894737"/>
      <point x="183.86315789473684" y="474.7263157894737" type="curve"/>
      <point x="238.8421052631579" y="228.0" type="line"/>
      <point x="259.6526315789474" y="137.0"/>
      <point x="272.7368421052632" y="74.0"/>
    </contour>
  </outline>
</glyph>
<glyph name="asciicircum" format="2">
  <advance width="608.6105263157895"/>
  <unicode hex="005E"/>
  <outline>
    <contour>
      <point x="503.7684210526316" y="378.9473684210526" type="curve"/>
      <point x="577.3578947368421" y="380.22105263157897" type="line"/>
      <point x="529.9157894736842" y="481.9684210526316"/>
      <point x="485.9263157894737" y="583.8947368421053"/>
      <point x="448.0421052631579" y="685.6421052631579" type="curve"/>
      <point x="329.5368421052632" y="685.6421052631579" type="line"/>
      <point x="255.4736842105263" y="586.1684210526316"/>
      <point x="174.93684210526317" y="486.0526315789474"/>
      <point x="87.6842105263158" y="382.22105263157897" type="curve"/>
      <point x="171.6526315789474" y="382.22105263157897" type="line"/>
      <point x="243.07368421052632" y="459.4631578947368"/>
      <point x="310.85263157894735" y="536.8842105263158"/>
      <point x="377.90526315789475" y="614.1263157894737" type="curve"/>
      <point x="386.36842105263156" y="614.1263157894737" type="line"/>
      <point x="424.62105263157895" y="535.8842105263158"/>
      <point x="461.87368421052633" y="457.1894736842105"/>
    </contour>
  </outline>
</glyph>
<glyph name="underscore" format="2">
  <advance width="401.89473684210526"/>
  <unicode hex="005F"/>
  <outline>
    <contour>
      <point x="-88.66315789473684" y="-124.48421052631579" type="line"/>
      <point x="-25.28421052631579" y="-122.21052631578947"/>
      <point x="35.73684210526315" y="-121.38947368421053"/>
      <point x="85.74736842105263" y="-120.84210526315789" type="curve"/>
      <point x="161.3684210526316" y="-120.84210526315789" type="line"/>
      <point x="210.83157894736843" y="-121.38947368421053"/>
      <point x="271.30526315789473" y="-122.21052631578947"/>
      <point x="333.2315789473684" y="-124.48421052631579" type="curve"/>
      <point x="349.53684210526313" y="-48.14736842105263" type="line"/>
      <point x="285.88421052631577" y="-50.421052631578945"/>
      <point x="224.86315789473684" y="-51.242105263157896"/>
      <point x="175.1263157894737" y="-51.78947368421053" type="curve"/>
      <point x="99.50526315789473" y="-51.78947368421053" type="line"/>
      <point x="49.76842105263158" y="-51.242105263157896"/>
      <point x="-10.705263157894734" y="-50.421052631578945"/>
      <point x="-72.35789473684211" y="-48.14736842105263" type="curve"/>
    </contour>
  </outline>
</glyph>
<glyph name="a" format="2">
  <advance width="526.1609195402299"/>
  <unicode hex="0061"/>
  <anchor x="210.0" y="0.0" name="bottom"/>
  <anchor x="396.3103448275862" y="0.0" name="ogonek"/>
  <anchor x="316.0" y="496.39080459770116" name="top"/>
  <outline>
    <contour>
      <point x="165.26436781609195" y="-10.195402298850574" type="curve" smooth="yes"/>
      <point x="226.66666666666663" y="-10.195402298850574"/>
      <point x="290.09195402298843" y="27.195402298850578"/>
      <point x="330.3103448275862" y="71.4367816091954" type="curve"/>
      <point x="338.7011494252873" y="71.4367816091954" type="line"/>
      <point x="342.31034482758616" y="0.0" type="line"/>
      <point x="426.9080459770115" y="0.0" type="line"/>
      <point x="419.11494252873564" y="57.18390804597701"/>
      <point x="418.7011494252874" y="106.5632183908046"/>
      <point x="427.89655172413796" y="150.7471264367816" type="curve"/>
      <point x="440.9080459770115" y="211.0" type="line" smooth="yes"/>
      <point x="450.3103448275862" y="253.01149425287358"/>
      <point x="458.9080459770115" y="286.41379310344826"/>
      <point x="465.5057471264368" y="316.8045977011494" type="curve" smooth="yes"/>
      <point x="490.2988505747127" y="430.58620689655174"/>
      <point x="431.94252873563215" y="507.58620689655174"/>
      <point x="299.8045977011494" y="507.58620689655174" type="curve" smooth="yes"/>
      <point x="248.6206896551724" y="507.58620689655174"/>
      <point x="171.04597701149424" y="487.9770114942529"/>
      <point x="122.25287356321839" y="476.7701149425288" type="curve"/>
      <point x="108.88505747126436" y="393.5402298850575" type="line"/>
      <point x="183.10344827586206" y="419.7471264367816"/>
      <point x="254.26436781609195" y="436.13793103448273"/>
      <point x="279.8735632183908" y="436.13793103448273" type="curve" smooth="yes"/>
      <point x="361.3103448275862" y="436.13793103448273"/>
      <point x="402.93103448275866" y="397.71264367816093"/>
      <point x="383.89655172413796" y="317.3793103448276" type="curve"/>
      <point x="212.45977011494253" y="286.7586206896552" type="line" smooth="yes"/>
      <point x="129.26436781609195" y="271.95402298850576"/>
      <point x="51.44827586206897" y="248.17241379310346"/>
      <point x="31.04597701149425" y="155.17241379310346" type="curve" smooth="yes"/>
      <point x="10.643678160919539" y="63.770114942528735"/>
      <point x="66.86206896551724" y="-10.195402298850574"/>
    </contour>
    <contour>
      <point x="193.75862068965517" y="57.862068965517246" type="curve" smooth="yes"/>
      <point x="137.87356321839079" y="57.862068965517246"/>
      <point x="103.21839080459769" y="88.89655172413794"/>
      <point x="115.24137931034483" y="149.19540229885055" type="curve" smooth="yes"/>
      <point x="125.6551724137931" y="200.65517241379308"/>
      <point x="173.33333333333334" y="215.45977011494253"/>
      <point x="233.19540229885058" y="227.47126436781608" type="curve" smooth="yes"/>
      <point x="326.8965517241379" y="246.68965517241378"/>
      <point x="351.91954022988506" y="255.49425287356323"/>
      <point x="369.93103448275866" y="264.6896551724138" type="curve"/>
      <point x="346.7011494252874" y="154.16091954022988" type="line"/>
      <point x="292.2643678160919" y="83.87356321839079"/>
      <point x="230.02298850574712" y="57.862068965517246"/>
    </contour>
  </outline>
</glyph>
<glyph name="b" format="2">
  <advance width="592.1894736842105"/>
  <unicode hex="0062"/>
  <outline>
    <contour>
      <point x="299.978947368421" y="-10.91578947368421" type="curve" smooth="yes"/>
      <point x="420.33684210526314" y="-10.91578947368421"/>
      <point x="506.50526315789466" y="80.10526315789474"/>
      <point x="536.5052631578947" y="223.28421052631577" type="curve" smooth="yes"/>
      <point x="567.778947368421" y="373.8315789473684"/>
      <point x="511.25263157894733" y="507.8315789473684"/>
      <point x="364.5473684210526" y="507.8315789473684" type="curve" smooth="yes"/>
      <point x="314.47368421052636" y="507.8315789473684"/>
      <point x="253.5894736842105" y="474.30526315789473"/>
      <point x="217.86315789473687" y="439.29473684210524" type="curve"/>
      <point x="209.12631578947372" y="439.29473684210524" type="line"/>
      <point x="220.75789473684213" y="493.7263157894737" type="line"/>
      <point x="239.30526315789476" y="581.7368421052631"/>
      <point x="259.58947368421053" y="662.6526315789474"/>
      <point x="283.5052631578948" y="743.2842105263157" type="curve"/>
      <point x="175.0" y="729.8210526315789" type="line"/>
      <point x="168.7473684210526" y="654.8105263157895"/>
      <point x="155.66315789473686" y="577.0842105263158"/>
      <point x="138.21052631578948" y="493.7263157894737" type="curve"/>
      <point x="79.93684210526315" y="218.81052631578947" type="line"/>
      <point x="62.663157894736834" y="136.98947368421054"/>
      <point x="46.56842105263157" y="73.3578947368421"/>
      <point x="26.37894736842105" y="0.0" type="curve"/>
      <point x="99.44210526315788" y="0.0" type="line"/>
      <point x="126.09473684210529" y="75.15789473684211" type="line"/>
      <point x="134.0105263157895" y="75.15789473684211" type="line"/>
      <point x="173.7263157894737" y="23.978947368421053"/>
      <point x="242.7157894736842" y="-10.91578947368421"/>
    </contour>
    <contour>
      <point x="281.09473684210525" y="63.77894736842106" type="curve"/>
      <point x="231.23157894736843" y="64.3263157894737"/>
      <point x="179.73684210526315" y="93.56842105263159"/>
      <point x="146.86315789473687" y="144.2421052631579" type="curve"/>
      <point x="192.6526315789474" y="360.2" type="line"/>
      <point x="234.61052631578946" y="404.07368421052627"/>
      <point x="289.8315789473684" y="432.9578947368421"/>
      <point x="331.25263157894733" y="433.9578947368421" type="curve"/>
      <point x="437.7894736842105" y="430.9578947368421"/>
      <point x="475.2105263157894" y="340.0210526315789"/>
      <point x="452.6842105263157" y="230.56842105263158" type="curve" smooth="yes"/>
      <point x="432.78947368421046" y="135.2736842105263"/>
      <point x="378.2842105263158" y="67.05263157894737"/>
    </contour>
  </outline>
</glyph>
<glyph name="c" format="2">
  <advance width="494.33684210526314"/>
  <unicode hex="0063"/>
  <anchor x="233.34736842105264" y="0.0" name="bottom"/>
  <anchor x="331.3578947368421" y="496.18947368421055" name="top"/>
  <outline>
    <contour>
      <point x="280.5578947368421" y="-10.094736842105263" type="curve" smooth="yes"/>
      <point x="324.5473684210526" y="-10.094736842105263"/>
      <point x="375.4526315789474" y="5.989473684210527"/>
      <point x="402.4526315789474" y="18.347368421052632" type="curve"/>
      <point x="410.93684210526317" y="98.85263157894738" type="line"/>
      <point x="375.85263157894735" y="78.49473684210527"/>
      <point x="328.4947368421053" y="62.863157894736844"/>
      <point x="293.14736842105265" y="62.13684210526316" type="curve" smooth="yes"/>
      <point x="176.67368421052632" y="64.13684210526316"/>
      <point x="110.70526315789473" y="139.26315789473685"/>
      <point x="138.05263157894737" y="266.4526315789473" type="curve" smooth="yes"/>
      <point x="161.4" y="373.91578947368424"/>
      <point x="234.43157894736842" y="428.9578947368421"/>
      <point x="327.7263157894737" y="433.9578947368421" type="curve"/>
      <point x="360.3473684210526" y="433.9578947368421"/>
      <point x="414.2421052631579" y="419.3263157894737"/>
      <point x="469.61052631578946" y="387.6947368421052" type="curve"/>
      <point x="492.10526315789474" y="464.56842105263155" type="line"/>
      <point x="451.2842105263158" y="482.9263157894737"/>
      <point x="387.27368421052637" y="507.5578947368421"/>
      <point x="328.178947368421" y="507.5578947368421" type="curve" smooth="yes"/>
      <point x="186.68421052631578" y="507.5578947368421"/>
      <point x="83.05263157894737" y="413.37894736842105"/>
      <point x="54.50526315789474" y="276.0105263157895" type="curve" smooth="yes"/>
      <point x="19.863157894736844" y="107.98947368421052"/>
      <point x="110.8" y="-10.094736842105263"/>
    </contour>
  </outline>
</glyph>
<glyph name="d" format="2">
  <advance width="578.021052631579"/>
  <unicode hex="0064"/>
  <anchor x="258.10526315789474" y="0.0" name="bottom"/>
  <anchor x="290.9157894736842" y="248.09473684210528" name="center"/>
  <anchor x="410.65263157894736" y="725.7368421052631" name="top"/>
  <anchor x="606.0315789473684" y="496.18947368421055" name="topright"/>
  <outline>
    <contour>
      <point x="227.91578947368419" y="-10.91578947368421" type="curve" smooth="yes"/>
      <point x="278.27368421052637" y="-10.91578947368421"/>
      <point x="341.44210526315794" y="19.621052631578948"/>
      <point x="384.7157894736842" y="70.98947368421054" type="curve"/>
      <point x="392.63157894736844" y="70.98947368421054" type="line"/>
      <point x="382.18947368421055" y="0.0" type="line"/>
      <point x="458.3578947368421" y="0.0" type="line"/>
      <point x="470.0736842105263" y="73.3578947368421"/>
      <point x="481.15789473684214" y="136.98947368421054"/>
      <point x="498.43157894736845" y="218.81052631578947" type="curve"/>
      <point x="556.7052631578947" y="493.7263157894737" type="line"/>
      <point x="575.2526315789473" y="581.7368421052631"/>
      <point x="595.5368421052631" y="662.6526315789474"/>
      <point x="619.4526315789474" y="743.2842105263157" type="curve"/>
      <point x="510.9473684210526" y="729.8210526315789" type="line"/>
      <point x="504.69473684210527" y="654.8105263157895"/>
      <point x="491.61052631578946" y="577.0842105263158"/>
      <point x="474.1578947368421" y="493.7263157894737" type="curve"/>
      <point x="461.79999999999995" y="434.9368421052631" type="line"/>
      <point x="453.06315789473683" y="434.9368421052631" type="line"/>
      <point x="419.07368421052627" y="474.0315789473684"/>
      <point x="353.0947368421053" y="507.8315789473684"/>
      <point x="292.4842105263158" y="507.8315789473684" type="curve" smooth="yes"/>
      <point x="172.1263157894737" y="507.8315789473684"/>
      <point x="85.9578947368421" y="416.81052631578945"/>
      <point x="55.95789473684211" y="273.63157894736844" type="curve" smooth="yes"/>
      <point x="24.68421052631579" y="123.0842105263158"/>
      <point x="81.21052631578948" y="-10.91578947368421"/>
    </contour>
    <contour>
      <point x="261.2105263157895" y="62.95789473684211" type="curve"/>
      <point x="154.67368421052632" y="65.23157894736842"/>
      <point x="116.5263157894737" y="157.62105263157895"/>
      <point x="139.77894736842106" y="266.34736842105264" type="curve" smooth="yes"/>
      <point x="160.4" y="363.09473684210525"/>
      <point x="214.17894736842106" y="429.86315789473684"/>
      <point x="311.36842105263156" y="433.13684210526316" type="curve"/>
      <point x="363.4105263157895" y="431.86315789473684"/>
      <point x="414.17894736842106" y="405.52631578947364"/>
      <point x="447.05263157894734" y="366.4736842105263" type="curve"/>
      <point x="402.7157894736842" y="155.6" type="line"/>
      <point x="365.8421052631579" y="98.65263157894738"/>
      <point x="312.0736842105263" y="64.6842105263158"/>
    </contour>
  </outline>
</glyph>
<glyph name="e" format="2">
  <advance width="527.4022988505748"/>
  <unicode hex="0065"/>
  <anchor x="232.81609195402297" y="0.0" name="bottom"/>
  <anchor x="340.7471264367816" y="0.0" name="ogonek"/>
  <anchor x="329.8045977011494" y="496.39080459770116" name="top"/>
  <outline>
    <contour>
      <point x="275.18390804597703" y="-10.793103448275861" type="curve" smooth="yes"/>
      <point x="332.5862068965517" y="-10.793103448275861"/>
      <point x="391.7586206896551" y="6.609195402298853"/>
      <point x="427.367816091954" y="20.011494252873565" type="curve"/>
      <point x="438.94252873563215" y="99.86206896551724" type="line"/>
      <point x="382.551724137931" y="74.05747126436783"/>
      <point x="327.14942528735634" y="61.252873563218394"/>
      <point x="289.5287356321839" y="61.252873563218394" type="curve" smooth="yes"/>
      <point x="171.85057471264366" y="61.252873563218394"/>
      <point x="108.63218390804597" y="134.33333333333334"/>
      <point x="133.44827586206895" y="254.4022988505747" type="curve"/>
      <point x="135.83908045977012" y="266.367816091954" type="line"/>
      <point x="162.05747126436782" y="382.88505747126436"/>
      <point x="234.72413793103448" y="436.32183908045977"/>
      <point x="312.81609195402297" y="439.32183908045977" type="curve"/>
      <point x="393.90804597701145" y="436.32183908045977"/>
      <point x="431.7586206896552" y="378.28735632183907"/>
      <point x="413.9425287356322" y="294.7931034482759" type="curve" smooth="yes"/>
      <point x="411.9425287356322" y="285.39080459770116"/>
      <point x="408.9425287356322" y="274.98850574712645"/>
      <point x="405.9425287356322" y="265.98850574712645" type="curve"/>
      <point x="473.17241379310343" y="231.6206896551724" type="line"/>
      <point x="478.7701149425287" y="247.41379310344828"/>
      <point x="485.17241379310343" y="268.2183908045977"/>
      <point x="489.367816091954" y="286.2068965517241" type="curve" smooth="yes"/>
      <point x="518.3448275862069" y="410.7701149425287"/>
      <point x="454.37931034482756" y="507.18390804597703"/>
      <point x="312.4252873563218" y="507.18390804597703" type="curve" smooth="yes"/>
      <point x="182.6551724137931" y="507.18390804597703"/>
      <point x="83.04597701149424" y="414.7931034482759"/>
      <point x="53.04597701149425" y="271.5977011494253" type="curve" smooth="yes"/>
      <point x="17.04597701149425" y="101.41379310344828"/>
      <point x="108.02298850574712" y="-10.793103448275861"/>
    </contour>
    <contour>
      <point x="78.37931034482759" y="231.6206896551724" type="line"/>
      <point x="473.17241379310343" y="231.6206896551724" type="line"/>
      <point x="482.1609195402299" y="276.367816091954" type="line"/>
      <point x="433.0689655172414" y="295.0919540229885" type="line"/>
      <point x="87.36781609195403" y="292.1034482758621" type="line"/>
    </contour>
  </outline>
</glyph>
<glyph name="f" format="2">
  <advance width="394.4947368421053"/>
  <unicode hex="0066"/>
  <outline>
    <contour>
      <point x="58.93684210526316" y="0.0" type="curve"/>
      <point x="154.96842105263158" y="0.0" type="line"/>
      <point x="166.6842105263158" y="73.3578947368421"/>
      <point x="177.7684210526316" y="136.98947368421054"/>
      <point x="195.0421052631579" y="218.81052631578947" type="curve"/>
      <point x="249.76842105263157" y="477.2631578947368" type="line"/>
      <point x="255.77894736842106" y="496.18947368421055" type="line"/>
      <point x="253.57894736842104" y="507.0"/>
      <point x="255.83157894736843" y="541.3368421052631"/>
      <point x="261.01052631578943" y="565.0526315789474" type="curve" smooth="yes"/>
      <point x="276.178947368421" y="636.2631578947369"/>
      <point x="311.07368421052627" y="673.1368421052632"/>
      <point x="384.9157894736842" y="673.1368421052632" type="curve" smooth="yes"/>
      <point x="409.81052631578945" y="673.1368421052632"/>
      <point x="443.5473684210526" y="664.1368421052631"/>
      <point x="469.5578947368421" y="654.3157894736842" type="curve"/>
      <point x="491.3263157894737" y="728.3684210526316" type="line"/>
      <point x="460.03157894736836" y="737.0947368421052"/>
      <point x="411.2736842105263" y="745.3684210526316"/>
      <point x="382.178947368421" y="745.3684210526316" type="curve" smooth="yes"/>
      <point x="287.8" y="745.3684210526316"/>
      <point x="211.57894736842107" y="702.6421052631579"/>
      <point x="184.11578947368423" y="573.6105263157895" type="curve" smooth="yes"/>
      <point x="159.49473684210528" y="456.13684210526316"/>
      <point x="141.4" y="359.33684210526314"/>
      <point x="122.76842105263157" y="268.81052631578945" type="curve"/>
      <point x="112.49473684210525" y="218.81052631578947" type="line"/>
      <point x="95.22105263157894" y="136.98947368421054"/>
      <point x="79.12631578947367" y="73.3578947368421"/>
    </contour>
    <contour>
      <point x="61.13684210526316" y="424.13684210526316" type="line"/>
      <point x="180.70526315789473" y="433.7894736842105" type="line"/>
      <point x="214.4315789473684" y="433.7894736842105" type="line"/>
      <point x="278.32631578947365" y="433.2421052631579"/>
      <point x="340.57894736842104" y="430.6"/>
      <point x="406.0210526315789" y="424.13684210526316" type="curve"/>
      <point x="421.5052631578947" y="496.18947368421055" type="line"/>
      <point x="76.62105263157895" y="496.18947368421055" type="line"/>
    </contour>
  </outline>
</glyph>
<glyph name="g" format="2">
  <advance width="543.1724137931035"/>
  <unicode hex="0067"/>
  <anchor x="190.1379310344828" y="-192.0" name="bottom"/>
  <anchor x="308.1724137931035" y="496.39080459770116" name="top"/>
  <outline>
    <contour>
      <point x="175.78160919540232" y="-202.19540229885058" type="curve" smooth="yes"/>
      <point x="290.7586206896552" y="-202.19540229885058"/>
      <point x="410.3333333333333" y="-158.39080459770113"/>
      <point x="431.7241379310345" y="-57.4367816091954" type="curve" smooth="yes"/>
      <point x="449.11494252873564" y="25.114942528735632"/>
      <point x="392.3333333333333" y="80.10344827586206"/>
      <point x="260.11494252873564" y="80.10344827586206" type="curve" smooth="yes"/>
      <point x="219.94252873563218" y="80.10344827586206" type="line" smooth="yes"/>
      <point x="165.632183908046" y="80.10344827586206"/>
      <point x="141.66666666666669" y="97.5632183908046"/>
      <point x="146.4712643678161" y="121.7816091954023" type="curve" smooth="yes"/>
      <point x="151.48275862068968" y="146.02298850574712"/>
      <point x="188.88505747126436" y="157.6206896551724"/>
      <point x="261.1379310344828" y="167.22988505747125" type="curve" smooth="yes"/>
      <point x="355.35632183908046" y="180.03448275862067"/>
      <point x="436.1264367816092" y="218.24137931034483"/>
      <point x="456.1264367816092" y="319.8045977011494" type="curve" smooth="yes"/>
      <point x="466.9310344827586" y="375.41379310344826"/>
      <point x="450.5287356321839" y="426.0344827586207"/>
      <point x="396.49425287356325" y="465.8390804597701" type="curve"/>
      <point x="372.5402298850575" y="443.7011494252874" type="line"/>
      <point x="434.35632183908046" y="441.7011494252874"/>
      <point x="495.9770114942529" y="437.3103448275862"/>
      <point x="559.7931034482759" y="427.3333333333333" type="curve"/>
      <point x="574.5632183908045" y="496.98850574712645" type="line"/>
      <point x="404.9310344827586" y="496.98850574712645" type="line" smooth="yes"/>
      <point x="351.7586206896552" y="496.98850574712645"/>
      <point x="330.367816091954" y="507.58620689655174"/>
      <point x="271.6206896551724" y="507.58620689655174" type="curve" smooth="yes"/>
      <point x="166.66666666666666" y="507.58620689655174"/>
      <point x="91.44827586206895" y="457.01149425287355"/>
      <point x="72.64367816091954" y="365.7931034482759" type="curve" smooth="yes"/>
      <point x="53.64367816091954" y="273.7931034482758"/>
      <point x="120.25287356321839" y="213.19540229885058"/>
      <point x="156.43678160919538" y="194.5977011494253" type="curve"/>
      <point x="156.43678160919538" y="187.20689655172413" type="line"/>
      <point x="112.0344827586207" y="176.60919540229887"/>
      <point x="77.25287356321839" y="156.20689655172413"/>
      <point x="68.25287356321839" y="115.81609195402298" type="curve" smooth="yes"/>
      <point x="58.252873563218394" y="69.62068965517241"/>
      <point x="90.85057471264366" y="44.42528735632184"/>
      <point x="105.05747126436782" y="36.827586206896555" type="curve"/>
      <point x="105.05747126436782" y="30.436781609195407" type="line"/>
      <point x="61.252873563218394" y="19.03448275862069"/>
      <point x="-0.9655172413793097" y="-11.172413793103447"/>
      <point x="-12.770114942528735" y="-65.39080459770115" type="curve" smooth="yes"/>
      <point x="-32.367816091954026" y="-157.57471264367817"/>
      <point x="67.39080459770115" y="-202.19540229885058"/>
    </contour>
    <contour>
      <point x="184.7471264367816" y="-135.5287356321839" type="curve"/>
      <point x="122.90804597701151" y="-134.9310344827586"/>
      <point x="52.0344827586207" y="-113.91954022988506"/>
      <point x="63.65517241379311" y="-60.218390804597696" type="curve" smooth="yes"/>
      <point x="72.26436781609196" y="-20.563218390804597"/>
      <point x="135.55172413793102" y="1.2528735632183912"/>
      <point x="179.95402298850573" y="10.850574712643677" type="curve"/>
      <point x="230.01149425287355" y="10.850574712643677" type="line" smooth="yes"/>
      <point x="341.6896551724138" y="10.850574712643677"/>
      <point x="361.91954022988506" y="-21.770114942528735"/>
      <point x="353.9080459770115" y="-58.81609195402299" type="curve" smooth="yes"/>
      <point x="346.09195402298855" y="-94.08045977011494"/>
      <point x="293.03448275862064" y="-132.54022988505744"/>
    </contour>
    <contour>
      <point x="232.7471264367816" y="229.68965517241378" type="curve"/>
      <point x="185.28735632183904" y="247.8965517241379"/>
      <point x="136.05747126436782" y="288.17241379310343"/>
      <point x="148.0689655172414" y="350.2298850574713" type="curve" smooth="yes"/>
      <point x="159.8850574712644" y="410.5057471264368"/>
      <point x="208.73563218390805" y="437.3333333333333"/>
      <point x="273.4022988505747" y="437.3333333333333" type="curve"/>
      <point x="341.8505747126437" y="437.3333333333333"/>
      <point x="393.51724137931035" y="389.09195402298855"/>
      <point x="379.1034482758621" y="323.21839080459773" type="curve" smooth="yes"/>
      <point x="363.08045977011494" y="249.9080459770115"/>
      <point x="293.8045977011494" y="235.70114942528738"/>
    </contour>
  </outline>
</glyph>
<glyph name="h" format="2">
  <advance width="576.2105263157894"/>
  <unicode hex="0068"/>
  <guideline x="72.10526315789474" y="721.9368421052632" angle="4.470799999999997"/>
  <anchor x="254.78947368421052" y="0.0" name="bottom"/>
  <anchor x="317.2526315789474" y="409.0" name="center"/>
  <anchor x="372.5473684210526" y="725.7368421052631" name="top"/>
  <outline>
    <contour>
      <point x="26.37894736842105" y="0.0" type="curve"/>
      <point x="122.41052631578948" y="0.0" type="line"/>
      <point x="134.12631578947372" y="73.3578947368421"/>
      <point x="145.2105263157895" y="136.98947368421054"/>
      <point x="161.66315789473686" y="215.25263157894736" type="curve"/>
      <point x="187.20000000000002" y="333.8526315789474" type="line"/>
      <point x="234.70526315789473" y="384.2631578947369"/>
      <point x="300.01052631578943" y="429.85263157894735"/>
      <point x="348.95789473684204" y="429.85263157894735" type="curve" smooth="yes"/>
      <point x="425.978947368421" y="429.85263157894735"/>
      <point x="445.9578947368421" y="381.2421052631579"/>
      <point x="426.69473684210527" y="292.4736842105263" type="curve"/>
      <point x="410.9789473684211" y="215.25263157894736" type="line"/>
      <point x="394.5263157894737" y="136.98947368421054"/>
      <point x="378.70526315789476" y="73.3578947368421"/>
      <point x="359.0631578947369" y="0.0" type="curve"/>
      <point x="454.5473684210526" y="0.0" type="line"/>
      <point x="465.44210526315794" y="73.3578947368421"/>
      <point x="477.0736842105263" y="136.98947368421054"/>
      <point x="494.34736842105264" y="218.81052631578947" type="curve"/>
      <point x="502.34736842105264" y="257.08421052631576"/>
      <point x="510.8105263157895" y="287.5578947368421"/>
      <point x="516.8105263157895" y="315.10526315789474" type="curve" smooth="yes"/>
      <point x="542.9894736842106" y="434.9157894736842"/>
      <point x="496.7157894736842" y="507.8315789473684"/>
      <point x="387.3578947368421" y="507.8315789473684" type="curve" smooth="yes"/>
      <point x="325.9263157894737" y="507.8315789473684"/>
      <point x="253.86315789473684" y="457.5894736842105"/>
      <point x="212.50526315789475" y="417.94736842105266" type="curve"/>
      <point x="204.22105263157897" y="417.94736842105266" type="line"/>
      <point x="220.75789473684213" y="493.7263157894737" type="line"/>
      <point x="239.30526315789476" y="581.7368421052631"/>
      <point x="259.58947368421053" y="662.6526315789473"/>
      <point x="283.5052631578948" y="743.2842105263157" type="curve"/>
      <point x="175.0" y="729.8210526315789" type="line"/>
      <point x="168.7473684210526" y="654.8105263157895"/>
      <point x="155.66315789473686" y="577.0842105263158"/>
      <point x="138.21052631578948" y="493.7263157894737" type="curve"/>
      <point x="79.93684210526315" y="218.81052631578947" type="line"/>
      <point x="62.663157894736834" y="136.98947368421054"/>
      <point x="46.56842105263157" y="73.3578947368421"/>
    </contour>
  </outline>
</glyph>
<glyph name="k" format="2">
  <advance width="543.6421052631579"/>
  <unicode hex="006B"/>
  <anchor x="225.57894736842104" y="0.0" name="bottom"/>
  <anchor x="378.12631578947367" y="725.7368421052631" name="top"/>
  <outline>
    <contour>
      <point x="363.7263157894737" y="0.0" type="curve"/>
      <point x="478.67368421052635" y="0.0" type="line"/>
      <point x="421.96842105263164" y="58.642105263157895"/>
      <point x="370.90526315789475" y="116.83157894736843"/>
      <point x="321.3894736842105" y="175.47368421052633" type="curve"/>
      <point x="238.2421052631579" y="275.9684210526316" type="line"/>
      <point x="250.63157894736844" y="236.16842105263157" type="line"/>
      <point x="351.3157894736842" y="321.3578947368421" type="line"/>
      <point x="420.83157894736837" y="379.7263157894737"/>
      <point x="491.8" y="437.82105263157894"/>
      <point x="566.4105263157894" y="496.18947368421055" type="curve"/>
      <point x="445.7368421052632" y="496.18947368421055" type="line"/>
      <point x="394.7894736842105" y="449.65263157894736"/>
      <point x="340.9263157894737" y="402.66315789473686"/>
      <point x="287.2421052631579" y="356.12631578947367" type="curve"/>
      <point x="198.49473684210528" y="280.2315789473684" type="line"/>
      <point x="166.30526315789473" y="280.2315789473684" type="line"/>
      <point x="153.73684210526315" y="221.03157894736842" type="line"/>
      <point x="182.1157894736842" y="221.03157894736842" type="line"/>
      <point x="254.94736842105266" y="136.32631578947368" type="line"/>
      <point x="292.7263157894737" y="90.88421052631578"/>
      <point x="329.6842105263158" y="45.44210526315789"/>
    </contour>
    <contour>
      <point x="26.37894736842105" y="0.0" type="curve"/>
      <point x="122.41052631578948" y="0.0" type="line"/>
      <point x="133.85263157894738" y="70.07368421052631"/>
      <point x="144.38947368421054" y="130.96842105263158"/>
      <point x="159.74736842105264" y="205.94736842105263" type="curve"/>
      <point x="220.75789473684213" y="493.7263157894737" type="line"/>
      <point x="239.30526315789476" y="581.7368421052631"/>
      <point x="259.58947368421053" y="662.6526315789473"/>
      <point x="283.5052631578948" y="743.2842105263157" type="curve"/>
      <point x="175.0" y="729.8210526315789" type="line"/>
      <point x="168.7473684210526" y="654.8105263157895"/>
      <point x="155.66315789473686" y="577.0842105263158"/>
      <point x="138.21052631578948" y="493.7263157894737" type="curve"/>
      <point x="79.93684210526315" y="218.81052631578947" type="line"/>
      <point x="62.663157894736834" y="136.98947368421054"/>
      <point x="46.56842105263157" y="73.3578947368421"/>
    </contour>
  </outline>
</glyph>
<glyph name="l" format="2">
  <advance width="255.51578947368424"/>
  <unicode hex="006C"/>
  <anchor x="74.75789473684212" y="0.0" name="bottom"/>
  <anchor x="163.1263157894737" y="409.0" name="center"/>
  <anchor x="226.5684210526316" y="725.7368421052631" name="top"/>
  <anchor x="268.7157894736842" y="496.18947368421055" name="topright"/>
  <outline>
    <contour>
      <point x="26.37894736842105" y="0.0" type="curve"/>
      <point x="122.41052631578948" y="0.0" type="line"/>
      <point x="134.12631578947372" y="73.3578947368421"/>
      <point x="145.2105263157895" y="136.98947368421054"/>
      <point x="162.48421052631582" y="218.81052631578947" type="curve"/>
      <point x="220.75789473684213" y="493.7263157894737" type="line"/>
      <point x="239.30526315789476" y="581.7368421052631"/>
      <point x="259.58947368421053" y="662.6526315789474"/>
      <point x="283.5052631578948" y="743.2842105263157" type="curve"/>
      <point x="175.0" y="729.8210526315789" type="line"/>
      <point x="168.7473684210526" y="654.8105263157895"/>
      <point x="155.66315789473686" y="577.0842105263158"/>
      <point x="138.21052631578948" y="493.7263157894737" type="curve"/>
      <point x="79.93684210526315" y="218.81052631578947" type="line"/>
      <point x="62.663157894736834" y="136.98947368421054"/>
      <point x="46.56842105263157" y="73.3578947368421"/>
    </contour>
  </outline>
</glyph>
<glyph name="m" format="2">
  <advance width="880.8315789473684"/>
  <unicode hex="006D"/>
  <anchor x="397.90526315789475" y="0.0" name="bottom"/>
  <anchor x="502.4526315789474" y="496.18947368421055" name="top"/>
  <outline>
    <contour>
      <point x="31.831578947368417" y="0.0" type="curve"/>
      <point x="127.86315789473684" y="0.0" type="line"/>
      <point x="139.57894736842107" y="73.3578947368421"/>
      <point x="150.66315789473688" y="136.98947368421054"/>
      <point x="167.11578947368423" y="215.25263157894736" type="curve"/>
      <point x="192.6526315789474" y="333.8526315789474" type="line"/>
      <point x="240.1578947368421" y="384.2631578947368"/>
      <point x="302.01052631578943" y="429.85263157894735"/>
      <point x="349.5052631578947" y="429.85263157894735" type="curve" smooth="yes"/>
      <point x="417.2631578947368" y="429.85263157894735"/>
      <point x="437.24210526315784" y="381.2421052631579"/>
      <point x="417.978947368421" y="292.4736842105263" type="curve"/>
      <point x="402.2631578947368" y="215.25263157894736" type="line"/>
      <point x="385.81052631578945" y="136.98947368421054"/>
      <point x="369.9894736842105" y="73.3578947368421"/>
      <point x="350.3473684210526" y="0.0" type="curve"/>
      <point x="445.8315789473684" y="0.0" type="line"/>
      <point x="456.72631578947374" y="73.3578947368421"/>
      <point x="468.3578947368421" y="136.98947368421054"/>
      <point x="485.63157894736844" y="218.81052631578947" type="curve"/>
      <point x="493.63157894736844" y="257.08421052631576"/>
      <point x="502.0947368421053" y="287.5578947368421"/>
      <point x="508.0947368421053" y="315.10526315789474" type="curve" smooth="yes"/>
      <point x="513.6421052631579" y="341.29473684210524"/>
      <point x="516.0947368421052" y="364.4842105263158"/>
      <point x="515.0" y="385.85263157894735" type="curve"/>
      <point x="511.8105263157895" y="388.7578947368421" type="line"/>
      <point x="508.7157894736842" y="463.9263157894737"/>
      <point x="465.2631578947369" y="507.8315789473684"/>
      <point x="387.178947368421" y="507.8315789473684" type="curve" smooth="yes"/>
      <point x="325.7368421052631" y="507.8315789473684"/>
      <point x="252.5684210526316" y="455.9473684210526"/>
      <point x="209.47368421052633" y="412.8421052631579" type="curve"/>
      <point x="201.18947368421055" y="412.8421052631579" type="line"/>
      <point x="210.54736842105265" y="501.10526315789474" type="line"/>
      <point x="128.36842105263156" y="496.18947368421055" type="line"/>
      <point x="124.02105263157893" y="419.7263157894737"/>
      <point x="111.66315789473684" y="342.0"/>
      <point x="96.38947368421051" y="268.81052631578945" type="curve"/>
      <point x="85.38947368421051" y="218.81052631578947" type="line"/>
      <point x="68.1157894736842" y="136.98947368421054"/>
      <point x="52.02105263157894" y="73.3578947368421"/>
    </contour>
    <contour>
      <point x="663.6842105263158" y="0.0" type="curve"/>
      <point x="759.1684210526316" y="0.0" type="line"/>
      <point x="770.0631578947368" y="73.3578947368421"/>
      <point x="781.6947368421053" y="136.98947368421054"/>
      <point x="798.9684210526316" y="218.81052631578947" type="curve"/>
      <point x="806.9684210526316" y="257.08421052631576"/>
      <point x="815.4315789473684" y="287.5578947368421"/>
      <point x="821.4315789473684" y="315.10526315789474" type="curve" smooth="yes"/>
      <point x="847.6105263157895" y="434.91578947368424"/>
      <point x="801.3368421052631" y="507.8315789473684"/>
      <point x="700.5157894736842" y="507.8315789473684" type="curve" smooth="yes"/>
      <point x="639.0736842105262" y="507.8315789473684"/>
      <point x="562.5473684210526" y="453.76842105263165"/>
      <point x="518.0" y="409.2105263157895" type="curve"/>
      <point x="507.9894736842105" y="409.2105263157895" type="line"/>
      <point x="505.9894736842105" y="333.8526315789474" type="line"/>
      <point x="553.4947368421052" y="384.2631578947368"/>
      <point x="615.3473684210527" y="429.85263157894735"/>
      <point x="662.8421052631579" y="429.85263157894735" type="curve" smooth="yes"/>
      <point x="730.5999999999999" y="429.85263157894735"/>
      <point x="750.578947368421" y="381.2421052631579"/>
      <point x="731.3157894736843" y="292.4736842105263" type="curve"/>
      <point x="715.6" y="215.25263157894736" type="line"/>
      <point x="699.1473684210526" y="136.98947368421054"/>
      <point x="683.3263157894737" y="73.3578947368421"/>
    </contour>
  </outline>
</glyph>
<glyph name="n" format="2">
  <advance width="581.6631578947367"/>
  <unicode hex="006E"/>
  <anchor x="243.09473684210528" y="0.0" name="bottom"/>
  <anchor x="347.6421052631579" y="496.18947368421055" name="top"/>
  <outline>
    <contour>
      <point x="31.831578947368417" y="0.0" type="curve"/>
      <point x="127.86315789473684" y="0.0" type="line"/>
      <point x="139.57894736842107" y="73.3578947368421"/>
      <point x="150.66315789473688" y="136.98947368421054"/>
      <point x="167.11578947368423" y="215.25263157894736" type="curve"/>
      <point x="192.6526315789474" y="333.8526315789474" type="line"/>
      <point x="240.1578947368421" y="384.2631578947369"/>
      <point x="305.4631578947368" y="429.85263157894735"/>
      <point x="354.4105263157894" y="429.85263157894735" type="curve" smooth="yes"/>
      <point x="431.4315789473684" y="429.85263157894735"/>
      <point x="451.41052631578947" y="381.2421052631579"/>
      <point x="432.14736842105265" y="292.4736842105263" type="curve"/>
      <point x="416.43157894736845" y="215.25263157894736" type="line"/>
      <point x="399.9789473684211" y="136.98947368421054"/>
      <point x="384.15789473684214" y="73.3578947368421"/>
      <point x="364.5157894736842" y="0.0" type="curve"/>
      <point x="460.0" y="0.0" type="line"/>
      <point x="470.8947368421053" y="73.3578947368421"/>
      <point x="482.5263157894737" y="136.98947368421054"/>
      <point x="499.8" y="218.81052631578947" type="curve"/>
      <point x="507.8" y="257.08421052631576"/>
      <point x="516.2631578947369" y="287.5578947368421"/>
      <point x="522.2631578947369" y="315.10526315789474" type="curve" smooth="yes"/>
      <point x="548.4421052631579" y="434.9157894736842"/>
      <point x="502.1684210526316" y="507.8315789473684"/>
      <point x="392.8105263157895" y="507.8315789473684" type="curve" smooth="yes"/>
      <point x="328.6421052631579" y="507.8315789473684"/>
      <point x="252.84210526315792" y="455.9473684210526"/>
      <point x="209.47368421052633" y="412.8421052631579" type="curve"/>
      <point x="201.18947368421055" y="412.8421052631579" type="line"/>
      <point x="210.54736842105265" y="501.10526315789474" type="line"/>
      <point x="128.36842105263156" y="496.18947368421055" type="line"/>
      <point x="124.02105263157893" y="419.7263157894737"/>
      <point x="111.66315789473684" y="342.0"/>
      <point x="96.38947368421051" y="268.81052631578945" type="curve"/>
      <point x="85.38947368421051" y="218.81052631578947" type="line"/>
      <point x="68.1157894736842" y="136.98947368421054"/>
      <point x="52.02105263157894" y="73.3578947368421"/>
    </contour>
  </outline>
</glyph>
<glyph name="p" format="2">
  <advance width="597.6421052631579"/>
  <unicode hex="0070"/>
  <outline>
    <contour>
      <point x="-9.894736842105267" y="-195.09473684210528" type="curve"/>
      <point x="88.50526315789476" y="-192.0" type="line"/>
      <point x="98.40000000000002" y="-118.6421052631579"/>
      <point x="109.21052631578948" y="-55.01052631578948"/>
      <point x="126.38947368421054" y="23.25263157894737" type="curve"/>
      <point x="137.2947368421053" y="71.8736842105263" type="line"/>
      <point x="144.93684210526317" y="71.8736842105263" type="line"/>
      <point x="183.55789473684212" y="22.88421052631579"/>
      <point x="250.0842105263158" y="-10.91578947368421"/>
      <point x="305.4315789473684" y="-10.91578947368421" type="curve" smooth="yes"/>
      <point x="425.7894736842105" y="-10.91578947368421"/>
      <point x="511.95789473684204" y="80.10526315789474"/>
      <point x="541.957894736842" y="223.28421052631577" type="curve" smooth="yes"/>
      <point x="573.2315789473683" y="373.8315789473684"/>
      <point x="516.7052631578947" y="507.8315789473684"/>
      <point x="370.0" y="507.8315789473684" type="curve" smooth="yes"/>
      <point x="317.0105263157895" y="507.8315789473684"/>
      <point x="253.21052631578945" y="472.2105263157895"/>
      <point x="214.8421052631579" y="433.4631578947368" type="curve"/>
      <point x="205.83157894736843" y="433.4631578947368" type="line"/>
      <point x="213.01052631578946" y="501.10526315789474" type="line"/>
      <point x="128.36842105263156" y="496.18947368421055" type="line"/>
      <point x="124.02105263157893" y="419.7263157894737"/>
      <point x="111.66315789473684" y="342.0"/>
      <point x="96.38947368421051" y="268.81052631578945" type="curve"/>
      <point x="44.66315789473684" y="26.810526315789474" type="line"/>
      <point x="27.38947368421052" y="-55.01052631578948"/>
      <point x="10.294736842105259" y="-121.73684210526316"/>
    </contour>
    <contour>
      <point x="286.5473684210526" y="63.77894736842106" type="curve"/>
      <point x="236.6842105263158" y="64.3263157894737"/>
      <point x="185.18947368421053" y="93.56842105263159"/>
      <point x="152.31578947368425" y="144.2421052631579" type="curve"/>
      <point x="198.10526315789477" y="360.2" type="line"/>
      <point x="240.0631578947368" y="404.07368421052627"/>
      <point x="295.2842105263158" y="432.9578947368421"/>
      <point x="336.7052631578947" y="433.9578947368421" type="curve"/>
      <point x="443.2421052631579" y="430.9578947368421"/>
      <point x="480.6631578947368" y="340.0210526315789"/>
      <point x="458.1368421052631" y="230.56842105263158" type="curve" smooth="yes"/>
      <point x="438.24210526315784" y="135.2736842105263"/>
      <point x="383.7368421052632" y="67.05263157894737"/>
    </contour>
  </outline>
</glyph>
<glyph name="q" format="2">
  <advance width="586.3684210526316"/>
  <unicode hex="0071"/>
  <outline>
    <contour>
      <point x="321.77894736842103" y="-195.09473684210528" type="curve"/>
      <point x="418.8105263157895" y="-192.0" type="line"/>
      <point x="430.5263157894737" y="-118.6421052631579"/>
      <point x="441.6105263157895" y="-55.01052631578948"/>
      <point x="458.8842105263158" y="26.810526315789474" type="curve"/>
      <point x="510.15789473684214" y="268.81052631578945" type="line"/>
      <point x="525.7052631578947" y="343.5473684210526"/>
      <point x="546.3473684210526" y="423.09473684210525"/>
      <point x="572.9052631578946" y="501.10526315789474" type="curve"/>
      <point x="490.17894736842106" y="496.18947368421055" type="line"/>
      <point x="469.17894736842106" y="428.378947368421" type="line"/>
      <point x="460.4421052631579" y="428.378947368421" type="line"/>
      <point x="423.90526315789475" y="472.66315789473686"/>
      <point x="355.7368421052631" y="507.8315789473684"/>
      <point x="292.4842105263158" y="507.8315789473684" type="curve" smooth="yes"/>
      <point x="172.1263157894737" y="507.8315789473684"/>
      <point x="85.9578947368421" y="416.81052631578945"/>
      <point x="55.95789473684211" y="273.63157894736844" type="curve" smooth="yes"/>
      <point x="24.68421052631579" y="123.0842105263158"/>
      <point x="81.21052631578948" y="-10.91578947368421"/>
      <point x="227.91578947368419" y="-10.91578947368421" type="curve" smooth="yes"/>
      <point x="276.08421052631576" y="-10.91578947368421"/>
      <point x="335.69473684210527" y="17.978947368421053"/>
      <point x="376.77894736842103" y="66.06315789473685" type="curve"/>
      <point x="384.9684210526316" y="66.06315789473685" type="line"/>
      <point x="375.5157894736842" y="23.25263157894737" type="line"/>
      <point x="359.06315789473683" y="-55.01052631578948"/>
      <point x="341.9684210526316" y="-121.73684210526316"/>
    </contour>
    <contour>
      <point x="261.2105263157895" y="62.95789473684211" type="curve"/>
      <point x="154.67368421052632" y="65.23157894736842"/>
      <point x="116.5263157894737" y="157.62105263157895"/>
      <point x="139.77894736842106" y="266.34736842105264" type="curve" smooth="yes"/>
      <point x="160.4" y="363.09473684210525"/>
      <point x="214.17894736842106" y="429.86315789473684"/>
      <point x="311.36842105263156" y="433.13684210526316" type="curve"/>
      <point x="363.4105263157895" y="431.86315789473684"/>
      <point x="414.17894736842106" y="405.52631578947364"/>
      <point x="448.5052631578947" y="366.4736842105263" type="curve"/>
      <point x="403.4421052631579" y="155.6" type="line"/>
      <point x="365.8421052631579" y="98.65263157894738"/>
      <point x="312.0736842105263" y="64.6842105263158"/>
    </contour>
  </outline>
</glyph>
<glyph name="r" format="2">
  <advance width="406.04210526315785"/>
  <unicode hex="0072"/>
  <anchor x="74.8421052631579" y="0.0" name="bottom"/>
  <anchor x="285.6421052631579" y="496.18947368421055" name="top"/>
  <outline>
    <contour>
      <point x="31.831578947368417" y="0.0" type="curve"/>
      <point x="127.86315789473684" y="0.0" type="line"/>
      <point x="139.57894736842107" y="73.3578947368421"/>
      <point x="150.66315789473688" y="136.98947368421054"/>
      <point x="167.11578947368423" y="215.25263157894736" type="curve"/>
      <point x="185.47368421052633" y="299.7684210526316" type="line"/>
      <point x="249.95789473684215" y="400.8421052631579"/>
      <point x="309.5684210526316" y="423.5578947368421"/>
      <point x="344.4526315789473" y="423.5578947368421" type="curve" smooth="yes"/>
      <point x="362.17894736842106" y="423.5578947368421"/>
      <point x="380.72631578947363" y="419.7368421052631"/>
      <point x="408.18947368421055" y="409.4631578947368" type="curve"/>
      <point x="434.06315789473683" y="497.10526315789474" type="line"/>
      <point x="416.33684210526314" y="502.8315789473684"/>
      <point x="389.7894736842105" y="507.8315789473684"/>
      <point x="368.62105263157895" y="507.8315789473684" type="curve" smooth="yes"/>
      <point x="325.62105263157895" y="507.8315789473684"/>
      <point x="267.7368421052631" y="487.378947368421"/>
      <point x="205.84210526315792" y="401.9473684210526" type="curve"/>
      <point x="197.55789473684212" y="401.9473684210526" type="line"/>
      <point x="210.54736842105265" y="501.10526315789474" type="line"/>
      <point x="128.36842105263156" y="496.18947368421055" type="line"/>
      <point x="124.02105263157893" y="419.7263157894737"/>
      <point x="111.66315789473684" y="342.0"/>
      <point x="96.38947368421051" y="268.81052631578945" type="curve"/>
      <point x="85.38947368421051" y="218.81052631578947" type="line"/>
      <point x="68.1157894736842" y="136.98947368421054"/>
      <point x="52.02105263157894" y="73.3578947368421"/>
    </contour>
  </outline>
</glyph>
<glyph name="s" format="2">
  <advance width="454.9655172413793"/>
  <unicode hex="0073"/>
  <anchor x="175.3793103448276" y="0.0" name="bottom"/>
  <anchor x="279.9770114942529" y="496.39080459770116" name="top"/>
  <outline>
    <contour>
      <point x="195.5747126436782" y="-10.793103448275861" type="curve" smooth="yes"/>
      <point x="306.52873563218395" y="-10.793103448275861"/>
      <point x="367.11494252873564" y="33.98850574712643"/>
      <point x="382.11494252873564" y="105.97701149425288" type="curve" smooth="yes"/>
      <point x="400.51724137931035" y="194.367816091954"/>
      <point x="346.88505747126436" y="237.9655172413793"/>
      <point x="255.31034482758622" y="278.35632183908046" type="curve" smooth="yes"/>
      <point x="175.65517241379308" y="314.18390804597703"/>
      <point x="162.04597701149424" y="338.4022988505747"/>
      <point x="170.25287356321837" y="377.05747126436785" type="curve" smooth="yes"/>
      <point x="181.66666666666666" y="428.1264367816092"/>
      <point x="232.73563218390805" y="434.735632183908"/>
      <point x="266.14942528735634" y="436.735632183908" type="curve"/>
      <point x="291.14942528735634" y="436.735632183908"/>
      <point x="342.55172413793105" y="422.9425287356322"/>
      <point x="403.35632183908046" y="390.3448275862069" type="curve"/>
      <point x="425.11494252873564" y="465.5862068965517" type="line"/>
      <point x="383.32183908045977" y="482.39080459770116"/>
      <point x="312.1609195402299" y="507.58620689655174"/>
      <point x="256.183908045977" y="507.58620689655174" type="curve" smooth="yes"/>
      <point x="168.04597701149424" y="507.58620689655174"/>
      <point x="102.85057471264368" y="465.0"/>
      <point x="86.45977011494253" y="387.8390804597701" type="curve" smooth="yes"/>
      <point x="68.86206896551724" y="307.44827586206895"/>
      <point x="108.67816091954023" y="264.4712643678161"/>
      <point x="194.06896551724137" y="225.06896551724137" type="curve" smooth="yes"/>
      <point x="280.3103448275862" y="185.64367816091954"/>
      <point x="307.9310344827586" y="162.22988505747128"/>
      <point x="297.32183908045977" y="116.95402298850576" type="curve" smooth="yes"/>
      <point x="286.3103448275862" y="69.8735632183908"/>
      <point x="236.45977011494253" y="62.05747126436781"/>
      <point x="189.4022988505747" y="60.6551724137931" type="curve"/>
      <point x="147.58620689655172" y="60.6551724137931"/>
      <point x="89.01149425287356" y="83.04597701149427"/>
      <point x="36.80459770114942" y="117.04597701149427" type="curve"/>
      <point x="14.045977011494255" y="38.218390804597696" type="line"/>
      <point x="55.43678160919541" y="20.01149425287356"/>
      <point x="118.81609195402298" y="-10.793103448275861"/>
    </contour>
  </outline>
</glyph>
<glyph name="t" format="2">
  <advance width="409.85263157894735"/>
  <unicode hex="0074"/>
  <anchor x="183.3578947368421" y="0.0" name="bottom"/>
  <anchor x="210.2" y="248.09473684210528" name="center"/>
  <anchor x="282.48421052631585" y="639.3263157894737" name="top"/>
  <anchor x="292.4526315789474" y="496.18947368421055" name="topright"/>
  <outline>
    <contour>
      <point x="235.37894736842105" y="-10.91578947368421" type="curve" smooth="yes"/>
      <point x="270.2" y="-10.91578947368421"/>
      <point x="312.9473684210526" y="2.989473684210526"/>
      <point x="331.58947368421053" y="11.989473684210527" type="curve"/>
      <point x="339.70526315789476" y="89.75789473684212" type="line"/>
      <point x="312.43157894736845" y="72.57894736842105"/>
      <point x="277.9894736842105" y="60.76842105263158"/>
      <point x="257.4526315789474" y="60.76842105263158" type="curve" smooth="yes"/>
      <point x="198.57894736842104" y="60.76842105263158"/>
      <point x="168.5157894736842" y="96.1263157894737"/>
      <point x="186.2315789473684" y="178.89473684210526" type="curve" smooth="yes"/>
      <point x="248.66315789473683" y="471.7894736842105" type="line"/>
      <point x="265.30526315789473" y="550.0"/>
      <point x="277.5894736842105" y="601.3894736842105"/>
      <point x="296.4210526315789" y="675.4" type="curve"/>
      <point x="201.2" y="656.4631578947368" type="line"/>
      <point x="190.66315789473683" y="594.0"/>
      <point x="181.03157894736842" y="539.8105263157895"/>
      <point x="166.93684210526314" y="471.7894736842105" type="curve"/>
      <point x="147.1894736842105" y="378.69473684210527"/>
      <point x="124.19999999999999" y="281.0315789473684"/>
      <point x="99.85263157894737" y="166.47368421052633" type="curve" smooth="yes"/>
      <point x="75.21052631578947" y="50.44210526315789"/>
      <point x="133.43157894736842" y="-10.91578947368421"/>
    </contour>
    <contour>
      <point x="61.13684210526316" y="424.13684210526316" type="line"/>
      <point x="180.70526315789473" y="433.7894736842105" type="line"/>
      <point x="214.4315789473684" y="433.7894736842105" type="line"/>
      <point x="278.32631578947365" y="433.2421052631579"/>
      <point x="346.9473684210526" y="430.6"/>
      <point x="412.38947368421054" y="424.13684210526316" type="curve"/>
      <point x="427.87368421052633" y="496.18947368421055" type="line"/>
      <point x="76.62105263157895" y="496.18947368421055" type="line"/>
    </contour>
  </outline>
</glyph>
<glyph name="u" format="2">
  <advance width="561.5894736842105"/>
  <unicode hex="0075"/>
  <anchor x="228.47368421052633" y="0.0" name="bottom"/>
  <anchor x="436.46315789473687" y="0.0" name="ogonek"/>
  <anchor x="332.7473684210526" y="496.18947368421055" name="top"/>
  <anchor x="585.8736842105263" y="496.18947368421055" name="topright"/>
  <outline>
    <contour>
      <point x="188.21052631578945" y="-10.91578947368421" type="curve" smooth="yes"/>
      <point x="248.02105263157893" y="-10.91578947368421"/>
      <point x="323.821052631579" y="40.96842105263158"/>
      <point x="367.18947368421055" y="84.07368421052631" type="curve"/>
      <point x="375.4736842105263" y="84.07368421052631" type="line"/>
      <point x="361.0315789473685" y="0.0" type="line"/>
      <point x="438.10526315789474" y="0.0" type="line"/>
      <point x="449.821052631579" y="73.3578947368421"/>
      <point x="460.63157894736844" y="136.98947368421054"/>
      <point x="477.90526315789475" y="218.81052631578947" type="curve"/>
      <point x="489.4526315789474" y="271.5473684210526" type="line"/>
      <point x="507.5473684210526" y="357.7473684210526"/>
      <point x="523.6421052631579" y="422.8315789473684"/>
      <point x="544.2842105263159" y="496.18947368421055" type="curve"/>
      <point x="448.34736842105264" y="496.18947368421055" type="line"/>
      <point x="438.0842105263158" y="422.8315789473684"/>
      <point x="425.7263157894737" y="357.7473684210526"/>
      <point x="408.5473684210526" y="279.4842105263158" type="curve"/>
      <point x="383.46315789473687" y="161.69473684210524" type="line"/>
      <point x="335.9578947368421" y="111.2842105263158"/>
      <point x="270.65263157894736" y="65.69473684210527"/>
      <point x="226.06315789473683" y="65.69473684210527" type="curve" smooth="yes"/>
      <point x="149.04210526315788" y="65.69473684210527"/>
      <point x="129.06315789473683" y="114.30526315789474"/>
      <point x="148.0526315789474" y="203.07368421052632" type="curve"/>
      <point x="163.58947368421053" y="279.4842105263158" type="line"/>
      <point x="179.7684210526316" y="357.7473684210526"/>
      <point x="196.86315789473684" y="425.9263157894737"/>
      <point x="217.50526315789475" y="499.2842105263158" type="curve"/>
      <point x="119.74736842105263" y="496.18947368421055" type="line"/>
      <point x="109.48421052631579" y="422.8315789473684"/>
      <point x="98.22105263157896" y="358.29473684210524"/>
      <point x="79.4" y="271.5473684210526" type="curve"/>
      <point x="71.40000000000002" y="235.45263157894738"/>
      <point x="65.30526315789474" y="209.3578947368421"/>
      <point x="59.305263157894736" y="181.81052631578947" type="curve" smooth="yes"/>
      <point x="33.126315789473686" y="62.00000000000001"/>
      <point x="78.85263157894737" y="-10.91578947368421"/>
    </contour>
  </outline>
</glyph>
<glyph name="v" format="2">
  <advance width="519.8105263157895"/>
  <unicode hex="0076"/>
  <outline>
    <contour>
      <point x="158.03157894736842" y="0.0" type="curve"/>
      <point x="259.5052631578948" y="0.0" type="line"/>
      <point x="293.0421052631579" y="62.27368421052632"/>
      <point x="327.6736842105263" y="123.82105263157895"/>
      <point x="363.85263157894735" y="185.82105263157897" type="curve"/>
      <point x="415.7578947368421" y="274.36842105263156" type="line"/>
      <point x="458.2105263157895" y="347.9157894736842"/>
      <point x="502.38947368421054" y="422.9157894736842"/>
      <point x="550.2105263157894" y="496.18947368421055" type="curve"/>
      <point x="445.9894736842105" y="496.18947368421055" type="line"/>
      <point x="405.30526315789473" y="415.5052631578947"/>
      <point x="362.70526315789476" y="334.0842105263158"/>
      <point x="316.10526315789474" y="249.7578947368421" type="curve"/>
      <point x="228.81052631578947" y="90.55789473684212" type="line"/>
      <point x="220.07368421052632" y="90.55789473684212" type="line"/>
      <point x="198.92631578947368" y="249.7578947368421" type="line"/>
      <point x="187.4" y="334.0842105263158"/>
      <point x="177.69473684210527" y="415.77894736842103"/>
      <point x="170.26315789473682" y="499.2842105263158" type="curve"/>
      <point x="75.6" y="496.18947368421055" type="line"/>
      <point x="91.42105263157896" y="424.1894736842105"/>
      <point x="105.14736842105263" y="348.6421052631579"/>
      <point x="117.05263157894737" y="276.09473684210525" type="curve"/>
      <point x="131.2315789473684" y="187.82105263157894" type="line"/>
      <point x="141.41052631578947" y="127.0"/>
      <point x="150.7684210526316" y="62.27368421052632"/>
    </contour>
  </outline>
</glyph>
<glyph name="w" format="2">
  <advance width="806.8947368421053"/>
  <unicode hex="0077"/>
  <anchor x="350.7578947368421" y="0.0" name="bottom"/>
  <anchor x="455.0315789473684" y="496.18947368421055" name="top"/>
  <outline>
    <contour>
      <point x="133.03157894736844" y="0.0" type="curve"/>
      <point x="233.0421052631579" y="0.0" type="line"/>
      <point x="269.3684210526316" y="76.86315789473684"/>
      <point x="310.2421052631579" y="159.3578947368421"/>
      <point x="348.4842105263158" y="234.7684210526316" type="curve"/>
      <point x="422.5157894736842" y="381.13684210526316" type="line"/>
      <point x="430.7052631578947" y="381.13684210526316" type="line"/>
      <point x="444.4105263157895" y="237.5894736842105" type="line"/>
      <point x="451.12631578947367" y="162.3578947368421"/>
      <point x="458.2947368421053" y="75.41052631578948"/>
      <point x="462.3684210526317" y="0.0" type="curve"/>
      <point x="571.1263157894737" y="0.0" type="line"/>
      <point x="600.1157894736842" y="61.27368421052632"/>
      <point x="632.5684210526316" y="124.54736842105264"/>
      <point x="667.2947368421053" y="189.82105263157894" type="curve"/>
      <point x="713.7473684210527" y="276.82105263157894" type="line"/>
      <point x="752.7473684210527" y="349.9157894736842"/>
      <point x="791.4736842105264" y="421.9157894736842"/>
      <point x="837.1157894736842" y="496.18947368421055" type="curve"/>
      <point x="732.621052631579" y="496.18947368421055" type="line"/>
      <point x="699.9263157894737" y="422.4947368421053"/>
      <point x="654.0526315789474" y="329.7157894736842"/>
      <point x="613.5368421052632" y="248.56842105263158" type="curve"/>
      <point x="533.5052631578948" y="88.27368421052631" type="line"/>
      <point x="525.7684210526315" y="88.27368421052631" type="line"/>
      <point x="512.4315789473685" y="247.29473684210527" type="line"/>
      <point x="505.5368421052632" y="329.4421052631579"/>
      <point x="499.18947368421055" y="416.0421052631579"/>
      <point x="495.9368421052631" y="496.18947368421055" type="curve"/>
      <point x="406.30526315789473" y="496.18947368421055" type="line"/>
      <point x="367.8" y="411.13684210526316"/>
      <point x="327.2842105263158" y="328.53684210526313"/>
      <point x="286.4947368421053" y="245.8421052631579" type="curve"/>
      <point x="208.6421052631579" y="88.27368421052631" type="line"/>
      <point x="200.90526315789475" y="88.27368421052631" type="line"/>
      <point x="186.8421052631579" y="242.93684210526317" type="line"/>
      <point x="179.94736842105263" y="324.3578947368421"/>
      <point x="172.14736842105265" y="416.41052631578947"/>
      <point x="168.89473684210526" y="499.2842105263158" type="curve"/>
      <point x="73.2315789473684" y="496.18947368421055" type="line"/>
      <point x="87.87368421052632" y="421.1894736842105"/>
      <point x="96.6" y="350.36842105263156"/>
      <point x="104.77894736842104" y="276.82105263157894" type="curve"/>
      <point x="115.41052631578947" y="188.09473684210525" type="line"/>
      <point x="122.58947368421052" y="124.82105263157895"/>
      <point x="128.7684210526316" y="62.27368421052632"/>
    </contour>
  </outline>
</glyph>
<glyph name="x" format="2">
  <advance width="538.1894736842105"/>
  <unicode hex="0078"/>
  <outline>
    <contour>
      <point x="-26.852631578947367" y="0.0" type="curve"/>
      <point x="86.01052631578949" y="0.0" type="line"/>
      <point x="120.06315789473685" y="44.34736842105263"/>
      <point x="146.4" y="76.51578947368421"/>
      <point x="183.3684210526316" y="120.6842105263158" type="curve"/>
      <point x="255.3052631578947" y="205.10526315789474" type="line"/>
      <point x="262.4947368421052" y="205.10526315789474" type="line"/>
      <point x="304.2631578947368" y="117.86315789473684" type="line"/>
      <point x="325.14736842105265" y="74.51578947368421"/>
      <point x="339.6736842105263" y="42.8"/>
      <point x="356.46315789473687" y="0.0" type="curve"/>
      <point x="460.13684210526316" y="0.0" type="line"/>
      <point x="421.9578947368421" y="63.6421052631579"/>
      <point x="400.6" y="104.01052631578948"/>
      <point x="375.33684210526314" y="152.2842105263158" type="curve"/>
      <point x="315.81052631578945" y="266.5684210526316" type="line"/>
      <point x="315.17894736842106" y="244.6315789473684" type="line"/>
      <point x="412.34736842105264" y="351.0" type="line"/>
      <point x="457.4315789473684" y="400.2736842105263"/>
      <point x="486.1578947368421" y="431.36842105263156"/>
      <point x="548.7894736842105" y="496.18947368421055" type="curve"/>
      <point x="435.65263157894736" y="496.18947368421055" type="line"/>
      <point x="402.05263157894734" y="451.84210526315786"/>
      <point x="374.89473684210526" y="419.12631578947367"/>
      <point x="339.5578947368421" y="377.13684210526316" type="curve"/>
      <point x="271.4315789473684" y="297.0736842105263" type="line"/>
      <point x="264.4210526315789" y="297.0736842105263" type="line"/>
      <point x="227.9157894736842" y="377.41052631578947" type="line"/>
      <point x="210.38947368421051" y="416.9473684210526"/>
      <point x="194.86315789473682" y="453.2105263157895"/>
      <point x="177.8" y="499.2842105263158" type="curve"/>
      <point x="80.23157894736842" y="496.18947368421055" type="line"/>
      <point x="114.86315789473684" y="434.6421052631579"/>
      <point x="132.49473684210525" y="398.5473684210526"/>
      <point x="157.21052631578948" y="347.82105263157894" type="curve"/>
      <point x="208.46315789473684" y="241.7263157894737" type="line"/>
      <point x="212.37894736842105" y="265.11578947368423" type="line"/>
      <point x="113.6736842105263" y="153.10526315789474" type="line"/>
      <point x="69.13684210526317" y="102.46315789473685"/>
      <point x="36.77894736842105" y="66.6421052631579"/>
    </contour>
  </outline>
</glyph>
<glyph name="y" format="2">
  <advance width="522.7157894736843"/>
  <unicode hex="0079"/>
  <anchor x="342.5157894736842" y="0.0" name="bottom"/>
  <anchor x="314.22105263157897" y="496.18947368421055" name="top"/>
  <outline>
    <contour>
      <point x="35.010526315789456" y="-195.09473684210528" type="curve"/>
      <point x="139.77894736842106" y="-192.0" type="line"/>
      <point x="178.22105263157897" y="-120.0"/>
      <point x="226.39999999999998" y="-37.90526315789474"/>
      <point x="303.0315789473684" y="89.09473684210526" type="curve"/>
      <point x="387.2105263157895" y="228.6421052631579" type="line"/>
      <point x="462.38947368421054" y="353.9157894736842"/>
      <point x="499.8421052631579" y="415.18947368421055"/>
      <point x="550.8421052631579" y="496.18947368421055" type="curve"/>
      <point x="447.4421052631579" y="496.18947368421055" type="line"/>
      <point x="405.7578947368421" y="413.3157894736842"/>
      <point x="362.43157894736845" y="333.4421052631579"/>
      <point x="314.8315789473684" y="248.38947368421054" type="curve"/>
      <point x="224.81052631578945" y="88.36842105263159" type="line"/>
      <point x="216.07368421052632" y="88.36842105263159" type="line"/>
      <point x="196.37894736842102" y="247.93684210526317" type="line"/>
      <point x="185.30526315789473" y="333.53684210526313"/>
      <point x="176.32631578947368" y="413.6842105263158"/>
      <point x="169.44210526315788" y="499.2842105263158" type="curve"/>
      <point x="74.77894736842104" y="496.18947368421055" type="line"/>
      <point x="90.8736842105263" y="424.9157894736842"/>
      <point x="103.32631578947368" y="348.9157894736842"/>
      <point x="114.50526315789473" y="277.6421052631579" type="curve"/>
      <point x="128.41052631578947" y="187.6421052631579" type="line"/>
      <point x="138.86315789473682" y="120.82105263157894"/>
      <point x="147.67368421052632" y="50.36842105263158"/>
      <point x="155.93684210526317" y="-17.905263157894737" type="curve"/>
      <point x="162.31578947368422" y="5.305263157894737" type="line"/>
      <point x="124.3157894736842" y="-60.431578947368415"/>
      <point x="80.21052631578948" y="-129.3578947368421"/>
    </contour>
  </outline>
</glyph>
<glyph name="z" format="2">
  <advance width="496.77894736842103"/>
  <unicode hex="007A"/>
  <anchor x="194.38947368421054" y="0.0" name="bottom"/>
  <anchor x="246.66315789473686" y="248.09473684210528" name="center"/>
  <anchor x="298.93684210526317" y="496.18947368421055" name="top"/>
  <outline>
    <contour>
      <point x="-13.74736842105263" y="0.0" type="line"/>
      <point x="408.88421052631577" y="0.0" type="line"/>
      <point x="424.6421052631579" y="73.14736842105265" type="line"/>
      <point x="355.93684210526317" y="67.04210526315791"/>
      <point x="264.69473684210527" y="64.1263157894737"/>
      <point x="210.16842105263157" y="64.1263157894737" type="curve"/>
      <point x="89.4842105263158" y="64.1263157894737" type="line"/>
      <point x="99.13684210526317" y="45.54736842105264" type="line"/>
      <point x="298.30526315789473" y="250.89473684210526" type="line"/>
      <point x="359.0947368421053" y="313.4105263157895"/>
      <point x="436.5157894736842" y="390.36842105263156"/>
      <point x="485.4105263157895" y="437.52631578947364" type="curve"/>
      <point x="497.5263157894737" y="496.18947368421055" type="line"/>
      <point x="92.7157894736842" y="496.18947368421055" type="line"/>
      <point x="76.68421052631578" y="421.6736842105263" type="line"/>
      <point x="151.38947368421054" y="429.32631578947365"/>
      <point x="244.17894736842106" y="431.7894736842105"/>
      <point x="297.978947368421" y="431.7894736842105" type="curve"/>
      <point x="407.57894736842104" y="431.7894736842105" type="line"/>
      <point x="395.46315789473687" y="459.9157894736842" type="line"/>
      <point x="194.28421052631577" y="250.3684210526316" type="line"/>
      <point x="137.22105263157894" y="190.7578947368421"/>
      <point x="69.15789473684211" y="122.06315789473685"/>
      <point x="-2.7263157894736834" y="51.73684210526316" type="curve"/>
    </contour>
  </outline>
</glyph>
<glyph name="braceleft" format="2">
  <advance width="404.2947368421053"/>
  <unicode hex="007B"/>
  <outline>
    <contour>
      <point x="231.42105263157896" y="-116.92631578947369" type="curve" smooth="yes"/>
      <point x="312.4526315789474" y="-116.92631578947369" type="line"/>
      <point x="326.93684210526317" y="-45.694736842105264" type="line"/>
      <point x="293.38947368421054" y="-47.51578947368421"/>
      <point x="266.38947368421054" y="-47.78947368421053"/>
      <point x="249.38947368421051" y="-47.78947368421053" type="curve"/>
      <point x="186.61052631578949" y="-46.694736842105264"/>
      <point x="165.08421052631581" y="-8.347368421052629"/>
      <point x="175.44210526315788" y="46.810526315789474" type="curve" smooth="yes"/>
      <point x="204.14736842105265" y="193.16842105263157" type="line" smooth="yes"/>
      <point x="218.6" y="266.53684210526313"/>
      <point x="198.14736842105265" y="297.63157894736844"/>
      <point x="151.8421052631579" y="318.2736842105263" type="curve"/>
      <point x="153.38947368421054" y="326.7368421052631" type="line"/>
      <point x="208.2421052631579" y="348.29473684210524"/>
      <point x="241.33684210526314" y="378.7684210526316"/>
      <point x="259.43157894736845" y="456.58947368421053" type="curve" smooth="yes"/>
      <point x="295.3157894736842" y="616.9157894736842" type="line" smooth="yes"/>
      <point x="308.2210526315789" y="674.2526315789474"/>
      <point x="340.47368421052636" y="696.3368421052631"/>
      <point x="399.62105263157895" y="697.1578947368421" type="curve"/>
      <point x="418.8" y="697.1578947368421"/>
      <point x="447.7052631578947" y="696.8842105263158"/>
      <point x="481.06315789473683" y="695.0631578947368" type="curve"/>
      <point x="496.5473684210526" y="766.2947368421053" type="line"/>
      <point x="397.6105263157895" y="766.2947368421053" type="line" smooth="yes"/>
      <point x="299.2" y="766.2947368421053"/>
      <point x="236.3473684210526" y="726.9157894736842"/>
      <point x="217.15789473684208" y="635.9684210526316" type="curve"/>
      <point x="205.25263157894733" y="577.621052631579"/>
      <point x="194.53684210526313" y="513.6526315789474"/>
      <point x="182.3578947368421" y="455.30526315789473" type="curve"/>
      <point x="167.2736842105263" y="383.5157894736842"/>
      <point x="116.48421052631579" y="355.7894736842105"/>
      <point x="68.22105263157894" y="355.7894736842105" type="curve" smooth="yes"/>
      <point x="35.294736842105266" y="355.7894736842105" type="line"/>
      <point x="22.178947368421053" y="292.85263157894735" type="line"/>
      <point x="55.10526315789473" y="292.85263157894735" type="line" smooth="yes"/>
      <point x="103.36842105263159" y="292.85263157894735"/>
      <point x="142.15789473684208" y="265.12631578947367"/>
      <point x="127.0736842105263" y="193.33684210526314" type="curve"/>
      <point x="116.44210526315788" y="142.45263157894735"/>
      <point x="103.7157894736842" y="92.29473684210527"/>
      <point x="93.08421052631577" y="41.410526315789475" type="curve"/>
      <point x="74.62105263157893" y="-47.357894736842105"/>
      <point x="126.47368421052632" y="-116.92631578947369"/>
    </contour>
  </outline>
</glyph>
<glyph name="bar" format="2">
  <advance width="264.2315789473684"/>
  <unicode hex="007C"/>
  <outline>
    <contour>
      <point x="4.6631578947368375" y="-156.73684210526315" type="curve"/>
      <point x="87.9263157894737" y="-156.73684210526315" type="line"/>
      <point x="108.46315789473685" y="-39.73684210526316"/>
      <point x="130.18947368421055" y="64.26315789473684"/>
      <point x="153.18947368421055" y="172.26315789473685" type="curve"/>
      <point x="213.18947368421055" y="454.2631578947368" type="line"/>
      <point x="236.18947368421055" y="562.2631578947369"/>
      <point x="258.46315789473687" y="666.2631578947369"/>
      <point x="287.92631578947373" y="783.2631578947369" type="curve"/>
      <point x="204.66315789473686" y="783.2631578947369" type="line"/>
      <point x="184.1263157894737" y="666.2631578947369"/>
      <point x="162.4" y="562.2631578947369"/>
      <point x="139.4" y="454.2631578947368" type="curve"/>
      <point x="79.39999999999999" y="172.26315789473685" type="line"/>
      <point x="56.39999999999999" y="64.26315789473684"/>
      <point x="33.85263157894735" y="-39.73684210526316"/>
    </contour>
  </outline>
</glyph>
<glyph name="cent" format="2">
  <advance width="494.33684210526314"/>
  <unicode hex="00A2"/>
  <anchor x="233.34736842105264" y="0.0" name="bottom"/>
  <anchor x="331.3578947368421" y="496.18947368421055" name="top"/>
  <outline>
    <contour>
      <point x="163.4" y="-137.0" type="curve"/>
      <point x="234.98947368421054" y="-137.0" type="line"/>
      <point x="254.97894736842107" y="-20.54736842105263"/>
      <point x="277.2526315789474" y="84.0"/>
      <point x="300.2526315789474" y="192.2736842105263" type="curve"/>
      <point x="322.2526315789474" y="295.09473684210525" type="line"/>
      <point x="345.2526315789474" y="403.36842105263156"/>
      <point x="367.2526315789474" y="507.09473684210525"/>
      <point x="396.98947368421057" y="624.3684210526316" type="curve"/>
      <point x="325.4" y="624.3684210526316" type="line"/>
      <point x="305.13684210526316" y="507.36842105263156"/>
      <point x="283.13684210526316" y="403.09473684210525"/>
      <point x="260.13684210526316" y="295.09473684210525" type="curve"/>
      <point x="238.13684210526316" y="192.2736842105263" type="line"/>
      <point x="215.41052631578947" y="85.09473684210526"/>
      <point x="193.13684210526316" y="-19.726315789473684"/>
    </contour>
    <contour>
      <point x="280.5578947368421" y="-10.094736842105263" type="curve" smooth="yes"/>
      <point x="324.5473684210526" y="-10.094736842105263"/>
      <point x="375.4526315789474" y="5.989473684210527"/>
      <point x="402.4526315789474" y="18.347368421052632" type="curve"/>
      <point x="410.93684210526317" y="98.85263157894738" type="line"/>
      <point x="375.85263157894735" y="78.49473684210527"/>
      <point x="328.4947368421053" y="62.863157894736844"/>
      <point x="293.14736842105265" y="62.13684210526316" type="curve" smooth="yes"/>
      <point x="176.67368421052632" y="64.13684210526316"/>
      <point x="110.70526315789473" y="139.26315789473685"/>
      <point x="138.05263157894737" y="266.4526315789473" type="curve" smooth="yes"/>
      <point x="161.4" y="373.91578947368424"/>
      <point x="234.43157894736842" y="428.9578947368421"/>
      <point x="327.7263157894737" y="433.9578947368421" type="curve"/>
      <point x="360.3473684210526" y="433.9578947368421"/>
      <point x="414.2421052631579" y="419.3263157894737"/>
      <point x="469.61052631578946" y="387.6947368421052" type="curve"/>
      <point x="492.10526315789474" y="464.56842105263155" type="line"/>
      <point x="451.2842105263158" y="482.9263157894737"/>
      <point x="387.27368421052637" y="507.5578947368421"/>
      <point x="328.178947368421" y="507.5578947368421" type="curve" smooth="yes"/>
      <point x="186.68421052631578" y="507.5578947368421"/>
      <point x="83.05263157894737" y="413.37894736842105"/>
      <point x="54.50526315789474" y="276.0105263157895" type="curve" smooth="yes"/>
      <point x="19.863157894736844" y="107.98947368421052"/>
      <point x="110.8" y="-10.094736842105263"/>
    </contour>
  </outline>
</glyph>
<glyph name="sterling" format="2">
  <advance width="591.0421052631579"/>
  <unicode hex="00A3"/>
  <outline>
    <contour>
      <point x="11.778947368421054" y="0.0" type="line"/>
      <point x="505.1368421052632" y="0.0" type="line"/>
      <point x="523.0842105263158" y="84.45263157894738" type="line"/>
      <point x="436.2736842105263" y="77.07368421052632"/>
      <point x="360.2842105263158" y="76.52631578947368"/>
      <point x="231.93684210526317" y="76.52631578947368" type="curve"/>
      <point x="89.6842105263158" y="76.52631578947368" type="line"/>
      <point x="102.8" y="54.515789473684215" type="line"/>
      <point x="196.8105263157895" y="127.7684210526316"/>
      <point x="214.98947368421057" y="188.11578947368423"/>
      <point x="226.8947368421053" y="242.73684210526315" type="curve" smooth="yes"/>
      <point x="273.3157894736842" y="460.3157894736842" type="line" smooth="yes"/>
      <point x="296.93684210526317" y="570.6105263157895"/>
      <point x="349.6421052631579" y="620.8526315789474"/>
      <point x="440.7684210526316" y="622.6736842105263" type="curve"/>
      <point x="474.38947368421054" y="622.6736842105263"/>
      <point x="530.0105263157894" y="608.0421052631579"/>
      <point x="587.378947368421" y="576.8631578947368" type="curve"/>
      <point x="613.3368421052631" y="656.5684210526315" type="line"/>
      <point x="568.3263157894737" y="674.6526315789473"/>
      <point x="498.48421052631585" y="698.7368421052631"/>
      <point x="434.10526315789474" y="698.7368421052631" type="curve" smooth="yes"/>
      <point x="306.86315789473684" y="698.7368421052631"/>
      <point x="217.4842105263158" y="624.8947368421052"/>
      <point x="185.93684210526317" y="473.3368421052632" type="curve" smooth="yes"/>
      <point x="169.57894736842107" y="398.63157894736844"/>
      <point x="151.86315789473684" y="300.10526315789474"/>
      <point x="135.4105263157895" y="221.56842105263158" type="curve"/>
      <point x="125.95789473684212" y="177.49473684210525"/>
      <point x="107.87368421052633" y="116.33684210526316"/>
      <point x="22.978947368421053" y="52.45263157894737" type="curve"/>
    </contour>
    <contour>
      <point x="79.23157894736842" y="341.5473684210526" type="line"/>
      <point x="142.8842105263158" y="344.9157894736842"/>
      <point x="202.53684210526316" y="345.1894736842105"/>
      <point x="253.64210526315793" y="345.1894736842105" type="curve"/>
      <point x="287.4736842105263" y="345.1894736842105" type="line"/>
      <point x="338.57894736842104" y="345.1894736842105"/>
      <point x="397.6842105263158" y="344.9157894736842"/>
      <point x="459.3368421052632" y="341.5473684210526" type="curve"/>
      <point x="474.0" y="410.2210526315789" type="line"/>
      <point x="411.07368421052627" y="406.85263157894735"/>
      <point x="351.4210526315789" y="406.57894736842104"/>
      <point x="300.31578947368416" y="406.57894736842104" type="curve"/>
      <point x="266.4842105263158" y="406.57894736842104" type="line"/>
      <point x="215.37894736842105" y="406.57894736842104"/>
      <point x="156.2736842105263" y="406.85263157894735"/>
      <point x="93.89473684210527" y="410.2210526315789" type="curve"/>
    </contour>
  </outline>
</glyph>
<glyph name="currency" format="2">
  <advance width="622.9894736842106"/>
  <unicode hex="00A4"/>
  <outline>
    <contour>
      <point x="311.1263157894737" y="114.94736842105262" type="curve" smooth="yes"/>
      <point x="426.34736842105264" y="114.94736842105262"/>
      <point x="503.91578947368424" y="171.5894736842105"/>
      <point x="528.3789473684211" y="293.34736842105264" type="curve" smooth="yes"/>
      <point x="553.5684210526316" y="417.8315789473684"/>
      <point x="468.0" y="525.2315789473685"/>
      <point x="340.4947368421053" y="525.2315789473685" type="curve" smooth="yes"/>
      <point x="230.35789473684213" y="525.2315789473685"/>
      <point x="146.52631578947367" y="469.3157894736842"/>
      <point x="122.06315789473683" y="347.5578947368421" type="curve" smooth="yes"/>
      <point x="96.8736842105263" y="222.3473684210526"/>
      <point x="180.71578947368423" y="114.94736842105262"/>
    </contour>
    <contour>
      <point x="98.16842105263159" y="50.73684210526316" type="line"/>
      <point x="141.6315789473684" y="95.8421052631579"/>
      <point x="184.6421052631579" y="136.12631578947367"/>
      <point x="221.92631578947368" y="171.13684210526316" type="curve"/>
      <point x="170.7263157894737" y="225.97894736842105" type="line"/>
      <point x="133.71578947368423" y="191.2421052631579"/>
      <point x="89.43157894736842" y="151.50526315789475"/>
      <point x="42.05263157894737" y="111.3157894736842" type="curve"/>
    </contour>
    <contour>
      <point x="316.41052631578947" y="186.90526315789475" type="curve"/>
      <point x="234.46315789473684" y="190.00000000000003"/>
      <point x="180.58947368421053" y="256.41052631578947"/>
      <point x="196.57894736842107" y="337.53684210526313" type="curve" smooth="yes"/>
      <point x="211.29473684210527" y="414.0210526315789"/>
      <point x="266.8" y="451.2736842105263"/>
      <point x="336.30526315789473" y="454.09473684210525" type="curve"/>
      <point x="416.62105263157895" y="450.7263157894737"/>
      <point x="470.4" y="383.7684210526316"/>
      <point x="454.6842105263158" y="304.46315789473687" type="curve" smooth="yes"/>
      <point x="438.9684210526316" y="225.33684210526317"/>
      <point x="390.0" y="188.90526315789475"/>
    </contour>
    <contour>
      <point x="195.81052631578947" y="407.93684210526317" type="curve"/>
      <point x="249.10526315789474" y="457.7684210526316" type="line"/>
      <point x="214.09473684210525" y="495.7789473684211"/>
      <point x="174.3578947368421" y="539.0631578947368"/>
      <point x="134.1684210526316" y="586.7157894736843" type="curve"/>
      <point x="75.41052631578948" y="531.421052631579" type="line"/>
      <point x="120.06315789473685" y="488.6842105263158"/>
      <point x="161.07368421052632" y="444.9473684210526"/>
    </contour>
    <contour>
      <point x="520.2736842105263" y="54.73684210526315" type="curve"/>
      <point x="579.0315789473684" y="110.03157894736842" type="line"/>
      <point x="534.3789473684211" y="152.76842105263157"/>
      <point x="493.36842105263156" y="196.50526315789475"/>
      <point x="458.63157894736844" y="233.5157894736842" type="curve"/>
      <point x="405.33684210526314" y="183.68421052631578" type="line"/>
      <point x="440.34736842105264" y="145.6736842105263"/>
      <point x="480.0842105263158" y="102.38947368421053"/>
    </contour>
    <contour>
      <point x="483.7157894736842" y="415.47368421052636" type="line"/>
      <point x="520.7263157894737" y="450.2105263157895"/>
      <point x="565.0105263157895" y="489.94736842105266"/>
      <point x="612.3894736842105" y="530.1368421052632" type="curve"/>
      <point x="556.2736842105263" y="590.7157894736843" type="line"/>
      <point x="512.8105263157895" y="545.6105263157895"/>
      <point x="469.8" y="505.3263157894737"/>
      <point x="432.5157894736842" y="470.3157894736842" type="curve"/>
    </contour>
  </outline>
</glyph>
